<svg width="93" height="125" viewBox="0 0 93 125" fill="none" xmlns="http://www.w3.org/2000/svg">
<circle cx="46.5143" cy="46.6924" r="46.3385" fill="#74124D"/>
<path d="M41.6178 41.7761C42.5179 41.7761 43.4092 41.5988 44.2408 41.2543C45.0724 40.9099 45.828 40.405 46.4645 39.7685C47.1009 39.1321 47.6058 38.3765 47.9503 37.5449C48.2947 36.7133 48.472 35.822 48.472 34.9219C48.472 34.0218 48.2947 33.1305 47.9503 32.2989C47.6058 31.4674 47.1009 30.7118 46.4645 30.0753C45.828 29.4388 45.0724 28.9339 44.2408 28.5895C43.4092 28.245 42.5179 28.0677 41.6178 28.0677C39.8 28.0677 38.0566 28.7899 36.7712 30.0753C35.4858 31.3607 34.7637 33.1041 34.7637 34.9219C34.7637 36.7398 35.4858 38.4831 36.7712 39.7685C38.0566 41.0539 39.8 41.7761 41.6178 41.7761Z" fill="white" stroke="white" stroke-width="2" stroke-linecap="round" stroke-linejoin="round"/>
<path d="M55.3262 30.0261C55.3262 30.0261 57.5293 34.4323 55.3262 39.8177M62.1803 26.1094C62.1803 26.1094 66.5866 34.0407 62.1803 43.7344" stroke="white" stroke-width="2" stroke-linecap="round" stroke-linejoin="round"/>
<path d="M26.9297 62.1427V63.3177H56.3047V62.1427C56.3047 57.7561 56.3047 55.5627 55.4509 53.8864C54.6999 52.4125 53.5016 51.2142 52.0277 50.4632C50.3514 49.6094 48.158 49.6094 43.7714 49.6094H39.463C35.0764 49.6094 32.883 49.6094 31.2067 50.4632C29.7328 51.2142 28.5345 52.4125 27.7835 53.8864C26.9297 55.5627 26.9297 57.7561 26.9297 62.1427Z" fill="white" stroke="white" stroke-width="2" stroke-linecap="round" stroke-linejoin="round"/>
<path d="M45.5859 76.3578V114.831" stroke="#74124D" stroke-width="3.5161"/>
<circle cx="45.1222" cy="117.612" r="6.4894" fill="#74124D"/>
</svg>
