<svg width="93" height="125" viewBox="0 0 93 125" fill="none" xmlns="http://www.w3.org/2000/svg">
<circle cx="46.3381" cy="46.6925" r="46.3381" fill="#937CCD"/>
<path d="M46.5 36.5635C46.5 38.6752 45.6611 40.7005 44.1678 42.1938C42.6746 43.687 40.6493 44.526 38.5375 44.526C36.4257 44.526 34.4004 43.687 32.9071 42.1938C31.4139 40.7005 30.575 38.6752 30.575 36.5635C30.575 34.4517 31.4139 32.4264 32.9071 30.9331C34.4004 29.4399 36.4257 28.601 38.5375 28.601C40.6493 28.601 42.6746 29.4399 44.1678 30.9331C45.6611 32.4264 46.5 34.4517 46.5 36.5635ZM57.525 44.526C59.1494 44.526 60.7074 43.8806 61.856 42.732C63.0047 41.5833 63.65 40.0254 63.65 38.401C63.65 36.7765 63.0047 35.2186 61.856 34.0699C60.7074 32.9213 59.1494 32.276 57.525 32.276C55.9005 32.276 54.3426 32.9213 53.194 34.0699C52.0453 35.2186 51.4 36.7765 51.4 38.401C51.4 40.0254 52.0453 41.5833 53.194 42.732C54.3426 43.8806 55.9005 44.526 57.525 44.526ZM49.538 48.0295C49.3142 48.5015 49.1525 49.0013 49.0529 49.5289C47.6472 49.7908 46.3774 50.5363 45.4637 51.6362C44.5499 52.7361 44.0498 54.121 44.05 55.551V60.9214C42.5432 61.3918 40.7253 61.676 38.5375 61.676C25.675 61.676 25.675 51.876 25.675 51.876C25.675 50.5764 26.1912 49.3301 27.1102 48.4111C28.0291 47.4922 29.2754 46.976 30.575 46.976H46.5C47.6466 46.976 48.7025 47.368 49.538 48.0295ZM51.4 51.876V50.651C51.4 49.6763 51.7872 48.7415 52.4764 48.0523C53.1656 47.3631 54.1003 46.976 55.075 46.976H59.975C60.9497 46.976 61.8844 47.3631 62.5736 48.0523C63.2628 48.7415 63.65 49.6763 63.65 50.651V51.876H64.875C65.8497 51.876 66.7844 52.2631 67.4736 52.9523C68.1628 53.6415 68.55 54.5763 68.55 55.551V59.226H63.65V58.001C63.65 57.6761 63.5209 57.3645 63.2912 57.1347C63.0615 56.905 62.7499 56.776 62.425 56.776C62.1001 56.776 61.7885 56.905 61.5588 57.1347C61.329 57.3645 61.2 57.6761 61.2 58.001V59.226H53.85V58.001C53.85 57.6761 53.7209 57.3645 53.4912 57.1347C53.2615 56.905 52.9499 56.776 52.625 56.776C52.3001 56.776 51.9885 56.905 51.7588 57.1347C51.529 57.3645 51.4 57.6761 51.4 58.001V59.226H46.5V55.551C46.5 54.5763 46.8872 53.6415 47.5764 52.9523C48.2656 52.2631 49.2003 51.876 50.175 51.876H51.4ZM53.85 50.651V51.876H61.2V50.651C61.2 50.3261 61.0709 50.0145 60.8412 49.7847C60.6115 49.555 60.2999 49.426 59.975 49.426H55.075C54.7501 49.426 54.4385 49.555 54.2088 49.7847C53.979 50.0145 53.85 50.3261 53.85 50.651ZM63.65 61.676H68.55V65.351C68.55 66.3256 68.1628 67.2604 67.4736 67.9496C66.7844 68.6388 65.8497 69.026 64.875 69.026H50.175C49.2003 69.026 48.2656 68.6388 47.5764 67.9496C46.8872 67.2604 46.5 66.3256 46.5 65.351V61.676H51.4V62.901C51.4 63.2258 51.529 63.5374 51.7588 63.7672C51.9885 63.9969 52.3001 64.126 52.625 64.126C52.9499 64.126 53.2615 63.9969 53.4912 63.7672C53.7209 63.5374 53.85 63.2258 53.85 62.901V61.676H61.2V62.901C61.2 63.2258 61.329 63.5374 61.5588 63.7672C61.7885 63.9969 62.1001 64.126 62.425 64.126C62.7499 64.126 63.0615 63.9969 63.2912 63.7672C63.5209 63.5374 63.65 63.2258 63.65 62.901V61.676Z" fill="white"/>
<path d="M46.9512 76.358V114.831" stroke="#937CCD" stroke-width="3.5161"/>
<circle cx="46.4894" cy="117.612" r="6.4894" fill="#937CCD"/>
</svg>
