<svg width="94" height="125" viewBox="0 0 94 125" fill="none" xmlns="http://www.w3.org/2000/svg">
<circle cx="46.9119" cy="46.6925" r="46.3381" fill="#0099BB"/>
<path d="M38.1369 43.9923C40.4642 43.9923 42.6961 43.0678 44.3418 41.4222C45.9874 39.7766 46.9119 37.5446 46.9119 35.2173C46.9119 32.89 45.9874 30.6581 44.3418 29.0125C42.6961 27.3668 40.4642 26.4423 38.1369 26.4423C35.8096 26.4423 33.5777 27.3668 31.9321 29.0125C30.2864 30.6581 29.3619 32.89 29.3619 35.2173C29.3619 37.5446 30.2864 39.7766 31.9321 41.4222C33.5777 43.0678 35.8096 43.9923 38.1369 43.9923ZM46.9119 46.6923C48.3183 46.6918 49.6694 47.2399 50.6778 48.2201C51.6863 49.2003 52.2725 50.5353 52.3119 51.9411L47.6517 56.6013C46.5458 57.7076 45.761 59.0934 45.381 60.6108L45.0948 61.7529C43.2723 62.4549 40.9908 62.8923 38.1369 62.8923C23.9619 62.8923 23.9619 52.0923 23.9619 52.0923C23.9619 50.6602 24.5308 49.2866 25.5435 48.2739C26.5562 47.2612 27.9297 46.6923 29.3619 46.6923H46.9119ZM65.8119 37.2423C65.8119 39.0325 65.1008 40.7494 63.8349 42.0153C62.569 43.2812 60.8521 43.9923 59.0619 43.9923C57.2717 43.9923 55.5548 43.2812 54.2889 42.0153C53.0231 40.7494 52.3119 39.0325 52.3119 37.2423C52.3119 35.4521 53.0231 33.7352 54.2889 32.4694C55.5548 31.2035 57.2717 30.4923 59.0619 30.4923C60.8521 30.4923 62.569 31.2035 63.8349 32.4694C65.1008 33.7352 65.8119 35.4521 65.8119 37.2423ZM62.5989 45.4719L49.5579 58.5129C48.7982 59.2729 48.2588 60.2247 47.9973 61.2669L46.9848 65.3115C46.885 65.7138 46.8909 66.135 47.0019 66.5343C47.113 66.9337 47.3254 67.2975 47.6186 67.5904C47.9119 67.8833 48.2759 68.0955 48.6753 68.2062C49.0747 68.3168 49.4959 68.3223 49.8981 68.2221L53.9427 67.2123C54.985 66.9508 55.9368 66.4114 56.6967 65.6517L69.7377 52.6107C70.6723 51.6612 71.1937 50.3808 71.1883 49.0485C71.1829 47.7162 70.6511 46.44 69.7088 45.4981C68.7666 44.5562 67.4902 44.0249 66.1579 44.02C64.8256 44.0151 63.5454 44.537 62.5962 45.4719" fill="white"/>
<path d="M45.9864 76.3578V114.831" stroke="#0099BB" stroke-width="3.5161"/>
<circle cx="45.5227" cy="117.612" r="6.4894" fill="#0099BB"/>
</svg>
