<svg width="93" height="125" viewBox="0 0 93 125" fill="none" xmlns="http://www.w3.org/2000/svg">
<circle cx="46.64" cy="46.6925" r="46.3381" fill="#FCB505"/>
<path d="M38.5501 43.326C40.7912 43.326 42.9405 42.4186 44.5251 40.8034C46.1098 39.1883 47.0001 36.9976 47.0001 34.7135C47.0001 32.4293 46.1098 30.2387 44.5251 28.6235C42.9405 27.0083 40.7912 26.101 38.5501 26.101C36.309 26.101 34.1597 27.0083 32.575 28.6235C30.9904 30.2387 30.1001 32.4293 30.1001 34.7135C30.1001 36.9976 30.9904 39.1883 32.575 40.8034C34.1597 42.4186 36.309 43.326 38.5501 43.326ZM65.2001 36.701C65.2001 38.458 64.5153 40.1431 63.2963 41.3855C62.0773 42.628 60.424 43.326 58.7001 43.326C56.9762 43.326 55.3229 42.628 54.1039 41.3855C52.8849 40.1431 52.2001 38.458 52.2001 36.701C52.2001 34.9439 52.8849 33.2588 54.1039 32.0164C55.3229 30.7739 56.9762 30.076 58.7001 30.076C60.424 30.076 62.0773 30.7739 63.2963 32.0164C64.5153 33.2588 65.2001 34.9439 65.2001 36.701ZM44.4001 57.901C44.4001 53.3854 46.4151 49.3468 49.5819 46.6729C48.7955 46.2154 47.9055 45.9752 47.0001 45.976H30.1001C28.721 45.976 27.3983 46.5343 26.4231 47.5283C25.4479 48.5222 24.9001 49.8703 24.9001 51.276C24.9001 51.276 24.9001 61.8759 38.5501 61.8759C41.0279 61.8759 43.0559 61.5261 44.7147 60.9564C44.5045 59.9521 44.399 58.9279 44.4001 57.901ZM52.3691 49.7973C52.5563 50.4773 52.6083 51.1887 52.522 51.8895C52.4356 52.5904 52.2127 53.2665 51.8664 53.8783C51.52 54.4901 51.0571 55.0251 50.5049 55.452C49.9528 55.8789 49.3225 56.1889 48.6511 56.364L47.4499 56.6767C47.3631 57.5724 47.3718 58.4752 47.4759 59.369L48.3859 59.589C49.0752 59.7551 49.724 60.0631 50.2924 60.4939C50.8608 60.9248 51.3368 61.4694 51.6913 62.0945C52.0457 62.7196 52.2712 63.4118 52.3538 64.1289C52.4363 64.8459 52.3743 65.5726 52.1715 66.2644L51.8413 67.3826C52.5138 67.925 53.2375 68.3826 54.0123 68.7554L54.8573 67.8438C55.3437 67.3187 55.9303 66.9006 56.5811 66.615C57.2318 66.3293 57.9329 66.1823 58.6414 66.1828C59.3499 66.1833 60.0508 66.3313 60.7012 66.6179C61.3515 66.9044 61.9375 67.3234 62.4233 67.849L63.2995 68.7977C64.0621 68.4391 64.7746 67.9992 65.4367 67.4781L65.0311 66.0047C64.8434 65.3244 64.7912 64.6128 64.8773 63.9116C64.9634 63.2105 65.1863 62.534 65.5327 61.9219C65.8791 61.3098 66.3421 60.7745 66.8945 60.3475C67.4468 59.9205 68.0774 59.6103 68.7491 59.4353L69.9451 59.1253C70.0321 58.2286 70.0234 57.3249 69.9191 56.4302L69.0143 56.2129C68.3247 56.0468 67.6756 55.7388 67.107 55.3078C66.5384 54.8767 66.0622 54.3318 65.7077 53.7064C65.3532 53.0811 65.1279 52.3885 65.0455 51.6711C64.9631 50.9538 65.0254 50.2268 65.2287 49.5349L65.5563 48.4193C64.8866 47.8777 64.1582 47.4162 63.3853 47.0439L62.5403 47.9555C62.054 48.4807 61.4675 48.899 60.8169 49.1849C60.1663 49.4707 59.4652 49.6181 58.7567 49.6178C58.0482 49.6176 57.3472 49.4697 56.6968 49.1834C56.0464 48.8971 55.4602 48.4784 54.9743 47.9529L54.0981 47.0042C53.3406 47.3606 52.6246 47.8024 51.9635 48.3212L52.3691 49.7973ZM58.6975 60.5509C58.0079 60.5509 57.3466 60.2718 56.859 59.7748C56.3714 59.2778 56.0975 58.6038 56.0975 57.901C56.0975 57.1981 56.3714 56.5241 56.859 56.0271C57.3466 55.5301 58.0079 55.2509 58.6975 55.2509C59.387 55.2509 60.0484 55.5301 60.536 56.0271C61.0236 56.5241 61.2975 57.1981 61.2975 57.901C61.2975 58.6038 61.0236 59.2778 60.536 59.7748C60.0484 60.2718 59.387 60.5509 58.6975 60.5509Z" fill="white"/>
<path d="M47.1055 76.3578V114.831" stroke="#FCB505" stroke-width="3.5161"/>
<circle cx="46.6399" cy="117.612" r="6.4894" fill="#FCB505"/>
</svg>
