<svg width="93" height="125" viewBox="0 0 93 125" fill="none" xmlns="http://www.w3.org/2000/svg">
<circle cx="46.3381" cy="46.6925" r="46.3381" fill="#F58634"/>
<path d="M46.9531 76.3578V114.831" stroke="#F58634" stroke-width="3.5161"/>
<circle cx="46.4894" cy="117.612" r="6.4894" fill="#F58634"/>
<path d="M52.1965 41.9761C54.37 41.9761 56.134 43.7401 56.134 45.9136V53.2261H56.125V55.4761H35.875V48.7261H35.8795V45.9136C35.8795 43.7401 37.6412 41.9761 39.817 41.9761H52.1965ZM68.5 45.9136C68.5 44.8693 68.0852 43.8678 67.3467 43.1293C66.6083 42.3909 65.6068 41.9761 64.5625 41.9761H56.9688C57.853 43.0448 58.384 44.4173 58.384 45.9136V48.7261H58.375V55.4761H66.8125C67.2601 55.4761 67.6893 55.2983 68.0057 54.9818C68.3222 54.6653 68.5 54.2361 68.5 53.7886V45.9136ZM33.625 53.2261H33.6295V45.9136L33.6498 45.4186C33.7439 44.1536 34.2317 42.9498 35.0448 41.9761H27.4375L27.1135 41.9896C26.1287 42.0709 25.2104 42.5195 24.541 43.2464C23.8716 43.9734 23.5 44.9254 23.5 45.9136V53.7886C23.5 54.7201 24.256 55.4761 25.1875 55.4761H33.625V53.2261ZM46 26.2261C47.7902 26.2261 49.5071 26.9372 50.773 28.2031C52.0388 29.469 52.75 31.1859 52.75 32.9761C52.75 34.7663 52.0388 36.4832 50.773 37.749C49.5071 39.0149 47.7902 39.7261 46 39.7261C44.2098 39.7261 42.4929 39.0149 41.227 37.749C39.9612 36.4832 39.25 34.7663 39.25 32.9761C39.25 31.1859 39.9612 29.469 41.227 28.2031C42.4929 26.9372 44.2098 26.2261 46 26.2261ZM60.625 28.4761C62.1168 28.4761 63.5476 29.0687 64.6025 30.1236C65.6574 31.1785 66.25 32.6092 66.25 34.1011C66.25 35.5929 65.6574 37.0237 64.6025 38.0786C63.5476 39.1334 62.1168 39.7261 60.625 39.7261C59.1332 39.7261 57.7024 39.1334 56.6475 38.0786C55.5926 37.0237 55 35.5929 55 34.1011C55 32.6092 55.5926 31.1785 56.6475 30.1236C57.7024 29.0687 59.1332 28.4761 60.625 28.4761ZM31.375 28.4761C32.8668 28.4761 34.2976 29.0687 35.3525 30.1236C36.4074 31.1785 37 32.6092 37 34.1011C37 35.5929 36.4074 37.0237 35.3525 38.0786C34.2976 39.1334 32.8668 39.7261 31.375 39.7261C29.8832 39.7261 28.4524 39.1334 27.3975 38.0786C26.3426 37.0237 25.75 35.5929 25.75 34.1011C25.75 32.6092 26.3426 31.1785 27.3975 30.1236C28.4524 29.0687 29.8832 28.4761 31.375 28.4761ZM23.5 59.4136C23.5 58.966 23.6778 58.5368 23.9943 58.2203C24.3107 57.9039 24.7399 57.7261 25.1875 57.7261H66.8125C67.2601 57.7261 67.6893 57.9039 68.0057 58.2203C68.3222 58.5368 68.5 58.966 68.5 59.4136V60.5386C68.5 62.7763 67.6111 64.9225 66.0287 66.5048C64.4464 68.0871 62.3003 68.9761 60.0625 68.9761H31.9375C29.6997 68.9761 27.5536 68.0871 25.9713 66.5048C24.3889 64.9225 23.5 62.7763 23.5 60.5386V59.4136Z" fill="white"/>
</svg>
