<svg width="108" height="164" viewBox="0 0 108 164" fill="none" xmlns="http://www.w3.org/2000/svg">
<g clip-path="url(#clip0_678_14191)">
<path d="M65.9277 10.0869C66.4631 10.5843 66.9575 11.1227 67.464 11.6506C67.0685 11.8103 66.6731 11.97 66.2776 12.1297C66.1604 11.4498 66.0388 10.7699 65.9277 10.0869Z" fill="url(#paint0_linear_678_14191)"/>
<path d="M66.2793 12.1297C66.6748 11.97 67.0702 11.8103 67.4657 11.6506C67.9738 12.1525 68.4803 12.6561 68.9822 13.1626C68.2202 13.5657 67.4444 13.9459 66.6549 14.2927C66.5241 13.5718 66.407 12.8507 66.2793 12.1297Z" fill="url(#paint1_linear_678_14191)"/>
<path d="M66.6543 14.2927C67.4438 13.9459 68.2196 13.5657 68.9816 13.1626C69.4729 13.6539 69.9642 14.1435 70.457 14.6333C69.2645 15.0927 68.1663 15.7483 67.0118 16.2867L66.9935 16.2959C66.887 15.6266 66.7699 14.959 66.6543 14.2927Z" fill="url(#paint2_linear_678_14191)"/>
<path d="M67.0117 16.2867C68.1662 15.7483 69.2644 15.0927 70.4569 14.6333C70.8768 15.0592 71.3011 15.4792 71.7224 15.9036C70.25 16.6428 68.8263 17.4764 67.3371 18.1852L67.3219 18.1928C67.223 17.557 67.1029 16.9241 67.0117 16.2867Z" fill="url(#paint3_linear_678_14191)"/>
<path d="M67.3379 18.1852C68.8271 17.4764 70.2508 16.6428 71.7232 15.9036C72.4564 16.6383 73.1944 17.3698 73.9275 18.1076C71.903 19.1206 69.8647 20.1032 67.834 21.0996C67.6713 20.1276 67.4855 19.1587 67.3379 18.1852Z" fill="url(#paint4_linear_678_14191)"/>
<path d="M80.5352 15.7911C82.2206 14.9195 83.8801 13.9993 85.5685 13.1338C85.0072 14.1286 84.5053 15.1553 83.9288 16.141C83.9075 15.7135 83.8603 15.2892 83.8147 14.8648C83.0587 15.458 82.5233 16.3174 81.6912 16.8042C81.1284 16.8452 80.8866 16.1471 80.5443 15.8018L80.5352 15.7911Z" fill="url(#paint5_linear_678_14191)"/>
<path d="M81.6893 16.8041C82.5214 16.3173 83.0568 15.4579 83.8128 14.8647C83.8584 15.2891 83.9056 15.7134 83.9269 16.1409C83.253 17.481 82.5195 18.795 81.8092 20.1168C81.6844 19.0734 81.7529 18.0208 81.689 16.9727C81.0334 17.6435 80.317 18.2489 79.5443 18.7783C79.1199 18.182 78.6833 17.5964 78.2285 17.0245C78.9982 16.6153 79.7636 16.1972 80.5424 15.8017C80.8847 16.147 81.1265 16.8451 81.6893 16.8041Z" fill="url(#paint6_linear_678_14191)"/>
<path d="M81.6899 16.9727C81.7538 18.0208 81.6853 19.0734 81.8101 20.1168C81.0556 21.5086 80.3516 22.9294 79.5469 24.2923L79.4982 24.2771C79.3629 22.5582 79.5059 20.8318 79.4283 19.1099C78.8214 19.6803 78.2114 20.2477 77.5619 20.7694C77.0037 19.9404 76.4089 19.1343 75.872 18.2916L75.8613 18.2733C76.6553 17.8672 77.4384 17.4382 78.2294 17.0245C78.6842 17.5964 79.1208 18.182 79.5452 18.7783C80.3179 18.2489 81.0343 17.6435 81.6899 16.9727Z" fill="url(#paint7_linear_678_14191)"/>
<path d="M73.6289 19.4597C74.3833 19.0825 75.1135 18.6611 75.8726 18.2915C76.4095 19.1342 77.0043 19.9403 77.5625 20.7693C78.212 20.2476 78.822 19.6802 79.4289 19.1098C79.5065 20.8317 79.3635 22.5581 79.4988 24.277L79.4927 24.3972C78.8432 25.7327 78.1039 27.0257 77.4057 28.3368C77.1639 25.9807 77.3799 23.6047 77.284 21.2409C76.8399 21.6653 76.4277 22.1414 75.8846 22.4441C75.6002 22.3057 75.4298 22.0243 75.2473 21.7794C74.724 21.0021 74.1871 20.2325 73.638 19.4734L73.6289 19.4597Z" fill="url(#paint8_linear_678_14191)"/>
<path d="M70.1758 21.3017C71.3318 20.6948 72.4786 20.0712 73.6377 19.4734C74.1868 20.2325 74.7237 21.0021 75.247 21.7794C75.4295 22.0243 75.5999 22.3057 75.8843 22.4441C76.4274 22.1414 76.8396 21.6653 77.2837 21.2409C77.3796 23.6047 77.1636 25.9807 77.4054 28.3368C76.3361 30.331 75.2927 32.3388 74.19 34.3131C74.1215 33.4583 74.0789 32.6004 74.1048 31.744C74.1078 29.2601 74.1033 26.7761 74.1002 24.2922C73.7215 24.5888 73.3442 24.8854 72.967 25.1835C72.0072 23.9119 71.1736 22.5475 70.1758 21.3017Z" fill="url(#paint9_linear_678_14191)"/>
<path d="M65.8281 23.6124C67.2777 22.8428 68.7307 22.0806 70.1757 21.3018C71.1735 22.5476 72.0071 23.912 72.9669 25.1836C73.3441 24.8855 73.7214 24.5889 74.1001 24.2923C74.1032 26.7762 74.1077 29.2602 74.1047 31.7441C74.0788 32.6005 74.1214 33.4584 74.1899 34.3132C73.0764 36.4686 71.911 38.6028 70.7564 40.7384C70.4872 39.2614 70.1039 37.7981 69.9335 36.3105C69.9822 35.8025 70.0339 35.2944 70.0339 34.7833C70.0218 32.6158 70.0278 30.4482 70.0157 28.2791C69.7799 28.4069 69.5457 28.5332 69.3129 28.6609C68.2056 26.9406 66.9887 25.2963 65.8281 23.6124Z" fill="url(#paint10_linear_678_14191)"/>
<path d="M58.0195 27.7756C60.6145 26.3747 63.2293 25.0072 65.8288 23.6123C66.9894 25.2962 68.2063 26.9405 69.3136 28.6608C69.5464 28.5331 69.7806 28.4068 70.0164 28.279C70.0285 30.4481 70.0225 32.6157 70.0346 34.7832C70.0346 35.2943 69.9829 35.8024 69.9342 36.3104L69.9206 36.4413C69.4353 34.1627 69.0231 31.8674 68.5516 29.5857C65.0409 28.9788 61.5287 28.381 58.0195 27.7756Z" fill="url(#paint11_linear_678_14191)"/>
<path d="M77.2676 30.5699C78.3644 28.6107 79.5021 26.6698 80.6612 24.7456C80.9152 24.9601 81.1419 25.2065 81.367 25.4514C80.9426 27.0851 80.5867 28.7339 80.2231 30.3797C80.1699 30.649 80.0223 30.8817 79.8292 31.0718C78.9682 30.9471 78.1225 30.7326 77.2676 30.5699Z" fill="url(#paint12_linear_678_14191)"/>
<path d="M81.3661 25.4514C81.6916 25.7982 82.0184 26.1421 82.3439 26.4889C81.9651 28.1164 81.5955 29.7455 81.2259 31.3746C80.7498 31.2758 80.2737 31.1784 79.793 31.1084L79.8283 31.0718C80.0214 30.8817 80.169 30.649 80.2222 30.3797C80.5858 28.7339 80.9417 27.0851 81.3661 25.4514Z" fill="url(#paint13_linear_678_14191)"/>
<path d="M82.3446 26.4888C82.9835 27.155 83.6196 27.8243 84.2493 28.5012C83.9648 29.6055 83.6819 30.7129 83.507 31.8431C82.748 31.6773 81.9841 31.5418 81.2266 31.3745C81.5962 29.7454 81.9658 28.1163 82.3446 26.4888Z" fill="url(#paint14_linear_678_14191)"/>
<path d="M84.2482 28.5012C84.6513 28.915 85.045 29.3409 85.4466 29.7608C85.2488 30.5441 85.0648 31.3321 84.8959 32.1245C84.432 32.0302 83.9683 31.9389 83.5059 31.8431C83.6808 30.7129 83.9637 29.6055 84.2482 28.5012Z" fill="url(#paint15_linear_678_14191)"/>
<path d="M85.4472 29.7607C86.407 30.7752 87.3745 31.7851 88.3221 32.8119C87.1767 32.5959 86.0373 32.3587 84.8965 32.1244C85.0654 31.332 85.2494 30.544 85.4472 29.7607Z" fill="url(#paint16_linear_678_14191)"/>
<path d="M40.959 2.11482C45.1831 0.704764 49.6399 -0.0588233 54.0982 0.00354142C50.0065 0.885774 46.0425 2.41143 42.4999 4.65352C41.9918 3.81235 41.4518 2.99096 40.9697 2.13459L40.959 2.11482Z" fill="url(#paint17_linear_678_14191)"/>
<path d="M32.3164 6.30686C35.0087 4.55913 37.9264 3.15213 40.9701 2.13452C41.4522 2.99089 41.9922 3.81228 42.5003 4.65345C39.7623 6.37685 37.2599 8.47746 35.0969 10.8823C34.2284 9.32319 33.2883 7.8021 32.3164 6.30686Z" fill="url(#paint18_linear_678_14191)"/>
<path d="M71.918 67.1703C73.6946 66.5741 75.4257 65.8424 77.0867 64.9739C78.229 66.6912 79.2466 68.4861 80.3631 70.2201C78.9439 71.4659 77.4365 72.6113 75.8576 73.6471C74.8963 72.1701 74.0171 70.6399 73.0664 69.1553C72.6512 68.5119 72.2709 67.8487 71.918 67.1703Z" fill="url(#paint19_linear_678_14191)"/>
<path d="M25.666 11.6111C27.6967 9.62147 29.9221 7.84027 32.3041 6.29028L32.3149 6.30689C33.2868 7.80213 34.2269 9.32322 35.0954 10.8824C33.0359 13.1625 31.291 15.7211 29.8992 18.4591C28.4405 16.2063 27.1004 13.879 25.666 11.6111Z" fill="url(#paint20_linear_678_14191)"/>
<path d="M59.9277 68.9306C63.986 69.031 68.0659 68.4542 71.9188 67.1704C72.2717 67.8488 72.652 68.512 73.0672 69.1554C74.0179 70.64 74.8971 72.1702 75.8584 73.6472C72.7067 75.7053 69.2657 77.327 65.6638 78.4253C65.2561 77.578 64.742 76.7901 64.2431 75.9961C62.8087 73.6384 61.3606 71.2883 59.9277 68.9306Z" fill="url(#paint21_linear_678_14191)"/>
<path d="M20.8926 17.3348C22.2981 15.2813 23.921 13.3832 25.6657 11.6111C27.1001 13.879 28.4402 16.2063 29.8989 18.4591C28.5391 21.1164 27.5686 23.9607 26.9161 26.8705L26.8476 26.8721C25.3159 24.4763 23.8815 22.0213 22.3726 19.6119C21.9087 18.8331 21.4432 18.0558 20.8926 17.3348Z" fill="url(#paint22_linear_678_14191)"/>
<path d="M15.5449 28.4418C16.7314 24.49 18.5566 20.7344 20.893 17.3347C21.4436 18.0557 21.9091 18.833 22.373 19.6118C23.8819 22.0212 25.3163 24.4762 26.848 26.872L26.8725 26.9831C26.3356 29.902 26.0389 32.8773 26.2063 35.8465C26.4968 42.1027 28.5305 48.2646 32.026 53.4607C35.637 58.8788 40.8012 63.2413 46.741 65.9063C49.5642 70.6947 52.5501 75.3842 55.4128 80.1482C52.5774 80.2182 49.7345 80.0631 46.9403 79.5657C36.8463 63.1044 26.7645 46.6356 16.6721 30.1713C16.3268 29.575 15.9602 28.9909 15.5449 28.4418Z" fill="url(#paint23_linear_678_14191)"/>
<path d="M13.8474 40.5664C13.7775 36.4701 14.3599 32.3633 15.5463 28.4419C15.9616 28.991 16.3282 29.5751 16.6735 30.1714C26.7659 46.6357 36.8477 63.1045 46.9417 79.5658C40.8193 78.4919 34.9571 75.9683 29.9801 72.2432C25.8884 69.2025 22.3914 65.3694 19.7265 61.0251C15.9618 54.9073 13.8915 47.7521 13.8474 40.5664Z" fill="url(#paint24_linear_678_14191)"/>
<path d="M88.6758 55.1645C90.6715 52.5543 92.2306 49.6399 93.4733 46.6038C93.0094 49.6186 92.1363 52.5619 90.997 55.3881L90.9818 55.3835C90.241 55.1173 89.4485 55.1386 88.6758 55.1645Z" fill="url(#paint25_linear_678_14191)"/>
<path d="M84.9238 59.3579C86.2821 58.0604 87.5306 56.652 88.676 55.1644C89.4487 55.1385 90.2412 55.1172 90.982 55.3834C89.9263 57.9906 88.5592 60.4668 86.9742 62.7864C86.3931 61.5848 85.628 60.4881 84.9238 59.3579Z" fill="url(#paint26_linear_678_14191)"/>
<path d="M77.0879 64.9738C79.9384 63.4679 82.5836 61.5756 84.9246 59.3579C85.6288 60.4881 86.3939 61.5848 86.975 62.7864C85.0828 65.5198 82.8665 68.0312 80.3643 70.22C79.2478 68.486 78.2302 66.6911 77.0879 64.9738Z" fill="url(#paint27_linear_678_14191)"/>
<path d="M46.7422 65.9065C50.8857 67.7637 55.3925 68.7815 59.9284 68.9306C61.3613 71.2883 62.8094 73.6384 64.2438 75.9961C64.7427 76.7901 65.2568 77.578 65.6645 78.4253C62.3409 79.4429 58.8851 80.0055 55.414 80.1484C52.5513 75.3844 49.5654 70.6949 46.7422 65.9065Z" fill="url(#paint28_linear_678_14191)"/>
<path d="M38.8313 86.3635C40.8057 86.0334 42.8181 86.4152 44.6982 87.0297C44.8762 88.5843 45.0754 90.1373 45.2747 91.6903C44.9324 91.7512 44.5902 91.8135 44.2495 91.8789C43.8646 90.5815 43.384 89.2186 42.339 88.2998C41.0597 87.1985 39.0397 87.1301 37.6434 88.0488C35.9626 89.1896 35.7329 91.8242 37.0319 93.3346C37.8685 94.3325 39.0519 94.9318 40.1927 95.5128C41.9192 96.3738 43.7612 97.2043 45.0207 98.7223C46.125 100.029 46.4474 101.876 46.055 103.518C45.6595 105.26 44.394 106.72 42.8151 107.517C40.0573 108.882 36.6805 108.689 33.9471 107.358C33.5942 107.257 33.5729 106.868 33.5014 106.573C33.1987 105.058 32.9584 103.532 32.75 102.003C33.0938 101.9 33.4391 101.8 33.7844 101.699C34.2757 103.384 35.0834 105.065 36.4858 106.18C37.8715 107.297 39.9341 107.523 41.5024 106.664C43.5239 105.493 43.7612 102.309 42.1047 100.726C40.2688 98.914 37.6418 98.2858 35.6675 96.6658C34.6864 95.8885 33.8726 94.8436 33.5562 93.6176C33.1485 91.9961 33.4512 90.1844 34.4688 88.8413C35.4925 87.4465 37.1444 86.6175 38.8313 86.3635Z" fill="#329244"/>
<path d="M92.3572 87.2305C94.6799 86.3802 97.1957 86.0988 99.6553 86.3102C101.412 86.4456 103.138 86.8228 104.849 87.2274C104.995 88.9934 105.17 90.7564 105.365 92.5163C105.029 92.5908 104.694 92.6668 104.36 92.7444C104.06 91.3055 103.47 89.8482 102.311 88.89C101.041 87.8176 99.3207 87.4921 97.7007 87.4875C95.3887 87.448 93.0234 88.2709 91.3897 89.9365C89.6162 91.6994 88.8024 94.2351 88.7582 96.6962C88.6761 99.6197 89.6481 102.673 91.77 104.746C93.3474 106.354 95.6108 107.178 97.8422 107.195C99.0287 107.206 100.303 107.075 101.313 106.398C101.994 105.94 102.073 105.05 102.072 104.3C102.048 103.089 102.128 101.873 102.002 100.666C101.972 100.149 101.687 99.6273 101.181 99.4448C100.317 99.1026 99.3679 99.1117 98.4567 99.0022C98.4567 98.6751 98.4567 98.3496 98.4582 98.0256C101.412 98.0256 104.366 98.0256 107.318 98.0256C107.317 98.3496 107.315 98.6751 107.317 99.0007C106.758 99.1163 106.153 99.1497 105.666 99.4722C105.087 99.9285 105.259 100.761 105.225 101.406C105.286 103.33 105.075 105.274 105.423 107.18C103.675 107.587 101.932 108.031 100.151 108.267C97.4482 108.641 94.6357 108.447 92.0666 107.493C90.1683 106.79 88.4312 105.605 87.1748 104.008C85.7237 102.163 84.9768 99.7992 85.03 97.4583C84.9814 95.1128 85.7054 92.7353 87.1641 90.8856C88.4829 89.1851 90.3508 87.9697 92.3572 87.2305Z" fill="#329244"/>
<path d="M21.0403 86.7271C24.081 86.7392 27.1216 86.7239 30.1623 86.7346C30.1608 87.0707 30.1608 87.4085 30.1608 87.7477C29.3333 87.8496 28.3963 87.7781 27.6981 88.309C27.1505 88.8672 27.2174 89.7282 27.1642 90.4507C27.1459 94.6093 27.1627 98.7695 27.1566 102.928C27.1612 103.833 27.1248 104.75 27.2997 105.643C27.3773 106.046 27.6297 106.421 28.0115 106.594C28.6853 106.888 29.4352 106.886 30.1547 106.962C30.1577 107.278 30.1592 107.595 30.1623 107.914C27.1186 107.911 24.0749 107.913 21.0327 107.913C21.0342 107.595 21.0357 107.278 21.0403 106.964C21.8221 106.868 22.6755 106.907 23.3706 106.483C24.0125 106.031 23.9821 105.164 24.0323 104.464C24.0475 99.848 24.0339 95.233 24.0385 90.6165C23.9974 89.8392 24.0794 88.9189 23.5029 88.3105C22.8017 87.7781 21.8602 87.8496 21.0312 87.7477C21.0328 87.4055 21.0357 87.0663 21.0403 86.7271Z" fill="#329244"/>
<path d="M0.157536 86.7316C2.65517 86.7301 5.15128 86.7316 7.64739 86.7316C9.42403 86.7347 11.2584 86.6845 12.956 87.2899C14.2291 87.7584 15.3882 88.6802 15.8977 89.967C16.6005 91.7117 16.4408 93.8473 15.2969 95.373C14.509 96.4605 13.3225 97.1602 12.1194 97.7048C13.5127 100.067 14.9729 102.4 16.6674 104.56C17.5983 105.684 18.5795 106.939 20.0763 107.294C20.02 107.604 19.9651 107.917 19.9104 108.231C18.3088 108.138 16.5974 108.133 15.1889 107.259C14.22 106.676 13.5021 105.777 12.8678 104.86C11.8061 103.315 10.8949 101.675 9.89252 100.093C9.57918 99.5985 9.17153 99.1255 8.5996 98.9353C7.79494 98.6631 6.92943 98.7209 6.09283 98.7072C6.08979 100.674 6.08675 102.641 6.09132 104.608C6.12934 105.248 6.16281 106.019 6.72865 106.44C7.41771 106.883 8.27256 106.859 9.05744 106.968C9.05592 107.282 9.0544 107.598 9.0544 107.914C6.03807 107.913 3.02175 107.913 0.00694677 107.913C0.00542567 107.598 0.00390625 107.282 0.00390625 106.97C0.787269 106.862 1.63604 106.882 2.33117 106.457C2.97155 106.013 2.95787 105.147 3.00502 104.452C3.01263 99.6868 3.01263 94.9212 3.00502 90.1556C2.95482 89.4939 2.98829 88.6802 2.41332 88.2254C1.7486 87.7934 0.913518 87.8435 0.157536 87.7462C0.157536 87.407 0.157536 87.0693 0.157536 86.7316ZM6.78341 88.0611C6.17193 88.1797 6.08066 88.887 6.08827 89.4011C6.09131 92.1361 6.08979 94.871 6.08979 97.6074C7.2656 97.6014 8.46118 97.6561 9.61416 97.3854C11.2356 97.0188 12.5453 95.5996 12.8191 93.9644C13.0594 92.6183 12.9681 91.1474 12.273 89.9427C11.196 88.0854 8.74106 87.6078 6.78341 88.0611Z" fill="#329244"/>
<path d="M48.2242 86.7316C51.2649 86.7285 54.3056 86.7346 57.3462 86.7285C57.3477 87.0677 57.3493 87.4084 57.3493 87.7492C56.5963 87.8283 55.7932 87.8054 55.1057 88.1644C54.4379 88.5766 54.4227 89.4543 54.3862 90.154C54.3847 94.9759 54.3801 99.7977 54.3892 104.62C54.4272 105.274 54.4501 106.068 55.0387 106.486C55.7293 106.9 56.5705 106.869 57.3447 106.961C57.3477 107.277 57.3508 107.593 57.3538 107.913C54.3116 107.914 51.2695 107.911 48.2273 107.914C48.2242 107.598 48.2227 107.283 48.2227 106.97C48.9848 106.875 49.797 106.897 50.4967 106.539C51.1691 106.159 51.198 105.281 51.2284 104.598C51.2253 99.7323 51.233 94.8648 51.2253 89.9989C51.1858 89.3569 51.1463 88.566 50.5409 88.1842C49.8366 87.7963 49 87.8389 48.2242 87.7446C48.2227 87.4069 48.2227 87.0692 48.2242 86.7316Z" fill="#329244"/>
<path d="M59.2461 86.7361C60.9664 86.7239 62.6853 86.7345 64.4056 86.73C69.156 92.0994 73.8744 97.4993 78.6461 102.851C78.6309 99.4341 78.6887 96.0193 78.5913 92.6044C78.5426 91.5838 78.5092 90.5586 78.3692 89.544C78.3023 89.0207 78.03 88.5036 77.5585 88.2404C76.8147 87.8221 75.934 87.8252 75.1095 87.743C75.108 87.4053 75.108 87.0677 75.1095 86.7315C77.7593 86.733 80.4105 86.7269 83.0603 86.7345C83.0572 87.0692 83.0557 87.4053 83.0557 87.7415C82.2982 87.8282 81.4434 87.8328 80.8365 88.3606C80.2174 88.9386 80.2706 89.8543 80.19 90.627C80.0379 93.257 80.0577 95.8915 80.0531 98.5245C80.0531 101.768 80.0531 105.011 80.0531 108.254C79.688 108.254 79.326 108.255 78.9625 108.258C74.0889 102.619 69.232 96.9654 64.3569 91.3282C64.3934 95.75 64.1379 100.183 64.5334 104.597C64.5775 105.263 64.7494 106.005 65.3472 106.395C66.053 106.85 66.9291 106.857 67.7353 106.973C67.7322 107.285 67.7307 107.599 67.7292 107.914C65.0673 107.91 62.4069 107.914 59.7465 107.913C59.745 107.598 59.745 107.285 59.7465 106.971C60.5436 106.865 61.4501 106.837 62.0723 106.255C62.6609 105.689 62.6427 104.811 62.7415 104.061C63.0077 101.006 62.9241 97.9328 62.9408 94.8678C62.9317 93.3969 62.9773 91.923 62.8678 90.4536C62.8222 89.5987 62.2761 88.8412 61.5916 88.3636C60.9086 87.8921 60.0553 87.8312 59.2567 87.743C59.2522 87.4069 59.2491 87.0707 59.2461 86.7361Z" fill="#329244"/>
<path d="M65.7726 111.614C65.8578 111.627 66.0266 111.652 66.1118 111.664C66.3126 111.834 66.4997 112.091 66.8009 112.053C69.1905 112.067 71.5817 112.05 73.9713 112.061C74.3653 112.125 74.6862 111.901 74.963 111.655C75.0543 111.647 75.2353 111.632 75.3266 111.626C75.3281 112.674 75.4331 113.719 75.4894 114.767C75.3068 114.777 75.1273 114.788 74.9494 114.8C74.7486 114.113 74.6269 113.233 73.9135 112.884C73.083 112.63 72.1977 112.78 71.3444 112.744C71.3429 115.509 71.3459 118.276 71.3428 121.041C71.3596 121.45 71.3383 121.98 71.7429 122.22C72.1703 122.435 72.6647 122.425 73.1301 122.492C73.1317 122.661 73.1332 122.832 73.1377 123.003C71.425 123.016 69.7107 123.006 67.998 123.01C67.998 122.88 67.998 122.623 67.998 122.494C68.4862 122.421 69.0293 122.442 69.4491 122.144C69.7259 121.85 69.697 121.412 69.7122 121.04C69.7046 118.274 69.7107 115.509 69.7092 112.744C68.8315 112.777 67.9158 112.627 67.0701 112.92C66.4176 113.29 66.3369 114.131 66.1225 114.78C65.9323 114.786 65.7437 114.794 65.5566 114.805C65.6433 113.742 65.6905 112.677 65.7726 111.614Z" fill="#329244"/>
<path d="M17.6993 111.962C17.9062 111.913 18.113 111.865 18.3199 111.819C19.4546 114.905 20.6031 117.985 21.7819 121.057C21.9371 121.426 22.0892 121.822 22.3904 122.103C22.7052 122.391 23.1524 122.407 23.5479 122.5C23.5449 122.667 23.5418 122.839 23.5403 123.011C22.0846 123.008 20.6274 123.01 19.1717 123.01C19.1717 122.883 19.1717 122.631 19.1717 122.505C19.5566 122.377 20.3992 122.395 20.2274 121.785C19.9749 120.868 19.5687 120.001 19.266 119.1C18.0461 119.084 16.8277 119.097 15.6078 119.093C15.3051 119.99 14.9203 120.868 14.721 121.797C14.6739 122.439 15.5089 122.375 15.9364 122.494C15.9379 122.663 15.9424 122.833 15.9455 123.005C14.6708 123.01 13.3961 123.019 12.123 122.999C12.1291 122.829 12.1367 122.661 12.1443 122.494C12.5656 122.384 13.0493 122.346 13.3748 122.021C13.6532 121.723 13.8129 121.338 13.9802 120.973C15.2245 117.972 16.4398 114.957 17.6993 111.962ZM17.4955 114.181C16.9601 115.547 16.4338 116.919 15.9196 118.294C16.9418 118.294 17.9655 118.294 18.9877 118.294C18.4903 116.924 18.0157 115.544 17.4955 114.181Z" fill="#329244"/>
<path d="M54.6077 113.378C55.0655 112.598 55.9082 112.111 56.7768 111.925C57.8674 111.688 58.9975 111.886 60.0441 112.224C60.1232 113.031 60.2357 113.836 60.3315 114.642C60.1992 114.665 59.9345 114.712 59.8007 114.735C59.5801 114.082 59.3535 113.386 58.8272 112.91C58.0453 112.224 56.6794 112.28 56.0314 113.126C55.4519 113.891 55.5751 115.1 56.3235 115.715C57.4476 116.679 59.0249 116.965 60.0471 118.074C60.9674 118.974 61.048 120.511 60.3848 121.581C59.8357 122.505 58.8028 123.042 57.7655 123.197C56.5988 123.393 55.4063 123.148 54.3445 122.652C54.1331 121.759 53.9977 120.85 53.873 119.942C54.0464 119.878 54.2198 119.817 54.3947 119.756C54.6807 120.564 55.026 121.394 55.6877 121.971C56.3965 122.622 57.5191 122.794 58.3709 122.328C59.3793 121.753 59.5451 120.19 58.7527 119.37C57.6544 118.197 55.8884 117.949 54.8541 116.699C54.0601 115.797 53.9871 114.391 54.6077 113.378Z" fill="#329244"/>
<path d="M84.3734 111.986C84.5818 111.925 84.7916 111.866 85.0031 111.808C86.1834 114.94 87.3258 118.087 88.5427 121.207C88.7146 121.604 88.9092 122.044 89.3123 122.26C89.5983 122.395 89.9208 122.424 90.2311 122.492C90.2356 122.663 90.2432 122.835 90.2524 123.01C88.7906 123.008 87.3273 123.013 85.8671 123.007C85.8686 122.836 85.8716 122.667 85.8762 122.5C86.2063 122.416 86.5592 122.378 86.8634 122.209C87.0474 121.963 86.8892 121.669 86.8208 121.415C86.5455 120.637 86.2428 119.869 85.9583 119.094C84.8997 119.091 83.8425 119.093 82.7853 119.088C82.6043 119.122 82.3077 119.003 82.256 119.259C82.0309 119.779 81.8757 120.326 81.6841 120.86C81.5578 121.257 81.3722 121.66 81.4331 122.088C81.7434 122.403 82.2149 122.401 82.6226 122.486C82.6302 122.658 82.6378 122.833 82.6469 123.01C81.3753 123.01 80.1036 123.01 78.832 123.01C78.8351 122.835 78.8381 122.661 78.8442 122.491C79.2442 122.389 79.6975 122.355 80.0215 122.068C80.3455 121.756 80.5189 121.329 80.6984 120.924C81.9244 117.944 83.1535 114.968 84.3734 111.986ZM82.615 118.293C83.6402 118.294 84.6639 118.293 85.6891 118.294C85.1963 116.922 84.7004 115.552 84.2076 114.181C83.6448 115.539 83.1413 116.921 82.615 118.293Z" fill="#329244"/>
<path d="M0.421586 112.062C1.86663 112.056 3.31318 112.053 4.75974 112.061C5.8382 112.091 7.02921 112.16 7.89015 112.896C8.92601 113.755 9.07964 115.319 8.61267 116.518C8.10006 117.82 6.6961 118.556 5.35145 118.636C4.69282 118.697 4.057 118.493 3.42879 118.331C3.43792 119.329 3.40902 120.328 3.43944 121.326C3.46834 121.659 3.50028 122.092 3.84709 122.255C4.2517 122.432 4.70499 122.429 5.13698 122.491C5.14002 122.66 5.1461 122.829 5.15067 122.999C3.53831 123.022 1.92443 123.003 0.310547 123.01C0.310547 122.882 0.310547 122.626 0.310547 122.498C0.791212 122.389 1.48179 122.471 1.70995 121.925C1.87575 121.391 1.82556 120.824 1.83316 120.275C1.82556 118.147 1.84077 116.02 1.82708 113.892C1.79514 113.535 1.81339 113.107 1.53199 112.843C1.19583 112.648 0.794254 112.655 0.421586 112.599C0.421586 112.418 0.421586 112.24 0.421586 112.062ZM3.79841 112.779C3.44856 112.855 3.45161 113.285 3.43031 113.57C3.42118 114.952 3.43487 116.335 3.42727 117.718C4.41445 118.031 5.65414 118.019 6.39339 117.194C7.14633 116.292 7.22239 114.923 6.73869 113.878C6.21391 112.841 4.86318 112.452 3.79841 112.779Z" fill="#329244"/>
<path d="M28.3737 112.059C29.9085 112.059 31.4433 112.053 32.9781 112.062C32.9765 112.239 32.9781 112.418 32.9781 112.598C32.5719 112.666 32.1141 112.643 31.7673 112.9C31.4874 113.202 31.5102 113.646 31.4904 114.029C31.4935 115.088 31.4843 116.148 31.5011 117.207C32.5232 116.711 33.2458 115.807 34.0672 115.053C34.6999 114.329 35.5137 113.713 35.8894 112.802C35.5411 112.712 35.1897 112.64 34.8368 112.59C34.8368 112.458 34.8383 112.19 34.8399 112.058C36.259 112.058 37.6782 112.056 39.0974 112.059C39.0974 112.239 39.0989 112.421 39.102 112.604C38.2943 112.674 37.4622 112.856 36.8234 113.39C35.567 114.393 34.4672 115.573 33.302 116.677C34.6999 118.363 36.1374 120.016 37.6569 121.594C38.1117 122.092 38.7293 122.407 39.3971 122.505C39.4001 122.669 39.4031 122.838 39.4077 123.007C38.4616 123.011 37.5155 123.008 36.5709 123.01C35.1699 121.416 33.7721 119.817 32.397 118.2C32.1688 117.905 31.8494 117.71 31.5056 117.581C31.4783 118.731 31.4965 119.881 31.4904 121.031C31.5102 121.417 31.4859 121.867 31.7718 122.172C32.1551 122.438 32.6465 122.423 33.0906 122.496C33.0891 122.623 33.0891 122.88 33.0876 123.01C31.5269 123.005 29.9648 123.019 28.4041 123.002C28.4057 122.833 28.4102 122.666 28.4133 122.5C28.7859 122.426 29.1951 122.436 29.5313 122.238C29.907 121.963 29.8644 121.44 29.8948 121.029C29.8948 118.699 29.8948 116.369 29.8948 114.04C29.8674 113.653 29.8872 113.212 29.621 112.9C29.2605 112.64 28.7905 112.665 28.3691 112.601C28.3707 112.418 28.3722 112.237 28.3737 112.059Z" fill="#329244"/>
<path d="M43.9675 112.058C45.5388 112.059 47.1101 112.055 48.6829 112.061C48.6829 112.239 48.6829 112.42 48.6859 112.602C48.2965 112.66 47.8797 112.646 47.5238 112.834C47.1663 113.051 47.1816 113.52 47.1603 113.888C47.1603 116.318 47.1603 118.749 47.1603 121.18C47.177 121.546 47.1724 122.007 47.504 122.248C47.8645 122.43 48.2859 122.427 48.6783 122.494C48.6798 122.663 48.6829 122.835 48.6859 123.007C47.1131 123.013 45.5403 123.008 43.966 123.01C43.966 122.882 43.966 122.625 43.9644 122.497C44.5349 122.429 45.4338 122.43 45.481 121.662C45.5829 119.682 45.4962 117.693 45.5251 115.711C45.4931 114.873 45.6118 114.018 45.4293 113.196C45.2209 112.595 44.4694 112.688 43.9629 112.602C43.9644 112.465 43.966 112.193 43.9675 112.058Z" fill="#329244"/>
<path d="M94.7266 112.065C95.6119 112.052 96.4972 112.059 97.3825 112.058C99.8208 114.815 102.247 117.582 104.693 120.332C104.678 118.331 104.746 116.326 104.638 114.326C104.594 113.886 104.615 113.396 104.346 113.021C103.952 112.651 103.373 112.663 102.871 112.604C102.869 112.421 102.869 112.239 102.871 112.058C104.252 112.058 105.633 112.058 107.016 112.058C107.016 112.192 107.017 112.461 107.017 112.595C106.54 112.662 105.91 112.669 105.674 113.176C105.444 113.84 105.513 114.564 105.461 115.257C105.449 117.891 105.46 120.527 105.457 123.162C105.256 123.16 105.057 123.16 104.859 123.162C102.363 120.264 99.871 117.362 97.3612 114.475C97.3749 116.56 97.3003 118.65 97.4159 120.734C97.4661 121.18 97.4296 121.692 97.7308 122.063C98.0958 122.413 98.6389 122.404 99.1074 122.498C99.1059 122.626 99.1059 122.882 99.1059 123.01C97.7217 123.01 96.339 123.01 94.9563 123.01C94.9594 122.836 94.9624 122.666 94.9685 122.497C95.4704 122.407 96.1488 122.39 96.3679 121.831C96.5748 121.129 96.5626 120.383 96.5961 119.659C96.5885 117.777 96.6128 115.895 96.5854 114.017C96.5352 113.084 95.5617 112.613 94.7312 112.593C94.7282 112.415 94.7266 112.239 94.7266 112.065Z" fill="#329244"/>
<path d="M0.310114 128.486C35.8778 128.486 71.447 128.486 107.015 128.486C107.016 133.023 107.013 137.559 107.016 142.096C71.4471 142.101 35.8778 142.104 0.308594 142.095C0.311636 137.559 0.308593 133.021 0.310114 128.486ZM3.36599 131.821C2.65107 132.886 2.77428 134.418 3.65956 135.347C4.31971 136.068 5.32211 136.351 6.27279 136.347C10.9913 136.351 15.7097 136.342 20.4281 136.351C20.8875 136.319 21.3499 136.696 21.3408 137.171C21.3332 137.711 20.7612 138.005 20.279 137.964C14.4745 137.965 8.66851 137.964 2.86403 137.964C2.86859 138.68 2.86859 139.396 2.86555 140.113C8.31714 140.111 13.7688 140.113 19.2204 140.113C20.0387 140.107 20.8799 140.168 21.6693 139.903C22.4451 139.661 23.125 139.097 23.4581 138.35C23.919 137.366 23.7502 136.129 23.0444 135.305C22.404 134.544 21.3879 134.197 20.4159 134.199C15.7036 134.199 10.9928 134.2 6.2804 134.199C5.7541 134.251 5.14719 133.774 5.3069 133.212C5.39665 132.771 5.85905 132.559 6.27431 132.594C12.1077 132.591 17.9396 132.594 23.773 132.593C23.773 131.87 23.773 131.149 23.773 130.43C17.9426 130.428 12.1123 130.43 6.28192 130.428C5.17457 130.417 3.97746 130.851 3.36599 131.821ZM36.6353 130.428C36.6353 133.656 36.6369 136.885 36.6338 140.114C37.4674 140.11 38.3025 140.113 39.136 140.111C39.136 136.884 39.136 133.656 39.136 130.43C38.3025 130.428 37.4689 130.43 36.6353 130.428ZM52.1885 133.352C52.1748 135.594 52.187 137.837 52.1839 140.079C52.9901 140.079 53.7963 140.078 54.604 140.081C54.6131 139.164 54.5857 138.246 54.6116 137.331C54.6238 136.768 55.1577 136.302 55.7159 136.348C60.1499 136.347 64.5839 136.35 69.0194 136.347C69.0133 135.63 69.0148 134.914 69.0179 134.197C64.5291 134.202 60.0419 134.197 55.5547 134.2C55.1805 134.226 54.7226 134.063 54.6405 133.654C54.4595 133.161 54.896 132.628 55.3995 132.615C56.5662 132.558 57.7374 132.611 58.9072 132.593C63.2894 132.663 67.6747 132.611 72.0585 132.628C72.057 131.905 72.057 131.184 72.0585 130.463C66.505 130.468 60.953 130.452 55.401 130.471C53.8343 130.498 52.2326 131.706 52.1885 133.352ZM83.7785 136.228C84.1436 138.228 85.8411 140.075 87.9615 140.107C93.4496 140.119 98.9377 140.108 104.426 140.113C104.425 139.396 104.423 138.683 104.429 137.968C99.2465 137.957 94.0642 137.967 88.8833 137.964C88.1441 137.954 87.3607 137.77 86.8253 137.232C85.8609 136.251 85.8183 134.509 86.7021 133.461C87.236 132.844 88.0771 132.608 88.8696 132.599C94.055 132.562 99.2389 132.623 104.424 132.626C104.424 131.905 104.424 131.184 104.424 130.463C98.9834 130.466 93.5424 130.458 88.1015 130.466C85.3027 130.542 83.1671 133.551 83.7785 136.228Z" fill="#056839"/>
<path d="M71.6855 149.773C71.7159 149.104 71.7646 148.438 71.8118 147.77C72.1129 147.883 72.4065 148.054 72.7427 148.033C74.1603 148.029 75.578 148.038 76.9956 148.024C77.1706 147.925 77.3516 147.835 77.5356 147.75C77.5706 148.38 77.6391 149.011 77.636 149.646L77.417 149.76C77.1949 149.385 77.1401 148.905 76.8101 148.607C76.302 148.378 75.727 148.468 75.1886 148.444C75.1931 150.213 75.1642 151.985 75.1992 153.754C75.2068 154.286 75.8639 154.221 76.2336 154.311C76.2412 154.385 76.2533 154.536 76.2594 154.61C75.216 154.606 74.1725 154.623 73.1305 154.597C73.1549 154.498 73.1823 154.399 73.2112 154.303C73.5002 154.221 73.885 154.28 74.0858 154.011C74.1984 153.678 74.1923 153.322 74.1999 152.977C74.1968 151.469 74.1907 149.963 74.2014 148.456C73.669 148.462 73.1092 148.392 72.6012 148.582C72.0916 148.821 72.297 149.674 71.6855 149.773Z" fill="#056839"/>
<path d="M101.025 149.782C101.062 149.116 101.08 148.448 101.151 147.785C101.462 147.895 101.769 148.05 102.11 148.032C103.515 148.03 104.922 148.039 106.328 148.023C106.509 147.925 106.696 147.837 106.884 147.752C106.9 148.401 106.98 149.049 106.968 149.7C106.39 149.747 106.583 148.864 106.157 148.61C105.646 148.368 105.053 148.473 104.507 148.445C104.518 150.205 104.472 151.968 104.527 153.728C104.53 154.268 105.158 154.23 105.541 154.309C105.553 154.382 105.579 154.53 105.593 154.604C104.507 154.585 103.413 154.685 102.333 154.537C102.615 154.259 103.025 154.25 103.359 154.073C103.533 153.912 103.486 153.638 103.515 153.429C103.515 151.766 103.517 150.103 103.512 148.442C102.958 148.465 102.376 148.392 101.856 148.613C101.46 148.928 101.594 149.664 101.025 149.782Z" fill="#056839"/>
<path d="M1.16668 148.169C1.9546 147.744 2.88703 147.902 3.71451 148.111C3.76926 148.587 3.86662 149.061 3.86814 149.544C3.80425 149.588 3.67648 149.676 3.61259 149.719C3.38595 149.066 3.00111 148.211 2.16756 148.292C1.30053 148.239 0.778798 149.361 1.30662 150.021C1.95612 150.802 3.09542 150.916 3.76014 151.687C4.4933 152.437 4.24841 153.784 3.39508 154.341C2.47482 154.954 1.25034 154.858 0.27988 154.414C0.174925 153.865 0.0806179 153.314 0 152.764C0.082139 152.741 0.246415 152.694 0.328554 152.671C0.605393 153.427 1.09062 154.344 2.01545 154.35C2.71059 154.451 3.32815 153.797 3.2308 153.114C3.19125 152.426 2.52197 152.063 1.9835 151.78C1.32487 151.44 0.567365 151.075 0.29509 150.333C-0.00608629 149.524 0.383315 148.537 1.16668 148.169Z" fill="#056839"/>
<path d="M18.4337 148.389C19.7266 147.732 21.2492 147.819 22.6137 148.184C22.6897 148.73 22.8023 149.271 22.8144 149.825L22.5422 149.851C22.2927 149.396 22.1193 148.841 21.6219 148.591C20.5693 148.044 19.1228 148.304 18.3926 149.264C17.521 150.38 17.5636 152.062 18.3303 153.223C19.0148 154.257 20.5541 154.702 21.6341 154.035C22.1208 153.754 22.3444 153.214 22.6943 152.803C22.781 152.799 22.9529 152.793 23.0396 152.788C22.8768 153.374 22.6684 153.947 22.4129 154.499C21.1139 154.794 19.684 154.966 18.4398 154.373C17.2716 153.847 16.4974 152.575 16.578 151.294C16.5628 150.065 17.34 148.917 18.4337 148.389Z" fill="#056839"/>
<path d="M29.9232 148C30.022 147.971 30.2213 147.913 30.3202 147.884C31.0518 149.816 31.7348 151.767 32.5151 153.681C32.6429 154.108 33.0764 154.233 33.4628 154.329C33.4673 154.399 33.4764 154.537 33.481 154.607C32.6003 154.612 31.7196 154.612 30.8404 154.607C30.8419 154.539 30.8465 154.399 30.848 154.33C31.0655 154.248 31.2845 154.172 31.4914 154.07C31.3545 153.442 31.0838 152.856 30.8678 152.256C30.1468 152.249 29.4288 152.251 28.7093 152.254C28.4888 152.855 28.2637 153.456 28.1192 154.081C28.3777 154.165 28.6394 154.242 28.9025 154.321C28.9056 154.393 28.9116 154.536 28.9162 154.607C27.1228 154.612 25.331 154.627 23.5391 154.595C23.5665 154.498 23.5954 154.402 23.6243 154.309C23.8601 154.256 24.105 154.227 24.3286 154.131C24.5142 153.949 24.4777 153.664 24.4974 153.431C24.4974 152.064 24.4929 150.695 24.499 149.327C24.4792 149.052 24.5355 148.693 24.2723 148.517C24.0533 148.436 23.819 148.41 23.5939 148.368C23.5893 148.284 23.5817 148.117 23.5772 148.033C24.5568 148.038 25.5379 148.01 26.5174 148.051C26.4171 148.488 25.912 148.39 25.6063 148.593C25.3979 149.27 25.5105 149.992 25.4846 150.69C25.515 151.737 25.4192 152.791 25.5363 153.834C25.5455 154.186 25.9121 154.233 26.1843 154.297C26.7426 154.431 27.4164 154.165 27.6111 153.597C28.4051 151.741 29.1505 149.864 29.9232 148ZM29.8182 149.385C29.4927 150.182 29.1915 150.989 28.8888 151.795C29.4973 151.796 30.1042 151.796 30.7126 151.793C30.419 150.989 30.1544 150.173 29.8182 149.385Z" fill="#056839"/>
<path d="M34.0083 148.03C34.9499 148.03 35.8915 148.036 36.8345 148.025C36.8421 148.108 36.8558 148.273 36.8619 148.356C36.5486 148.447 35.9979 148.392 35.969 148.841C35.9006 150.318 35.9645 151.801 35.9371 153.281C35.9462 153.584 35.9127 154.069 36.3067 154.142C36.8771 154.27 37.5205 154.298 38.0605 154.043C38.5686 153.777 38.5108 152.916 39.1542 152.878C39.0416 153.459 38.9002 154.034 38.7572 154.609C37.157 154.612 35.5553 154.61 33.9551 154.61C33.9612 154.536 33.9749 154.387 33.9825 154.312C34.2761 154.228 34.6639 154.283 34.8571 154C34.9712 153.619 34.9499 153.215 34.9575 152.826C34.9438 151.659 34.9621 150.494 34.9514 149.329C34.9149 149.06 34.9788 148.715 34.7385 148.529C34.4997 148.432 34.2395 148.403 33.9916 148.352C33.9962 148.272 34.0038 148.111 34.0083 148.03Z" fill="#056839"/>
<path d="M42.3504 148.025C43.2889 148.036 44.2274 148.032 45.1674 148.029C45.1766 148.109 45.1979 148.269 45.207 148.348C44.883 148.447 44.3232 148.394 44.2959 148.859C44.2289 149.975 44.2913 151.097 44.27 152.215C44.2883 152.806 44.2076 153.41 44.3339 153.996C44.5073 154.282 44.8906 154.228 45.1751 154.314C45.1796 154.388 45.1872 154.534 45.1918 154.607C44.2335 154.613 43.2752 154.61 42.3184 154.61C42.326 154.536 42.3443 154.387 42.3534 154.312C42.65 154.216 43.1763 154.295 43.2235 153.879C43.3482 153.077 43.2539 152.26 43.2813 151.452C43.2585 150.592 43.3315 149.726 43.2417 148.868C43.2265 148.395 42.65 148.442 42.323 148.357C42.3291 148.273 42.3428 148.108 42.3504 148.025Z" fill="#056839"/>
<path d="M58.2022 148.028C58.9795 148.032 59.7583 148.032 60.5356 148.03C60.5432 148.108 60.5569 148.263 60.5645 148.34C60.1523 148.436 59.6959 148.582 59.5271 149.016C58.6449 150.888 57.9391 152.84 57.1131 154.735C57.031 154.729 56.8637 154.717 56.78 154.711C55.9784 152.794 55.2924 150.824 54.4467 148.924C54.3052 148.398 53.5431 148.572 53.4336 148.05C54.3721 148.018 55.3106 148.025 56.2507 148.044C56.2066 148.439 55.7806 148.427 55.5008 148.575C55.6559 149.405 56.0818 150.158 56.3617 150.952C56.6629 151.699 56.9275 152.464 57.282 153.19C57.898 151.69 58.5293 150.191 59.0023 148.64C58.727 148.527 58.4456 148.429 58.1627 148.342C58.1733 148.263 58.1931 148.108 58.2022 148.028Z" fill="#056839"/>
<path d="M67.7614 148.436C68.5539 147.747 69.7723 147.775 70.691 148.173C70.7944 148.675 70.8279 149.191 70.8766 149.703C70.4278 149.647 70.402 149.154 70.1875 148.852C69.8392 148.176 68.7698 148.083 68.312 148.687C67.9226 149.142 68.0336 149.883 68.4915 150.251C69.1699 150.821 70.1099 150.999 70.7245 151.659C71.4394 152.394 71.2568 153.734 70.4218 154.305C69.5258 154.933 68.2785 154.898 67.3233 154.426C67.0769 153.894 67.0814 153.282 66.9902 152.714C67.0754 152.709 67.2457 152.698 67.3309 152.694C67.5651 153.395 67.9819 154.191 68.7835 154.334C69.3037 154.437 69.9183 154.227 70.1206 153.701C70.3214 153.222 70.1829 152.627 69.7753 152.301C69.1273 151.754 68.2542 151.544 67.6549 150.932C66.9856 150.268 67.0388 149.042 67.7614 148.436Z" fill="#056839"/>
<path d="M93.1843 148.03C93.7075 148.032 94.2338 148.03 94.7601 148.03C96.2173 149.687 97.6745 151.345 99.1393 152.995C99.1302 151.777 99.1804 150.555 99.0952 149.34C99.0602 149.083 99.0709 148.794 98.8899 148.59C98.6267 148.439 98.3164 148.418 98.0304 148.353C98.0335 148.272 98.0411 148.111 98.0457 148.03C98.8777 148.032 99.7113 148.032 100.545 148.03C100.548 148.109 100.555 148.266 100.558 148.345C100.24 148.439 99.7295 148.441 99.6915 148.874C99.4907 150.843 99.6641 152.828 99.582 154.802C99.115 154.691 98.8594 154.274 98.5628 153.943C97.5559 152.764 96.5398 151.596 95.5328 150.42C95.2879 150.135 95.0628 149.828 94.7555 149.612C94.7038 150.727 94.7236 151.847 94.7662 152.965C94.7905 153.289 94.7768 153.632 94.9061 153.941C95.0689 154.254 95.4841 154.219 95.7823 154.315C95.7899 154.388 95.8081 154.531 95.8173 154.603C94.9822 154.615 94.1471 154.612 93.3135 154.607C93.3181 154.536 93.3288 154.396 93.3333 154.324C93.6178 154.212 94.0513 154.222 94.1486 153.867C94.3707 152.823 94.2399 151.746 94.2749 150.689C94.2612 150.137 94.3205 149.579 94.2292 149.034C94.0908 148.559 93.5676 148.444 93.1523 148.342C93.1599 148.263 93.1751 148.108 93.1843 148.03Z" fill="#056839"/>
<path d="M4.86557 148.033C5.94859 148.048 7.03312 147.986 8.1131 148.08C8.7261 148.124 9.38169 148.374 9.7072 148.931C10.1863 149.787 9.97187 151.019 9.12767 151.571C8.41884 152.061 7.5001 152.111 6.70001 151.837C6.70913 152.469 6.66654 153.103 6.71978 153.736C6.71826 154.382 7.56855 154.124 7.87885 154.539C6.85212 154.682 5.81017 154.584 4.77734 154.606C4.78799 154.533 4.81233 154.388 4.8245 154.315C5.09982 154.232 5.45119 154.257 5.64285 154.01C5.76453 153.471 5.69608 152.913 5.70977 152.367C5.69 151.2 5.74476 150.032 5.68848 148.868C5.72042 148.415 5.18956 148.435 4.88382 148.366C4.87926 148.283 4.87013 148.117 4.86557 148.033ZM6.75172 148.573C6.62699 149.53 6.73195 150.502 6.69848 151.466C7.21718 151.55 7.80584 151.634 8.26064 151.297C8.85235 150.878 8.92384 150.042 8.76717 149.39C8.54965 148.572 7.4712 148.173 6.75172 148.573Z" fill="#056839"/>
<path d="M10.6482 148.033C12.2149 148.027 13.7831 148.039 15.3499 148.025C15.3848 148.529 15.4198 149.032 15.4624 149.536C15.3818 149.563 15.2206 149.618 15.14 149.645C14.9605 149.247 14.9042 148.645 14.4053 148.523C13.7999 148.398 13.1777 148.453 12.5663 148.47C12.5465 149.311 12.5587 150.152 12.5541 150.995C13.0728 150.986 13.6006 151.045 14.1147 150.951C14.4524 150.905 14.4661 150.494 14.5969 150.252C14.676 150.246 14.8342 150.234 14.9133 150.228C14.9133 150.909 14.9164 151.591 14.9057 152.274C14.8023 152.257 14.7004 152.245 14.5984 152.233C14.4707 151.989 14.4707 151.602 14.1589 151.518C13.6326 151.404 13.088 151.463 12.5541 151.456C12.5845 152.243 12.4917 153.04 12.6028 153.824C12.7032 154.259 13.2492 154.169 13.5854 154.2C14.1467 154.187 14.9103 154.298 15.2191 153.699C15.4563 153.404 15.4989 152.867 15.9781 152.873C15.8883 153.459 15.7545 154.037 15.6176 154.613C13.9246 154.607 12.2301 154.612 10.5371 154.612C10.5402 154.536 10.5478 154.384 10.5508 154.308C10.9144 154.227 11.5167 154.274 11.5198 153.755C11.6247 152.786 11.541 151.808 11.5669 150.836C11.541 150.09 11.6506 149.321 11.4452 148.593C11.214 148.436 10.925 148.427 10.6634 148.366C10.6603 148.283 10.6527 148.115 10.6482 148.033Z" fill="#056839"/>
<path d="M45.6699 148.051C46.2266 148.022 46.7849 148.03 47.3431 148.032C48.8094 149.684 50.2651 151.343 51.7299 152.996C51.6767 151.623 51.8227 150.237 51.6219 148.874C51.5474 148.267 50.6454 148.631 50.5374 148.053C51.4272 148.016 52.3201 148.024 53.2115 148.044C53.143 148.572 52.3368 148.339 52.2806 148.877C52.0965 150.838 52.2228 152.814 52.171 154.782C51.6873 154.689 51.4303 154.248 51.1276 153.912C49.8727 152.449 48.6147 150.987 47.3507 149.531C47.3537 150.63 47.3446 151.728 47.3522 152.828C47.3766 153.222 47.3553 153.643 47.5241 154.011C47.7477 154.23 48.0884 154.232 48.3744 154.32C48.3759 154.393 48.382 154.536 48.3835 154.607C47.55 154.61 46.7164 154.615 45.8844 154.603C45.8935 154.533 45.9117 154.394 45.9209 154.324C46.3087 154.239 46.8198 154.127 46.7925 153.622C46.9126 152.111 46.9628 150.576 46.8229 149.069C46.7331 148.423 45.8479 148.597 45.6699 148.051Z" fill="#056839"/>
<path d="M61.1134 148.032C62.6725 148.03 64.2316 148.032 65.7907 148.032C65.8318 148.561 65.8637 149.093 65.8835 149.627C65.7999 149.617 65.631 149.597 65.5458 149.586C65.3846 149.214 65.3314 148.658 64.875 148.534C64.2544 148.391 63.6095 148.445 62.9813 148.493C62.9782 149.326 62.9813 150.161 62.9797 150.996C63.5578 150.967 64.1692 151.089 64.7229 150.891C64.9207 150.636 64.983 150.262 65.3222 150.148C65.345 150.878 65.3481 151.609 65.3192 152.341C64.9906 152.198 64.9146 151.827 64.7107 151.57C64.1631 151.363 63.5532 151.482 62.9813 151.454C63.0132 152.259 62.8961 153.079 63.0558 153.874C63.214 154.276 63.7418 154.168 64.0841 154.201C64.6104 154.181 65.3055 154.285 65.6204 153.751C65.8759 153.442 65.9246 152.885 66.4205 152.873C66.3277 153.457 66.1953 154.035 66.0554 154.612C64.3381 154.569 62.6101 154.693 60.9004 154.55C61.016 154.096 61.6716 154.35 61.8982 153.991C62.0093 153.721 61.985 153.422 61.9956 153.14C61.985 151.869 61.9941 150.599 61.9926 149.329C61.9652 149.069 62.0108 148.754 61.8191 148.55C61.6016 148.439 61.3491 148.415 61.1179 148.356C61.1179 148.275 61.1149 148.114 61.1134 148.032Z" fill="#056839"/>
<path d="M78.3811 148.032C78.9804 148.03 79.5797 148.029 80.1805 148.036C80.935 149.632 81.6712 151.237 82.4439 152.823C82.634 152.75 82.6797 152.52 82.78 152.364C83.4478 150.917 84.1627 149.492 84.8259 148.042C85.4648 148.027 86.1067 148.019 86.7471 148.048C86.6893 148.628 85.7523 148.27 85.766 148.877C85.7188 150.193 85.8238 151.51 85.8314 152.829C85.8527 153.225 85.8131 153.649 85.9789 154.023C86.2512 154.256 86.668 154.267 86.9387 154.53C85.9515 154.691 84.9461 154.583 83.9513 154.603C83.9589 154.534 83.9771 154.394 83.9863 154.326C84.3285 154.224 84.8442 154.218 84.8214 153.736C84.9005 152.215 84.7894 150.692 84.7909 149.171C83.8707 150.993 83.1284 152.902 82.1716 154.706C81.2574 152.99 80.6596 151.119 79.7576 149.398C79.6557 150.838 79.5204 152.288 79.5827 153.731C79.5599 154.221 80.1546 154.197 80.4908 154.302C80.4984 154.378 80.5136 154.533 80.5212 154.61C79.7044 154.61 78.8891 154.61 78.0723 154.61C78.0768 154.536 78.0844 154.387 78.0875 154.312C78.413 154.201 78.8845 154.153 78.9226 153.722C79.1386 152.473 79.1614 151.2 79.2785 149.941C79.2846 149.509 79.3971 149.043 79.2085 148.639C78.994 148.423 78.6533 148.441 78.3811 148.363C78.3811 148.28 78.3811 148.115 78.3811 148.032Z" fill="#056839"/>
<path d="M87.507 148.032C89.06 148.027 90.613 148.038 92.1676 148.025C92.1189 148.57 92.522 149.323 92.0018 149.708C91.7873 149.306 91.7478 148.667 91.2367 148.527C90.6374 148.41 90.0137 148.419 89.4098 148.488C89.3171 149.318 89.3931 150.16 89.3688 150.995C89.9042 150.987 90.4472 151.045 90.9781 150.946C91.2899 150.876 91.2929 150.487 91.4192 150.254C91.4968 150.248 91.6504 150.236 91.728 150.23C91.728 150.906 91.7295 151.583 91.7234 152.262C91.6489 152.259 91.4998 152.251 91.4268 152.248C91.296 152.005 91.2945 151.618 90.9963 151.521C90.4624 151.404 89.9103 151.462 89.3688 151.457C89.3977 152.243 89.3049 153.039 89.4235 153.819C89.4676 154.128 89.8251 154.18 90.0806 154.189C90.572 154.198 91.077 154.238 91.5591 154.116C92.0565 153.923 92.2193 153.352 92.449 152.922C92.5372 152.928 92.7167 152.943 92.8064 152.949C92.6893 153.501 92.5722 154.054 92.449 154.606C90.7469 154.616 89.0463 154.607 87.3457 154.61C87.3533 154.536 87.3701 154.385 87.3777 154.309C87.7184 154.219 88.2705 154.28 88.3359 153.821C88.4424 152.834 88.3527 151.836 88.3816 150.847C88.3603 150.16 88.4394 149.466 88.3268 148.786C88.2629 148.395 87.7929 148.454 87.507 148.371C87.507 148.286 87.507 148.117 87.507 148.032Z" fill="#056839"/>
<path d="M28.5 159.484C28.5061 158.863 28.5532 158.246 28.6323 157.631C28.8726 157.744 29.116 157.9 29.3989 157.879C30.5656 157.884 31.7323 157.879 32.899 157.882C33.2093 157.905 33.4816 157.745 33.7553 157.627C33.8071 158.234 33.8481 158.843 33.8725 159.455C33.3325 159.326 33.4937 158.553 33.0055 158.355C32.5659 158.22 32.0989 158.267 31.6471 158.255C31.6593 159.846 31.6182 161.438 31.6638 163.028C31.6684 163.515 32.2616 163.46 32.5963 163.544C32.5963 163.611 32.5978 163.746 32.5978 163.813C31.6791 163.813 30.7603 163.813 29.8431 163.813C29.8294 163.751 29.8036 163.624 29.7914 163.562C30.1306 163.462 30.7314 163.495 30.7193 162.999C30.7558 161.419 30.7208 159.837 30.7329 158.255C30.2644 158.268 29.7777 158.22 29.3259 158.37C28.8833 158.605 29.0217 159.321 28.5 159.484Z" fill="#056839"/>
<path d="M39.5548 159.499C39.5518 158.872 39.6081 158.249 39.6552 157.625C40.3245 158.042 41.1322 157.836 41.8745 157.881C42.8571 157.84 43.8702 158.013 44.8209 157.687C44.8498 158.218 44.9091 158.751 44.8908 159.285C44.8376 159.33 44.7281 159.421 44.6748 159.467C44.4999 159.099 44.4588 158.618 44.109 158.367C43.6466 158.211 43.1492 158.268 42.67 158.262C42.6929 159.84 42.6396 161.42 42.6944 162.996C42.7172 163.536 43.4002 163.448 43.7607 163.624C43.2465 163.965 42.6016 163.761 42.0251 163.816C41.5931 163.775 41.0775 163.941 40.7261 163.611C41.044 163.501 41.403 163.481 41.6935 163.299C41.8137 162.912 41.8 162.503 41.803 162.106C41.7939 160.822 41.8015 159.539 41.7969 158.255C41.3284 158.265 40.8463 158.224 40.3914 158.361C39.9306 158.588 40.0568 159.306 39.5548 159.499Z" fill="#056839"/>
<path d="M0.186293 158.147C0.271474 157.934 0.425106 157.846 0.647186 157.881C1.91274 157.872 3.17829 157.888 4.44384 157.876C4.48643 158.398 4.53814 158.921 4.50163 159.447C4.12897 159.189 4.10311 158.673 3.76391 158.396C3.19806 158.171 2.56681 158.282 1.97358 158.269C1.92795 159.064 1.94772 159.861 1.94772 160.66C2.47402 160.651 3.00793 160.69 3.52662 160.575C3.80346 160.407 3.83084 159.984 4.17308 159.879C4.19894 160.547 4.19742 161.218 4.1746 161.889C3.83083 161.775 3.79737 161.385 3.58137 161.148C3.05203 160.997 2.48923 161.098 1.9462 161.077C1.97206 161.813 1.86254 162.569 2.05268 163.293C2.32495 163.506 2.70218 163.492 3.01857 163.606C2.62004 163.964 2.04203 163.763 1.55832 163.818C1.07766 163.77 0.520934 163.95 0.113281 163.618C0.368824 163.53 0.636536 163.475 0.887516 163.375C1.06245 163.209 1.04571 162.943 1.06701 162.727C1.08526 161.658 1.06093 160.59 1.07614 159.522C1.06701 159.126 1.10656 158.711 0.936192 158.343C0.692818 158.253 0.437273 158.203 0.186293 158.147Z" fill="#056839"/>
<path d="M6.87939 158.886C7.07865 158.456 7.15927 157.901 7.64602 157.694C8.25141 159.317 8.85224 160.941 9.46829 162.56C9.56868 162.805 9.66298 163.059 9.8303 163.27C10.0539 163.463 10.3642 163.501 10.6228 163.637C10.3383 163.859 9.97329 163.808 9.64017 163.819C9.09409 163.813 8.54802 163.819 8.00347 163.792C8.1495 163.503 8.47501 163.436 8.7412 163.313C8.56324 162.765 8.36093 162.228 8.16166 161.69C7.51064 161.68 6.86113 161.682 6.21163 161.685C6.04431 162.225 5.75682 162.748 5.73857 163.322C5.98803 163.448 6.25574 163.524 6.51585 163.632C5.8131 163.997 4.96281 163.752 4.19922 163.79C4.43347 163.398 5.02974 163.43 5.18185 162.967C5.7842 161.623 6.30898 160.245 6.87939 158.886ZM6.37895 161.264C6.9235 161.265 7.46805 161.265 8.0126 161.262C7.75249 160.532 7.48782 159.803 7.22619 159.075C6.92958 159.799 6.65731 160.532 6.37895 161.264Z" fill="#056839"/>
<path d="M12.0474 158.437C13.2673 157.605 14.8538 157.639 16.2259 158.021C16.3004 158.55 16.3886 159.084 16.378 159.622C15.9019 159.358 15.8806 158.699 15.4045 158.433C14.4644 157.882 13.1076 158.1 12.4307 158.971C11.5257 160.123 11.6565 161.965 12.7228 162.972C13.5381 163.719 15.0333 163.836 15.7543 162.897C16.0266 162.63 16.1361 162.129 16.5894 162.117C16.4586 162.645 16.3232 163.186 16.0433 163.659C14.9177 164.032 13.6278 164.111 12.522 163.624C11.696 163.272 11.0526 162.516 10.8549 161.638C10.5507 160.461 11.0222 159.111 12.0474 158.437Z" fill="#056839"/>
<path d="M17.0762 157.881C17.9296 157.881 18.7829 157.878 19.6362 157.884C19.6332 157.957 19.6286 158.103 19.6256 158.176C19.3518 158.273 18.8726 158.209 18.8529 158.606C18.8057 160.074 18.827 161.548 18.8422 163.019C18.8133 163.516 19.437 163.463 19.7503 163.62C19.6606 163.665 19.4826 163.755 19.3929 163.799C18.6232 163.842 17.8505 163.799 17.0808 163.813C17.0808 163.746 17.0808 163.615 17.0808 163.55C17.4094 163.465 17.9235 163.486 17.8976 163.011C17.9265 161.547 17.9463 160.076 17.887 158.612C17.8763 158.193 17.3713 158.282 17.0884 158.183C17.0854 158.107 17.0793 157.957 17.0762 157.881Z" fill="#056839"/>
<path d="M20.3089 157.882C21.1607 157.878 22.0125 157.879 22.8643 157.881C22.8628 157.957 22.8582 158.107 22.8567 158.182C22.5783 158.258 22.1098 158.218 22.087 158.614C22.0246 159.926 22.084 161.244 22.0596 162.558C22.0855 162.826 22.0018 163.241 22.3228 163.364C22.7715 163.496 23.2598 163.496 23.7161 163.396C24.2409 163.273 24.4143 162.695 24.6303 162.27C24.7094 162.28 24.8691 162.295 24.9497 162.304C24.8402 162.809 24.7246 163.312 24.5983 163.816C23.1579 163.808 21.7159 163.816 20.2754 163.813C20.2754 163.746 20.2754 163.615 20.2754 163.548C20.6146 163.474 21.1531 163.481 21.1348 163.004C21.1576 161.551 21.1683 160.094 21.1302 158.641C21.1166 158.208 20.6207 158.259 20.3134 158.179C20.3134 158.104 20.3104 157.957 20.3089 157.882Z" fill="#056839"/>
<path d="M25.3398 157.879C26.2007 157.882 27.0632 157.876 27.9241 157.884C27.9226 157.958 27.9196 158.106 27.9165 158.18C27.6762 158.235 27.4191 158.247 27.2001 158.372C27.0221 158.723 27.0982 159.14 27.0769 159.523C27.1043 160.69 27.0419 161.86 27.1043 163.026C27.0921 163.534 27.7051 163.457 28.0382 163.615C27.5986 163.941 27.0176 163.776 26.511 163.817C26.076 163.779 25.571 163.93 25.209 163.617C25.4949 163.518 25.8083 163.48 26.079 163.335C26.2159 162.988 26.1597 162.607 26.1733 162.248C26.1475 161.035 26.2007 159.823 26.1521 158.612C26.1186 158.203 25.6105 158.256 25.3215 158.176C25.3261 158.101 25.3352 157.954 25.3398 157.879Z" fill="#056839"/>
<path d="M36.1229 158.932C36.3252 158.486 36.4165 157.936 36.8804 157.675C37.4432 159.055 37.9254 160.467 38.4638 161.855C38.654 162.319 38.7787 162.821 39.0738 163.235C39.3187 163.44 39.6655 163.507 39.8496 163.79C38.9901 163.754 38.0577 163.994 37.25 163.638C37.4964 163.527 37.7474 163.43 37.9984 163.331C37.8326 162.771 37.6227 162.227 37.4143 161.683C36.7709 161.683 36.1274 161.683 35.484 161.682C35.2787 162.217 35.0764 162.759 34.9516 163.323C35.2346 163.44 35.5996 163.471 35.735 163.793C34.976 163.769 34.1652 163.962 33.4473 163.652C33.8306 163.469 34.328 163.369 34.474 162.909C35.0475 161.594 35.5722 160.257 36.1229 158.932ZM35.6422 161.265C36.1852 161.264 36.7298 161.264 37.2743 161.268C37.0173 160.537 36.7541 159.808 36.4895 159.081C36.1852 159.8 35.9191 160.534 35.6422 161.265Z" fill="#056839"/>
<path d="M45.4782 157.885C46.3027 157.896 47.1317 157.84 47.9546 157.905C47.9956 157.967 48.0763 158.089 48.1158 158.15C47.8557 158.247 47.5059 158.203 47.3051 158.421C47.1454 158.81 47.2108 159.25 47.1956 159.665C47.2229 160.786 47.1545 161.912 47.226 163.033C47.2214 163.525 47.8527 163.462 48.1691 163.63C47.7477 163.922 47.2199 163.784 46.7423 163.817C46.2829 163.789 45.7566 163.919 45.3672 163.612C45.6486 163.495 46.0106 163.507 46.2312 163.277C46.4122 162.442 46.289 161.58 46.324 160.734C46.2935 159.946 46.4168 159.137 46.2068 158.369C45.9756 158.273 45.7292 158.229 45.4904 158.177C45.4874 158.104 45.4813 157.958 45.4782 157.885Z" fill="#056839"/>
<path d="M50.7612 157.937C51.8761 157.573 53.2055 157.751 54.0878 158.559C55.405 159.717 55.3518 162.03 54.03 163.163C52.6397 164.409 50.1649 164.19 49.1397 162.584C48.0445 160.981 48.8856 158.494 50.7612 157.937ZM51.2068 158.212C50.6744 158.367 50.2409 158.778 50.0052 159.276C49.4956 160.409 49.6447 161.843 50.428 162.818C51.038 163.582 52.2488 163.856 53.0565 163.238C54.0863 162.452 54.1197 160.95 53.8064 159.802C53.5235 158.704 52.3385 157.864 51.2068 158.212Z" fill="#056839"/>
<path d="M55.5146 157.888C56.0013 157.907 56.5261 157.799 56.9916 157.945C58.3241 159.367 59.5744 160.871 60.884 162.316C60.881 161.276 60.9023 160.235 60.878 159.196C60.8475 158.92 60.8719 158.605 60.6802 158.383C60.4536 158.244 60.1798 158.238 59.9303 158.179C59.9334 158.077 59.9379 157.978 59.9425 157.881C60.6909 157.881 61.4392 157.878 62.1876 157.884C62.1846 157.955 62.18 158.1 62.1785 158.171C61.856 158.249 61.3769 158.297 61.3906 158.735C61.275 160.485 61.389 162.245 61.3312 164C60.7943 163.854 60.5296 163.332 60.1737 162.957C59.1059 161.732 58.0761 160.476 56.9748 159.283C56.9688 160.272 56.9657 161.262 56.9703 162.252C56.987 162.598 56.9779 162.967 57.1376 163.288C57.4205 163.458 57.7536 163.513 58.0609 163.636C57.6776 163.883 57.2152 163.804 56.7877 163.821C56.3558 163.804 55.8918 163.881 55.5039 163.643C55.7717 163.524 56.0683 163.463 56.3192 163.309C56.52 162.998 56.4774 162.601 56.517 162.251C56.5474 161.137 56.6067 160.016 56.5018 158.906C56.4683 158.399 55.9344 158.258 55.5283 158.171C55.5252 158.101 55.5176 157.958 55.5146 157.888Z" fill="#056839"/>
<path d="M66.7725 158.267C67.9544 157.602 69.3843 157.683 70.6574 158.007C70.7441 158.536 70.8323 159.069 70.8399 159.609C70.3425 159.381 70.3365 158.71 69.868 158.444C68.864 157.838 67.384 158.136 66.7482 159.142C65.9831 160.333 66.1565 162.114 67.2578 163.045C68.0822 163.723 69.5136 163.808 70.2057 162.896C70.4718 162.617 70.5844 162.132 71.0392 162.108C70.9221 162.654 70.7198 163.177 70.5114 163.694C69.4223 163.958 68.245 164.123 67.1711 163.707C66.0561 163.317 65.2286 162.219 65.218 161.029C65.1495 159.905 65.7762 158.789 66.7725 158.267Z" fill="#056839"/>
<path d="M73.7345 157.949C74.7871 157.599 76.0298 157.709 76.9197 158.407C78.3145 159.415 78.4377 161.615 77.338 162.885C76.328 164.05 74.4662 164.289 73.1504 163.516C72.2165 163.001 71.6552 161.936 71.6826 160.879C71.6658 159.599 72.5146 158.357 73.7345 157.949ZM74.1771 158.232C73.4272 158.472 72.9344 159.204 72.8051 159.955C72.6089 161.057 72.8492 162.327 73.7239 163.087C74.4829 163.787 75.8108 163.743 76.4451 162.897C77.2026 161.842 77.1706 160.33 76.5668 159.21C76.1181 158.387 75.0776 157.925 74.1771 158.232Z" fill="#056839"/>
<path d="M78.6506 157.879C79.4887 157.881 80.3283 157.875 81.168 157.887C81.1649 157.96 81.1558 158.106 81.1528 158.179C80.8729 158.26 80.4135 158.214 80.3892 158.606C80.3162 159.262 80.3709 159.925 80.3542 160.585C80.3481 161.317 80.336 162.117 80.774 162.744C81.2973 163.516 82.5385 163.612 83.2017 162.973C83.7767 162.391 83.8238 161.512 83.8208 160.742C83.7949 160.029 83.8892 159.3 83.7219 158.6C83.62 158.234 83.1606 158.27 82.8686 158.177C82.8671 158.104 82.861 157.958 82.8579 157.885C83.6215 157.878 84.3866 157.879 85.1517 157.882C85.1517 157.954 85.1502 158.097 85.1487 158.168C84.8764 158.279 84.4186 158.243 84.3532 158.606C84.1265 159.905 84.4764 161.274 84.0292 162.541C83.442 164.295 80.5687 164.45 79.7382 162.84C79.1328 161.436 79.6621 159.854 79.3564 158.401C79.1388 158.267 78.8833 158.231 78.6445 158.167C78.646 158.095 78.6491 157.952 78.6506 157.879Z" fill="#056839"/>
<path d="M85.4471 157.884C85.9232 157.879 86.4008 157.879 86.8769 157.875C88.217 159.353 89.5114 160.87 90.8485 162.351C90.8621 161.247 90.8591 160.141 90.7952 159.04C90.7739 158.813 90.7602 158.573 90.6218 158.386C90.3891 158.253 90.1168 158.235 89.8643 158.177C89.8628 158.104 89.8613 157.957 89.8597 157.884C90.6112 157.878 91.3641 157.878 92.1171 157.885C92.114 157.957 92.1079 158.101 92.1049 158.173C91.8554 158.262 91.501 158.227 91.3748 158.507C91.2804 158.836 91.2805 159.184 91.2698 159.528C91.2637 161.017 91.2865 162.508 91.2607 163.999C90.8089 163.889 90.561 163.478 90.2735 163.154C89.1509 161.848 88.0268 160.543 86.9012 159.239C86.8997 160.249 86.8906 161.259 86.8997 162.271C86.921 162.613 86.9073 162.981 87.0716 163.296C87.3332 163.434 87.6268 163.493 87.9021 163.606C87.8382 163.942 87.4306 163.758 87.2024 163.818C86.6168 163.77 85.9718 163.95 85.4395 163.638C85.7087 163.516 86.0144 163.465 86.2639 163.297C86.3932 163.08 86.4023 162.817 86.4282 162.573C86.5027 161.556 86.4768 160.533 86.4814 159.514C86.4586 159.172 86.4997 158.777 86.2517 158.506C86.0479 158.279 85.7209 158.262 85.4531 158.168C85.4516 158.097 85.4486 157.955 85.4471 157.884Z" fill="#056839"/>
<path d="M93.7107 158.561C94.9276 157.607 96.6038 157.631 98.0337 158.005C98.1264 158.538 98.2162 159.075 98.2162 159.619C97.7294 159.371 97.7112 158.71 97.2412 158.441C96.2373 157.838 94.7679 158.139 94.1305 159.14C93.3806 160.299 93.5312 162.014 94.5488 162.969C95.3626 163.719 96.8655 163.839 97.5865 162.899C97.8557 162.624 97.9591 162.125 98.4185 162.114C98.2862 162.643 98.1432 163.18 97.877 163.661C96.2555 164.227 94.0545 164.091 93.0475 162.508C92.2505 161.271 92.5303 159.458 93.7107 158.561Z" fill="#056839"/>
<path d="M98.9121 157.879C99.7624 157.881 100.614 157.879 101.466 157.882C101.466 157.955 101.465 158.103 101.463 158.176C101.215 158.259 100.853 158.214 100.715 158.475C100.564 159.164 100.645 159.876 100.626 160.576C100.646 161.42 100.573 162.272 100.681 163.113C100.736 163.534 101.303 163.457 101.589 163.624C101.495 163.668 101.309 163.755 101.217 163.799C100.45 163.842 99.6818 163.799 98.9152 163.813C98.9152 163.747 98.9152 163.618 98.9152 163.554C99.1616 163.472 99.4688 163.487 99.662 163.287C99.8278 162.705 99.7289 162.092 99.7518 161.498C99.7244 160.536 99.808 159.569 99.7107 158.612C99.6879 158.211 99.2026 158.273 98.9258 158.183C98.9228 158.107 98.9152 157.955 98.9121 157.879Z" fill="#056839"/>
<path d="M102.14 157.882C102.992 157.878 103.846 157.881 104.699 157.881C104.696 157.957 104.69 158.107 104.687 158.183C104.413 158.256 103.935 158.226 103.916 158.609C103.864 159.925 103.914 161.244 103.891 162.561C103.914 162.833 103.824 163.255 104.16 163.372C104.676 163.492 105.257 163.533 105.753 163.314C106.231 163.077 106.205 162.341 106.76 162.222C106.689 162.76 106.562 163.291 106.419 163.814C104.982 163.81 103.544 163.814 102.109 163.813C102.109 163.748 102.109 163.617 102.109 163.551C102.366 163.477 102.667 163.481 102.887 163.308C103.009 162.97 102.98 162.602 102.988 162.252C102.976 161.189 102.988 160.127 102.985 159.067C102.962 158.818 103.001 158.532 102.826 158.332C102.603 158.256 102.373 158.223 102.148 158.18C102.147 158.106 102.142 157.957 102.14 157.882Z" fill="#056839"/>
</g>
<defs>
<linearGradient id="paint0_linear_678_14191" x1="-0.000895711" y1="1.15962e-05" x2="71.357" y2="134.812" gradientUnits="userSpaceOnUse">
<stop stop-color="#295F33"/>
<stop offset="1" stop-color="#37B14A"/>
</linearGradient>
<linearGradient id="paint1_linear_678_14191" x1="0.000890147" y1="3.86474e-05" x2="71.3588" y2="134.812" gradientUnits="userSpaceOnUse">
<stop stop-color="#295F33"/>
<stop offset="1" stop-color="#37B14A"/>
</linearGradient>
<linearGradient id="paint2_linear_678_14191" x1="0.000127664" y1="-5.7419e-06" x2="71.358" y2="134.812" gradientUnits="userSpaceOnUse">
<stop stop-color="#295F33"/>
<stop offset="1" stop-color="#37B14A"/>
</linearGradient>
<linearGradient id="paint3_linear_678_14191" x1="0.000102538" y1="-1.6458e-06" x2="71.358" y2="134.812" gradientUnits="userSpaceOnUse">
<stop stop-color="#295F33"/>
<stop offset="1" stop-color="#37B14A"/>
</linearGradient>
<linearGradient id="paint4_linear_678_14191" x1="0.000893011" y1="-3.54658e-05" x2="71.3588" y2="134.812" gradientUnits="userSpaceOnUse">
<stop stop-color="#295F33"/>
<stop offset="1" stop-color="#37B14A"/>
</linearGradient>
<linearGradient id="paint5_linear_678_14191" x1="107.32" y1="9.05646e-05" x2="-7.40368" y2="73.482" gradientUnits="userSpaceOnUse">
<stop stop-color="#F17524"/>
<stop offset="1" stop-color="#ECD920"/>
</linearGradient>
<linearGradient id="paint6_linear_678_14191" x1="107.318" y1="4.85681e-05" x2="-7.40556" y2="73.4821" gradientUnits="userSpaceOnUse">
<stop stop-color="#F17524"/>
<stop offset="1" stop-color="#ECD920"/>
</linearGradient>
<linearGradient id="paint7_linear_678_14191" x1="107.319" y1="-4.65004e-05" x2="-7.40463" y2="73.4819" gradientUnits="userSpaceOnUse">
<stop stop-color="#F17524"/>
<stop offset="1" stop-color="#ECD920"/>
</linearGradient>
<linearGradient id="paint8_linear_678_14191" x1="107.32" y1="-9.77433e-05" x2="-7.40406" y2="73.4818" gradientUnits="userSpaceOnUse">
<stop stop-color="#F17524"/>
<stop offset="1" stop-color="#ECD920"/>
</linearGradient>
<linearGradient id="paint9_linear_678_14191" x1="107.319" y1="-0.000116127" x2="-7.4044" y2="73.4819" gradientUnits="userSpaceOnUse">
<stop stop-color="#F17524"/>
<stop offset="1" stop-color="#ECD920"/>
</linearGradient>
<linearGradient id="paint10_linear_678_14191" x1="107.319" y1="-4.29943e-05" x2="-7.40444" y2="73.4819" gradientUnits="userSpaceOnUse">
<stop stop-color="#F17524"/>
<stop offset="1" stop-color="#ECD920"/>
</linearGradient>
<linearGradient id="paint11_linear_678_14191" x1="107.32" y1="-9.55048e-05" x2="-7.40373" y2="73.4819" gradientUnits="userSpaceOnUse">
<stop stop-color="#F17524"/>
<stop offset="1" stop-color="#ECD920"/>
</linearGradient>
<linearGradient id="paint12_linear_678_14191" x1="15.8877" y1="60.7854" x2="130.807" y2="90.6916" gradientUnits="userSpaceOnUse">
<stop stop-color="#37B24A"/>
<stop offset="1" stop-color="#285B32"/>
</linearGradient>
<linearGradient id="paint13_linear_678_14191" x1="15.8868" y1="60.7854" x2="130.806" y2="90.6916" gradientUnits="userSpaceOnUse">
<stop stop-color="#37B24A"/>
<stop offset="1" stop-color="#285B32"/>
</linearGradient>
<linearGradient id="paint14_linear_678_14191" x1="15.8875" y1="60.7853" x2="130.807" y2="90.6915" gradientUnits="userSpaceOnUse">
<stop stop-color="#37B24A"/>
<stop offset="1" stop-color="#285B32"/>
</linearGradient>
<linearGradient id="paint15_linear_678_14191" x1="15.8866" y1="60.7853" x2="130.805" y2="90.6913" gradientUnits="userSpaceOnUse">
<stop stop-color="#37B24A"/>
<stop offset="1" stop-color="#285B32"/>
</linearGradient>
<linearGradient id="paint16_linear_678_14191" x1="15.8871" y1="60.7853" x2="130.806" y2="90.6913" gradientUnits="userSpaceOnUse">
<stop stop-color="#37B24A"/>
<stop offset="1" stop-color="#285B32"/>
</linearGradient>
<linearGradient id="paint17_linear_678_14191" x1="80.659" y1="46.9042" x2="-8.5991" y2="95.2622" gradientUnits="userSpaceOnUse">
<stop stop-color="#26532F"/>
<stop offset="1" stop-color="#369E47"/>
</linearGradient>
<linearGradient id="paint18_linear_678_14191" x1="80.6594" y1="46.9041" x2="-8.59868" y2="95.2621" gradientUnits="userSpaceOnUse">
<stop stop-color="#26532F"/>
<stop offset="1" stop-color="#369E47"/>
</linearGradient>
<linearGradient id="paint19_linear_678_14191" x1="80.6577" y1="46.9042" x2="-8.60043" y2="95.2622" gradientUnits="userSpaceOnUse">
<stop stop-color="#26532F"/>
<stop offset="1" stop-color="#369E47"/>
</linearGradient>
<linearGradient id="paint20_linear_678_14191" x1="80.6579" y1="46.9042" x2="-8.60018" y2="95.2622" gradientUnits="userSpaceOnUse">
<stop stop-color="#26532F"/>
<stop offset="1" stop-color="#369E47"/>
</linearGradient>
<linearGradient id="paint21_linear_678_14191" x1="80.6585" y1="46.9043" x2="-8.59955" y2="95.2623" gradientUnits="userSpaceOnUse">
<stop stop-color="#26532F"/>
<stop offset="1" stop-color="#369E47"/>
</linearGradient>
<linearGradient id="paint22_linear_678_14191" x1="80.6576" y1="46.9042" x2="-8.60051" y2="95.2622" gradientUnits="userSpaceOnUse">
<stop stop-color="#26532F"/>
<stop offset="1" stop-color="#369E47"/>
</linearGradient>
<linearGradient id="paint23_linear_678_14191" x1="80.658" y1="46.9041" x2="-8.60006" y2="95.2621" gradientUnits="userSpaceOnUse">
<stop stop-color="#26532F"/>
<stop offset="1" stop-color="#369E47"/>
</linearGradient>
<linearGradient id="paint24_linear_678_14191" x1="80.6594" y1="46.9042" x2="-8.59867" y2="95.2622" gradientUnits="userSpaceOnUse">
<stop stop-color="#26532F"/>
<stop offset="1" stop-color="#369E47"/>
</linearGradient>
<linearGradient id="paint25_linear_678_14191" x1="80.6579" y1="46.9042" x2="-8.60021" y2="95.2622" gradientUnits="userSpaceOnUse">
<stop stop-color="#26532F"/>
<stop offset="1" stop-color="#369E47"/>
</linearGradient>
<linearGradient id="paint26_linear_678_14191" x1="80.6581" y1="46.9041" x2="-8.59993" y2="95.2621" gradientUnits="userSpaceOnUse">
<stop stop-color="#26532F"/>
<stop offset="1" stop-color="#369E47"/>
</linearGradient>
<linearGradient id="paint27_linear_678_14191" x1="80.6589" y1="46.9041" x2="-8.59919" y2="95.2621" gradientUnits="userSpaceOnUse">
<stop stop-color="#26532F"/>
<stop offset="1" stop-color="#369E47"/>
</linearGradient>
<linearGradient id="paint28_linear_678_14191" x1="80.6592" y1="46.9043" x2="-8.5989" y2="95.2623" gradientUnits="userSpaceOnUse">
<stop stop-color="#26532F"/>
<stop offset="1" stop-color="#369E47"/>
</linearGradient>
<clipPath id="clip0_678_14191">
<rect width="108" height="164" fill="white"/>
</clipPath>
</defs>
</svg>
