<svg width="374" height="58" viewBox="0 0 374 58" fill="none" xmlns="http://www.w3.org/2000/svg">
<path fill-rule="evenodd" clip-rule="evenodd" d="M34.5315 0C47.9262 0 58.8763 10.9501 58.8763 24.3448C58.8763 37.7396 47.9262 48.6896 34.5315 48.6896C21.0858 48.6896 10.1357 37.7396 10.1357 24.3448C10.1357 10.9501 21.0858 0 34.5315 0ZM11.8674 23.479C15.1779 23.7337 18.1828 22.3076 21.7479 20.9325C24.4472 20.0666 26.841 20.525 29.3875 21.5436C32.3415 23.3262 35.1936 23.6318 38.2494 21.5436C41.1015 20.0157 44.1574 20.2704 47.1623 21.5436C50.32 23.0716 53.6305 23.7337 57.1956 23.5809C56.8391 11.4594 46.8058 1.62978 34.5824 1.62978C22.3082 1.62978 12.2748 11.4084 11.8674 23.479ZM11.9183 27.2479C15.1269 27.5025 18.1318 26.0765 21.697 24.7013C24.3963 23.8355 26.79 24.2939 29.3366 25.3125C32.2906 27.0951 35.1427 27.4007 38.1985 25.3125C41.0506 23.7846 44.1064 24.0392 47.1114 25.3125C50.2691 26.8404 53.5795 27.5025 56.9919 27.3497C57.0428 26.7386 57.1447 26.1274 57.0938 25.3634C53.5286 25.5672 50.2181 24.8541 47.0604 23.3262C44.0555 22.002 40.9997 21.7983 38.1476 23.3262C35.1427 25.4144 32.2906 25.1088 29.2857 23.3262C26.7391 22.3076 24.3454 21.8492 21.6461 22.715C18.0809 24.0902 15.076 25.5162 11.7655 25.3634C11.8165 26.0765 11.9692 26.6876 11.9183 27.2479ZM12.8351 31.0677C15.7381 31.0677 18.5393 29.6925 21.697 28.5211C24.3963 27.6553 26.79 28.1137 29.3366 29.1323C32.2906 30.9149 35.1427 31.2204 38.1985 29.1323C41.0506 27.6044 44.1064 27.859 47.1114 29.1323C49.9635 30.5074 53.0702 31.2204 56.177 31.1186C56.2789 30.4565 56.4826 29.8963 56.6354 29.1832C53.274 29.2851 50.1163 28.623 47.1114 27.1969C44.1064 25.8727 41.0506 25.669 38.1985 27.1969C35.1936 29.2851 32.3415 28.9795 29.3366 27.1969C26.79 26.1783 24.3963 25.7199 21.697 26.5858C18.3356 27.859 15.4835 29.1323 12.3258 29.1323C12.4276 29.7435 12.6823 30.3546 12.8351 31.0677ZM14.363 34.6837C16.6549 34.3781 19.0486 33.2577 21.697 32.2391C24.3963 31.3732 26.79 31.8316 29.3366 32.8502C32.2906 34.6328 35.1427 34.9384 38.1985 32.8502C41.0506 31.3223 44.1064 31.526 47.1114 32.8502C49.5051 34.0216 52.0007 34.6837 54.5472 34.7856C54.7509 34.1744 55.1584 33.5633 55.464 32.9012C52.6119 32.9012 49.7597 32.1881 47.1114 30.9149C44.1064 29.5907 41.0506 29.3869 38.1985 30.9149C35.1936 32.9521 32.3415 32.6974 29.3366 30.9149C26.79 29.8963 24.3963 29.4379 21.697 30.3037C18.6921 31.4242 16.1456 32.6974 13.4462 32.8502C13.8027 33.4614 14.1593 34.1235 14.363 34.6837ZM17.6225 39.3693C21.9007 44.004 27.9105 47.0599 34.4806 47.0599C40.8469 47.0599 46.5511 44.2587 50.8293 39.9296C49.607 39.624 48.3846 39.0638 47.1114 38.5035C44.1064 37.1793 41.0506 36.9756 38.1985 38.5035C35.1936 40.5407 32.3415 40.2861 29.3366 38.5035C26.79 37.4849 24.3963 37.0265 21.697 37.8924C20.2709 38.4017 18.9467 38.9619 17.6225 39.3693ZM16.4511 37.9433C18.1318 37.5358 19.8635 36.7719 21.7479 36.0589C24.4472 35.193 26.841 35.6514 29.3875 36.67C32.3415 38.4526 35.1936 38.7072 38.2494 36.67C41.1015 35.1421 44.1574 35.3458 47.1623 36.67C48.8939 37.4849 50.6256 38.0961 52.3572 38.3507C52.6628 37.7396 53.1212 37.1284 53.5795 36.5682C51.4405 36.3644 49.3014 35.7023 47.1623 34.6837C44.1574 33.3595 41.1015 33.1558 38.2494 34.6837C35.2445 36.721 32.3924 36.4663 29.3875 34.6837C26.841 33.6651 24.4472 33.2067 21.7479 34.0726C19.456 34.9384 17.317 35.9061 15.3307 36.3135C15.7381 36.8228 16.0946 37.383 16.4511 37.9433Z" fill="#074826"/>
<path fill-rule="evenodd" clip-rule="evenodd" d="M28.5217 9.77762C29.0819 12.2223 31.0682 14.0558 33.6148 14.0558C36.5178 14.0558 38.8097 11.7639 38.8097 8.86087C38.8097 6.31434 37.0271 4.22619 34.5824 3.71688C37.7911 3.71688 40.4904 6.4162 40.4904 9.72669C40.4904 13.0372 37.7911 15.7365 34.4297 15.7365C31.1701 15.7365 28.4708 13.0372 28.5217 9.77762ZM28.8782 8.35157L31.0682 8.09691L31.985 10.1341L32.4434 7.99505L34.6843 7.68947L32.7999 6.569L33.2582 4.42991L31.6285 5.9069L29.6931 4.78642L30.6099 6.82365L28.8782 8.35157Z" fill="#074826"/>
<path fill-rule="evenodd" clip-rule="evenodd" d="M55.769 49.1993L56.482 48.5372L55.769 49.1993Z" fill="#074826"/>
<path fill-rule="evenodd" clip-rule="evenodd" d="M9.57495 49.6067C8.96378 49.1484 8.35262 49.0974 7.58866 49.3011C7.69052 49.9632 8.30169 50.5235 9.21844 50.9819L9.57495 49.6067ZM23.9374 54.1395C20.2194 55.1072 15.8903 52.9681 10.4408 50.7781L23.9374 54.1395ZM17.7748 53.6302C18.0804 52.2551 17.4692 51.0837 15.7376 50.0142C15.4829 50.88 15.8903 52.0514 16.6034 53.2228C15.2792 53.5284 14.1587 54.0886 13.8022 54.9035C15.7376 55.311 17.0108 54.8016 17.7748 53.6302ZM15.6866 50.8291C15.1264 49.9632 14.4643 49.4539 13.3947 49.4539C13.4966 50.3707 13.955 51.4912 14.668 52.4079C13.4966 52.4588 12.3761 53.1209 11.714 53.783C12.4271 54.3942 13.242 54.547 14.2096 54.3433L15.6866 50.8291ZM13.4966 50.0651C13.0892 49.403 12.5289 48.9446 11.714 48.8428C11.4085 49.7595 11.8668 50.8291 12.5289 51.5421C11.4085 51.7458 10.4917 52.2551 10.0333 53.07C10.6954 53.5793 11.4085 53.6812 12.1724 53.3756L13.4966 50.0651ZM11.5103 49.3011C10.8991 48.639 10.288 48.5881 9.37123 48.8428C9.37123 49.5049 9.8296 50.2179 10.4917 50.7781L11.5103 49.3011ZM10.288 52.6116C9.42216 52.6626 8.86192 52.3061 8.25076 51.5421C8.86192 50.9819 9.57495 50.7781 10.4917 50.88L10.288 52.6116ZM7.23214 26.7898C7.43587 26.0768 7.23214 25.5166 6.77377 24.8035C6.1626 25.211 5.85702 26.0259 5.85702 26.9935L7.23214 26.7898ZM10.3898 44.1572C6.26446 41.5597 6.67191 35.5499 6.57005 28.0631L10.3898 44.1572ZM6.72284 35.9573C8.09796 35.6517 8.91285 34.5822 9.21844 32.6468C8.35262 32.6978 7.43587 33.6145 6.67191 34.6841C5.90795 33.5636 4.88934 32.7996 4.12538 32.7487C4.43096 34.6841 5.34771 35.7027 6.72284 35.9573ZM8.50541 32.9015C9.11658 32.0357 9.21844 31.2717 8.86192 30.2531C8.04703 30.7115 7.18121 31.5773 6.67191 32.545C6.1626 31.5264 5.14399 30.7624 4.22724 30.4059C3.92166 31.2717 4.17631 32.0357 4.68561 32.9015H8.50541ZM8.40355 30.6096C8.86192 29.9984 9.01471 29.3364 8.86192 28.4705C7.89424 28.5724 7.07935 29.4382 6.67191 30.355C6.06074 29.3873 5.24585 28.7252 4.3291 28.5724C4.12538 29.4382 4.3291 30.1003 4.83841 30.7115L8.40355 30.6096ZM8.35262 28.5215C8.6582 27.6556 8.50541 27.0954 7.89424 26.3314C7.28308 26.637 6.77377 27.2991 6.51912 28.114L8.35262 28.5215ZM4.78747 28.5724C4.38003 27.8594 4.58375 27.1463 5.04213 26.4333C5.75516 26.637 6.26446 27.2991 6.51912 28.1649L4.78747 28.5724ZM2.85211 36.5685C2.59746 35.8555 2.19001 35.3971 1.47699 35.0406C1.1714 35.6517 1.27326 36.5176 1.78257 37.3834L2.85211 36.5685ZM6.92656 44.7174C7.94517 43.7497 8.14889 42.4255 7.43587 40.592C6.72284 41.1523 6.31539 42.3237 6.21353 43.6479C4.9912 43.0876 3.76886 42.8839 3.0049 43.2913C4.27817 44.7683 5.60236 45.1758 6.92656 44.7174ZM6.97749 41.2032C7.02842 40.1336 6.77377 39.3697 5.90795 38.7076C5.44957 39.5225 5.14399 40.7448 5.19492 41.8143C4.22724 41.2032 2.95397 40.9485 1.98629 41.1523C2.24095 42.0181 2.80118 42.6802 3.667 43.0876L6.97749 41.2032ZM5.70423 39.2678C5.75516 38.4529 5.60237 37.7399 4.9912 37.1287C4.27817 37.689 3.97259 38.8094 4.02352 39.8281C3.05583 39.2678 1.98629 39.115 1.12047 39.4715C1.37512 40.3374 1.88443 40.7957 2.64839 41.0504L5.70423 39.2678ZM4.58375 37.4343C4.48189 36.5685 3.97258 36.1101 3.1577 35.7536C2.75025 36.3138 2.69932 37.1287 2.85211 37.9946L4.58375 37.4343ZM1.52792 39.3188C0.81489 38.8604 0.611166 38.1983 0.611166 37.2815C1.37512 37.1797 2.13908 37.4852 2.75025 38.0964L1.52792 39.3188ZM23.0206 51.2874C18.9462 50.2688 14.3624 45.5832 11.1538 46.1434L23.0206 51.2874ZM27.2479 52.0005C16.6543 48.0279 12.8854 39.3697 6.26446 47.0093C13.5985 45.9907 19.812 53.2737 26.433 52.5607L27.2479 52.0005ZM20.525 54.8526C25.3125 55.8203 28.2155 47.977 34.5309 51.5421C29.7944 51.1346 25.4144 59.5382 20.525 54.8526ZM59.3851 49.6067C59.9962 49.1484 60.6074 49.0974 61.3714 49.3011C61.2695 49.9632 60.6583 50.5235 59.7416 50.9819L59.3851 49.6067ZM45.0226 54.1395C48.7406 55.1072 53.0697 52.9681 58.5193 50.7781L45.0226 54.1395ZM51.1852 53.6302C50.8797 52.2551 51.4908 51.0837 53.2225 50.0142C53.5281 50.88 53.0697 52.0514 52.3567 53.2228C53.6808 53.5284 54.8013 54.0886 55.1578 54.9035C53.2225 55.311 51.9492 54.8016 51.1852 53.6302ZM53.2734 50.8291C53.8336 49.9632 54.4957 49.4539 55.5653 49.4539C55.4634 50.3707 55.005 51.4912 54.292 52.4079C55.4634 52.4588 56.5839 53.1209 57.246 53.783C56.533 54.3942 55.7181 54.547 54.7504 54.3433L53.2734 50.8291ZM55.4634 50.0651C55.9218 49.403 56.4311 48.9446 57.246 48.8428C57.5516 49.7595 57.0932 50.8291 56.4311 51.5421C57.5516 51.7458 58.4683 52.2551 58.9267 53.07C58.2646 53.5793 57.5516 53.6812 56.7876 53.3756L55.4634 50.0651ZM57.4497 49.3011C58.0609 48.639 58.672 48.5881 59.5888 48.8428C59.5888 49.5049 59.1304 50.2179 58.4683 50.7781L57.4497 49.3011ZM58.672 52.6116C59.5379 52.6626 60.0981 52.3061 60.7093 51.5421C60.0981 50.9819 59.3851 50.7781 58.4683 50.88L58.672 52.6116ZM61.7279 26.7898C61.5242 26.0768 61.7279 25.5166 62.1863 24.8035C62.7974 25.211 63.103 26.0259 63.103 26.9935L61.7279 26.7898ZM58.5702 44.1572C62.6956 41.5597 62.2881 35.5499 62.39 28.0631L58.5702 44.1572ZM62.2372 35.9573C60.8621 35.6517 60.0472 34.5822 59.7416 32.6468C60.6074 32.6978 61.5242 33.6145 62.2881 34.6841C63.0521 33.5636 64.0707 32.7996 64.8346 32.7487C64.5291 34.6841 63.6123 35.7027 62.2372 35.9573ZM60.4546 32.9015C59.8435 32.0357 59.7416 31.2717 60.0981 30.2531C60.913 30.7115 61.7788 31.5773 62.2881 32.545C62.7974 31.5264 63.816 30.7624 64.7328 30.4059C65.0384 31.2717 64.7837 32.0357 64.2744 32.9015H60.4546ZM60.5565 30.6096C60.0981 29.9984 59.9453 29.3364 60.0981 28.4705C61.0658 28.5724 61.8807 29.4382 62.2881 30.355C62.8993 29.3873 63.7142 28.7252 64.6309 28.5724C64.8346 29.4382 64.6309 30.1003 64.1216 30.7115L60.5565 30.6096ZM60.6074 28.5215C60.3018 27.6556 60.4546 27.0954 61.0658 26.3314C61.677 26.637 62.1863 27.2991 62.4409 28.114L60.6074 28.5215ZM64.1725 28.5724C64.58 27.8594 64.3763 27.1463 63.9179 26.4333C63.2049 26.637 62.6956 27.2991 62.4409 28.1649L64.1725 28.5724ZM66.1079 36.5685C66.3626 35.8555 66.8209 35.3971 67.483 35.0406C67.7886 35.6517 67.6868 36.5176 67.1775 37.3834L66.1079 36.5685ZM62.0335 44.7174C61.0149 43.7497 60.8111 42.4255 61.5242 40.592C62.2372 41.1523 62.6446 42.3237 62.7465 43.6479C63.9688 43.0876 65.1912 42.8839 65.9551 43.2913C64.6309 44.7683 63.3577 45.1758 62.0335 44.7174ZM61.9825 41.2032C61.9316 40.1336 62.1863 39.3697 63.0521 38.7076C63.5104 39.5225 63.816 40.7448 63.7651 41.8143C64.7328 41.2032 66.006 40.9485 66.9737 41.1523C66.7191 42.0181 66.1589 42.6802 65.293 43.0876L61.9825 41.2032ZM63.2558 39.2678C63.2049 38.4529 63.3577 37.7399 63.9688 37.1287C64.6819 37.689 64.9874 38.8094 64.9365 39.8281C65.9042 39.2678 66.9737 39.115 67.8396 39.4715C67.5849 40.3374 67.0756 40.7957 66.3116 41.0504L63.2558 39.2678ZM64.3763 37.4343C64.4781 36.5685 64.9874 36.1101 65.8023 35.7536C66.2098 36.3138 66.2607 37.1287 66.1079 37.9946L64.3763 37.4343ZM67.3812 39.3188C68.0942 38.8604 68.2979 38.1983 68.2979 37.2815C67.534 37.1797 66.77 37.4852 66.1589 38.0964L67.3812 39.3188ZM45.9394 51.2874C50.0138 50.2688 54.5976 45.5832 57.8062 46.1434L45.9394 51.2874ZM41.7122 52.0005C52.3057 48.0279 56.0746 39.3697 62.6956 47.0093C55.3616 45.9907 49.148 53.2737 42.527 52.5607L41.7122 52.0005ZM37.8924 52.5607C36.5682 52.8154 35.4986 53.1719 34.5309 53.5284C33.6651 53.07 32.29 52.7644 31.0677 52.5607H37.8924ZM39.0128 53.1719C37.8924 53.3756 36.721 53.7321 35.7023 54.0886C37.1793 54.7507 38.4017 55.6165 39.5731 56.6861L38.7073 57.3991C37.4849 56.1768 36.1607 55.26 34.5309 54.5979C32.9521 55.311 31.4751 56.2277 30.2528 57.3991L29.387 56.6861C30.4565 55.6675 31.577 54.8017 33.003 54.0886C32.1372 53.7321 31.0677 53.3756 29.9472 53.1719H39.0128ZM48.435 54.8526C43.6475 55.8203 40.7445 47.977 34.4291 51.5421C39.1656 51.1346 43.5457 59.5382 48.435 54.8526Z" fill="#074826"/>
<path fill-rule="evenodd" clip-rule="evenodd" d="M13.191 49.1993L12.478 48.5372L13.191 49.1993Z" fill="#074826"/>
<path fill-rule="evenodd" clip-rule="evenodd" d="M43.3407 39.3688L44.3594 38.9105C44.5121 38.7577 44.6649 38.7067 44.7159 38.6558C44.8687 38.6049 45.0214 38.503 45.0724 38.4012H45.1233C45.1233 38.503 45.0724 38.5539 45.0724 38.6049C45.0724 38.6558 44.9705 38.7067 44.9705 38.7577C44.8177 38.9614 44.5631 39.1651 44.2066 39.3688C44.0538 39.4198 43.901 39.5216 43.6973 39.6235C43.4426 39.7254 43.2389 39.8272 43.0861 39.8272C42.8824 39.98 42.6786 40.0819 42.5768 40.1837C42.5768 40.2347 42.5258 40.2856 42.5258 40.3875C42.4749 40.4384 42.4749 40.4893 42.4749 40.5402C42.4749 40.744 42.4749 40.9477 42.4749 41.1514C42.4749 41.3551 42.5258 41.5589 42.5258 41.7626C42.5258 41.8644 42.5768 41.9663 42.6277 42.0172C42.6786 42.1191 42.7296 42.221 42.8314 42.221H42.8824C42.9333 41.9663 43.0861 41.7626 43.0861 41.6098C43.2389 41.4061 43.3407 41.2023 43.4935 41.1005C43.4935 41.1005 43.5445 41.1005 43.5954 41.1005C43.6463 41.0495 43.6973 41.0495 43.6973 41.0495C43.7991 41.0495 43.901 41.1005 44.0028 41.1005C44.1556 41.1514 44.3084 41.2023 44.4612 41.2533L44.7668 41.3551C44.8177 41.4061 44.8177 41.4061 44.7668 41.457C44.6649 41.5079 44.4103 41.7626 44.1556 42.1191C43.9519 42.4247 43.6973 42.5775 43.4935 42.7303C43.2898 42.934 42.9842 43.0358 42.6277 43.0358C42.5768 42.9849 42.424 42.934 42.424 42.8321C42.3731 42.7812 42.3221 42.6284 42.3221 42.5265C42.2712 42.7303 42.1693 42.8321 42.1184 42.9849C42.0675 43.0868 41.9656 43.2396 41.8638 43.3414C41.8128 43.5961 41.7619 43.7998 41.711 43.9017C41.66 44.0545 41.6091 44.2072 41.5072 44.36C41.4054 44.411 41.3035 44.411 41.2017 44.4619C40.9979 44.5128 40.8961 44.5638 40.6414 44.6147C40.6414 44.6147 40.5905 44.6147 40.5396 44.6147C40.4886 44.6656 40.3868 44.6656 40.3358 44.6656C40.2849 44.6147 40.2849 44.6147 40.3358 44.5638C40.4377 44.5128 40.5396 44.411 40.6414 44.36C40.7942 44.3091 40.947 44.2582 40.9979 44.1563C41.1507 44.1054 41.2017 44.0545 41.3035 44.0035C41.4563 43.9526 41.5072 43.7998 41.5582 43.7489C41.5582 43.6979 41.5582 43.6979 41.5582 43.6979C41.5582 43.647 41.5582 43.4942 41.5072 43.4942C41.4563 43.4942 41.4563 43.4433 41.4563 43.4433C41.3544 43.4433 41.3035 43.4433 41.2526 43.4433C41.2017 43.4433 41.1507 43.4433 41.0489 43.3924C40.9979 43.3924 40.9979 43.3414 40.9979 43.2905C40.947 43.2396 40.947 43.2396 40.947 43.0868C40.947 43.0358 40.9979 42.883 40.9979 42.7812C41.0489 42.6284 41.0998 42.5265 41.0998 42.4247C41.1507 42.3737 41.1507 42.3737 41.1507 42.3228C41.1507 42.2719 41.2017 42.2719 41.2017 42.2719C41.2526 42.2719 41.2526 42.2719 41.3035 42.2719C41.4054 42.2719 41.4563 42.2719 41.5072 42.3228C41.5582 42.3737 41.6091 42.4756 41.6091 42.5265C41.66 42.6284 41.711 42.7303 41.711 42.8321C41.7619 42.8321 41.7619 42.8321 41.7619 42.8321C41.8128 42.8321 41.8128 42.7812 41.8128 42.7812C41.8638 42.7303 41.9656 42.6284 41.9656 42.5775C42.0165 42.4756 42.0675 42.3228 42.0675 42.221C42.0675 42.17 42.0675 42.1191 42.0675 42.0172C42.0675 41.9663 42.0675 41.9663 42.0675 41.9154C42.0675 41.8644 42.0675 41.7116 42.0675 41.6098C42.0675 41.4061 42.0675 41.3042 42.0675 41.2533C42.0675 41.2023 42.0675 41.0495 42.0675 40.9986C42.0675 40.9477 42.0675 40.8968 42.0675 40.8458C42.1184 40.5402 42.2203 40.3365 42.3221 40.1837C42.3731 40.0309 42.5258 39.9291 42.6277 39.8781L43.3407 39.3688ZM44.3084 41.6098L44.1047 41.5589L43.6973 41.457C43.6463 41.457 43.5954 41.457 43.5954 41.457C43.5445 41.457 43.4935 41.5079 43.4426 41.5079C43.3917 41.5589 43.3917 41.6607 43.2898 41.7626C43.2389 41.8135 43.1879 41.9154 43.137 41.9663C43.137 42.0172 43.0861 42.17 43.0861 42.17C43.0861 42.221 43.0861 42.221 43.0861 42.221C43.2898 42.221 43.3917 42.221 43.5954 42.17C43.7482 42.1191 43.901 42.0172 44.0538 41.9154C44.1047 41.8644 44.1047 41.8135 44.1556 41.8135C44.2066 41.7116 44.3084 41.6098 44.3084 41.6098ZM35.09 42.6284L35.4465 42.1191H35.5484C35.6502 42.17 35.7521 42.2719 35.7521 42.3228C35.8539 42.4247 35.9558 42.4756 36.0577 42.5265H36.1086C36.1595 42.3737 36.3123 42.2719 36.4142 42.17H36.4651C36.567 42.221 36.6688 42.2719 36.7198 42.3737C36.7707 42.4247 36.8726 42.4756 37.0253 42.5775C37.0253 42.6284 37.0253 42.6284 37.0253 42.6284C36.9744 42.6793 36.9744 42.6793 36.8216 42.7812C36.7707 42.883 36.7707 42.9849 36.7198 42.9849C36.6688 43.0358 36.6179 43.0868 36.567 43.1886C36.516 43.1886 36.4651 43.1377 36.3632 43.1377C36.3632 43.1377 36.3123 43.0868 36.2614 43.0868C36.2105 43.0358 36.1595 43.0358 36.0577 42.9849C36.0067 42.934 36.0067 42.8321 35.9558 42.7812C35.9049 42.883 35.9049 42.934 35.7521 42.9849C35.7011 43.0358 35.5993 43.1377 35.5993 43.1886H35.5484C35.4974 43.1886 35.4974 43.1886 35.3956 43.1377C35.3446 43.0868 35.3446 43.0868 35.2937 43.0868C35.2428 43.0358 35.1918 42.9849 35.1409 42.934C35.1409 42.7812 35.09 42.6793 35.09 42.6284ZM40.234 41.5079C40.183 41.5589 40.0302 41.7116 40.0302 41.7116C40.0302 41.7626 39.9793 41.8644 39.9793 42.0172C39.9284 42.0682 39.8775 42.1191 39.7756 42.17C39.7247 42.221 39.6737 42.221 39.6228 42.3228C39.3681 42.6284 39.2154 42.8321 39.1644 42.934C38.9607 43.1377 38.757 43.2396 38.5533 43.2905H38.5023C38.4514 43.2905 38.3495 43.2905 38.3495 43.2905C38.3495 43.2905 38.3495 43.2396 38.4005 43.1886C38.4514 43.1377 38.4514 43.0358 38.4005 42.9849C38.4005 42.9849 38.3495 42.9849 38.2986 43.0358C38.2477 43.1377 38.1967 43.2396 38.1458 43.2905C38.0949 43.3414 37.993 43.3924 37.9421 43.4942C37.6365 43.647 37.3309 43.7489 36.9235 43.7998C36.6688 43.8507 36.2105 43.8507 35.803 43.8507C35.4465 43.8507 35.09 43.8507 34.8353 43.7998C34.5807 43.7998 34.326 43.6979 34.1223 43.5961C34.0714 43.5961 34.0204 43.5451 34.0204 43.4942C33.9695 43.4433 33.9695 43.3414 33.9695 43.2905C33.9695 43.2396 33.9695 43.2396 33.9695 43.1886C33.9695 43.1377 33.9695 43.1377 33.9695 43.0868C33.9695 43.0358 33.9186 42.9849 33.9186 42.9849C33.9186 42.9849 33.8676 42.9849 33.8167 43.0358C33.8167 43.1886 33.7658 43.3414 33.7658 43.4433C33.7658 43.4942 33.7658 43.647 33.7658 43.7489C33.7658 43.7998 33.7658 43.9017 33.7658 43.9526C33.7658 44.0035 33.8167 44.1054 33.8167 44.1563C33.8676 44.2582 33.9695 44.36 34.1223 44.411C34.1223 44.4619 34.2242 44.4619 34.4279 44.5128C34.6825 44.5128 34.9372 44.5638 35.1918 44.5638C35.4974 44.5638 35.7521 44.5638 36.0577 44.5128C36.2614 44.4619 36.567 44.4619 36.8216 44.411C37.1781 44.3091 37.4837 44.2072 37.6874 44.1054C37.993 43.9017 38.1967 43.6979 38.3495 43.3924C38.4005 43.4433 38.4005 43.4433 38.5023 43.4433C38.5533 43.4433 38.6042 43.4433 38.6551 43.4942C38.7061 43.4942 38.7061 43.4942 38.7061 43.4942C38.757 43.4942 38.9098 43.4433 38.9607 43.4433C39.0116 43.3924 39.1135 43.3924 39.2154 43.2396C39.2663 43.1377 39.4191 43.0358 39.47 42.8831C39.6228 42.7303 39.7247 42.5775 39.8775 42.5775C39.9284 42.5265 39.9284 42.5265 39.9793 42.5265C40.0303 42.5265 40.0812 42.5775 40.234 42.5775C40.2849 42.5775 40.3358 42.6284 40.3868 42.6284C40.4377 42.6284 40.5905 42.5775 40.6414 42.5265C40.6923 42.4756 40.6923 42.3737 40.7942 42.3228C40.7942 42.2719 40.8451 42.2719 40.8451 42.17C40.8451 42.1191 40.8451 42.0682 40.8451 42.0172C40.7942 41.9154 40.6923 41.8135 40.5905 41.7116C40.3868 41.7116 40.2849 41.6098 40.234 41.5079ZM29.0802 45.3277L29.5895 44.8693H29.6404C29.6913 44.9203 29.7423 45.0221 29.8441 45.0731C29.8951 45.1749 30.0479 45.2259 30.0988 45.2768C30.0988 45.2768 30.0988 45.3277 30.0479 45.3277L29.6404 45.6842C29.6404 45.7352 29.5895 45.7352 29.5895 45.7352C29.5385 45.7352 29.4876 45.7352 29.4876 45.6842C29.4367 45.6842 29.4367 45.6842 29.4367 45.6333C29.3858 45.5824 29.3348 45.5314 29.2839 45.4805C29.182 45.4805 29.1311 45.4296 29.0802 45.3277ZM32.3397 43.8507H32.3907C32.4416 43.9017 32.4925 43.9526 32.5944 44.0545C32.6453 44.1563 32.7981 44.2072 32.849 44.2582C32.7981 44.3091 32.7981 44.36 32.7472 44.411C32.6962 44.4619 32.6453 44.5638 32.5944 44.6147C32.5435 44.6147 32.5435 44.6656 32.5435 44.6656C32.4925 44.7166 32.4416 44.7165 32.3397 44.7165C32.2888 44.7165 32.1869 44.6656 32.136 44.6147C32.0851 44.5638 31.9323 44.411 31.9323 44.36L32.3397 43.8507ZM32.3397 43.3924C32.2379 43.5451 32.136 43.647 31.9832 43.7998C31.9323 43.7998 31.8304 43.7489 31.7795 43.647C31.6776 43.5961 31.6267 43.5961 31.5758 43.4942C31.5248 43.4433 31.5248 43.3924 31.5248 43.3414C31.5758 43.2905 31.6776 43.1886 31.7286 43.1377C31.7795 42.9849 31.8814 42.934 31.9323 42.8831H31.9832C32.1869 43.0358 32.2888 43.1377 32.2888 43.1377C32.3397 43.1886 32.3907 43.1886 32.4925 43.2905L32.7981 42.934H32.849C32.9 42.9849 33.0018 43.1377 33.0528 43.1377C33.1546 43.1886 33.2565 43.2396 33.3074 43.2905C33.3074 43.3414 33.3074 43.3414 33.3074 43.3414C33.3074 43.3414 33.3074 43.3924 33.2565 43.3924L32.9 43.7998L32.849 43.8507C32.7981 43.8507 32.7981 43.7998 32.7472 43.7998C32.6962 43.7998 32.6962 43.7489 32.6453 43.7489C32.5944 43.6979 32.5435 43.647 32.4925 43.5961C32.4416 43.5451 32.4416 43.4942 32.3397 43.3924ZM28.9783 43.3924C28.9783 43.8507 29.0292 44.0545 29.0292 44.1054C29.0802 44.36 29.233 44.5638 29.3858 44.6147C29.4367 44.6147 29.4876 44.6656 29.5895 44.6656C29.7423 44.6656 29.8951 44.6147 30.0479 44.5128C30.2006 44.411 30.3534 44.3091 30.4553 44.1054L31.1683 43.1377V42.9849C31.1683 42.934 31.1174 42.934 31.1174 42.934C30.71 42.934 30.3534 42.8831 29.9969 42.8831C29.9969 42.8831 29.9969 42.8321 30.0479 42.7812C30.1497 42.6284 30.3534 42.5775 30.5062 42.4756C30.71 42.3737 30.8627 42.3228 31.0665 42.3228C31.1174 42.3228 31.1683 42.3737 31.2702 42.4756C31.3721 42.5265 31.4739 42.5265 31.4739 42.5265H31.5248C31.6776 42.4756 31.7795 42.3737 31.8814 42.221C31.9832 42.1191 32.0851 41.9663 32.1869 41.8644C32.2379 41.8135 32.2379 41.7626 32.1869 41.7626C32.136 41.7626 32.136 41.7626 32.136 41.7626C32.0851 41.8135 32.0341 41.8644 31.9323 41.9663C31.8304 42.1191 31.7286 42.17 31.5758 42.17C31.5248 42.17 31.5248 42.17 31.5248 42.17C31.4739 42.1191 31.3721 42.0172 31.2702 41.9663C31.1683 41.9663 31.0665 42.0172 30.9137 42.0172C30.8627 42.0172 30.6081 42.17 30.4553 42.221C30.2516 42.3737 30.0988 42.5265 29.946 42.5775C29.8441 42.7303 29.7423 42.8831 29.6913 43.1377L29.7423 43.1886H29.7932C30.0988 43.2396 30.4553 43.2396 30.7609 43.2396C30.71 43.2905 30.71 43.3924 30.5572 43.4433C30.5572 43.4942 30.5062 43.5451 30.3534 43.647C30.3025 43.6979 30.1497 43.7489 30.0479 43.8507C29.946 43.8507 29.8441 43.9017 29.7423 43.9017C29.6404 43.9017 29.4876 43.8507 29.4367 43.7489C29.3348 43.6979 29.2839 43.5451 29.233 43.4433C29.233 43.2905 29.233 43.1377 29.182 42.934V41.9154C29.182 41.5589 29.233 41.2023 29.2839 40.7949C29.2839 40.744 29.233 40.744 29.233 40.744C29.182 40.744 29.182 40.7949 29.1311 40.7949C29.1311 40.7949 29.0802 40.9477 29.0292 41.2023C28.9783 41.2533 28.9783 41.3551 28.9783 41.457C28.9783 41.5079 28.9783 41.6607 28.9783 41.7116C28.9783 41.8135 28.9783 41.9154 28.9783 41.9663V42.5265V43.3924ZM30.4553 40.7949L30.9137 40.3365H30.9646C31.1174 40.4384 31.2193 40.5402 31.2702 40.6421C31.2702 40.693 31.3211 40.693 31.372 40.693C31.423 40.744 31.423 40.744 31.423 40.744C31.2702 40.8968 31.1174 41.0495 30.9646 41.2023C30.9646 41.2023 30.9137 41.2023 30.9137 41.1514C30.8627 41.1514 30.8627 41.1005 30.8118 41.1005C30.7609 41.0495 30.659 40.9986 30.6081 40.9477C30.5062 40.8968 30.4553 40.8458 30.4553 40.7949ZM24.8529 43.9526L24.9039 43.9017C25.0567 43.7998 25.2604 43.647 25.4641 43.5451H25.515C25.566 43.6979 25.8206 43.9017 25.8715 44.1054V44.1563C25.8206 44.1563 25.7188 44.2582 25.6169 44.3091C25.515 44.36 25.4132 44.411 25.3113 44.5128C25.2604 44.5128 25.1585 44.5128 25.1585 44.4619C25.1076 44.411 25.0567 44.36 25.0567 44.36C25.0057 44.3091 24.9548 44.1563 24.9039 44.1054C24.9039 44.0035 24.8529 43.9526 24.8529 43.9526ZM28.6218 42.6284C28.6727 42.6284 28.6727 42.6284 28.6218 42.6284C28.6218 42.5775 28.5709 42.5775 28.5709 42.6284C28.469 42.6284 28.3162 42.8321 28.2653 42.8321C28.1125 42.883 28.0106 42.8831 27.9088 42.8831C27.6032 42.8831 27.2976 42.8321 26.992 42.8321C26.6864 42.7812 26.3299 42.7303 26.0243 42.5775C25.6169 42.4756 25.3113 42.3737 25.0057 42.2719C24.8529 42.17 24.5474 42.0172 24.3946 41.8644C24.3946 41.8135 24.3436 41.8135 24.2927 41.7116C24.2927 41.6607 24.3436 41.5589 24.3436 41.5079L24.3946 41.3551C24.3946 41.3551 24.3946 41.3042 24.4455 41.2533C24.4455 41.2023 24.3946 41.2023 24.3946 41.2023H24.3436C24.3436 41.2023 24.3436 41.2023 24.2927 41.2023C24.2418 41.4061 24.1908 41.5079 24.089 41.6098C24.089 41.7116 24.038 41.8135 23.9871 41.9154C23.9871 41.9663 23.9362 42.0172 23.9362 42.1191C23.9362 42.17 23.8853 42.221 23.8853 42.3228C23.9362 42.3737 23.9362 42.4756 23.9362 42.5265C24.038 42.6284 24.1399 42.6793 24.2418 42.7812C24.4964 42.883 24.8529 43.0868 25.2094 43.1377C25.515 43.2396 25.9225 43.3414 26.279 43.3414C26.5846 43.4433 26.992 43.4433 27.2467 43.4942C27.5523 43.4942 27.8069 43.4433 28.1125 43.2396C28.3162 43.1377 28.5199 42.934 28.6218 42.6284Z" fill="#074826"/>
<path d="M87.892 17.444H82.654L81.754 20H79.612L84.094 7.472H86.47L90.952 20H88.792L87.892 17.444ZM87.316 15.77L85.282 9.956L83.23 15.77H87.316ZM100.929 11.216C100.929 11.852 100.779 12.452 100.479 13.016C100.179 13.58 99.6988 14.042 99.0388 14.402C98.3788 14.75 97.5328 14.924 96.5008 14.924H94.2328V20H92.1808V7.49H96.5008C97.4608 7.49 98.2708 7.658 98.9308 7.994C99.6028 8.318 100.101 8.762 100.425 9.326C100.761 9.89 100.929 10.52 100.929 11.216ZM96.5008 13.25C97.2808 13.25 97.8628 13.076 98.2468 12.728C98.6308 12.368 98.8228 11.864 98.8228 11.216C98.8228 9.848 98.0488 9.164 96.5008 9.164H94.2328V13.25H96.5008ZM112.444 20H110.392L104.218 10.658V20H102.166V7.472H104.218L110.392 16.796V7.472H112.444V20ZM116.471 7.49V20H114.419V7.49H116.471ZM124.38 18.218H130.194V20H121.95V18.398L127.746 9.272H121.95V7.49H130.194V9.092L124.38 18.218ZM139.26 17.444H134.022L133.122 20H130.98L135.462 7.472H137.838L142.32 20H140.16L139.26 17.444ZM138.684 15.77L136.65 9.956L134.598 15.77H138.684ZM156.724 7.49V20H154.672V11.432L150.856 20H149.434L145.6 11.432V20H143.548V7.49H145.762L150.154 17.3L154.528 7.49H156.724ZM160.753 9.146V12.818H165.073V14.492H160.753V18.326H165.613V20H158.701V7.472H165.613V9.146H160.753ZM169.473 9.146V12.818H173.793V14.492H169.473V18.326H174.333V20H167.421V7.472H174.333V9.146H169.473ZM186.418 20H184.366L178.192 10.658V20H176.14V7.472H178.192L184.366 16.796V7.472H186.418V20ZM199.891 17.444H194.653L193.753 20H191.611L196.093 7.472H198.469L202.951 20H200.791L199.891 17.444ZM199.315 15.77L197.281 9.956L195.229 15.77H199.315ZM212.927 11.216C212.927 11.852 212.777 12.452 212.477 13.016C212.177 13.58 211.697 14.042 211.037 14.402C210.377 14.75 209.531 14.924 208.499 14.924H206.231V20H204.179V7.49H208.499C209.459 7.49 210.269 7.658 210.929 7.994C211.601 8.318 212.099 8.762 212.423 9.326C212.759 9.89 212.927 10.52 212.927 11.216ZM208.499 13.25C209.279 13.25 209.861 13.076 210.245 12.728C210.629 12.368 210.821 11.864 210.821 11.216C210.821 9.848 210.047 9.164 208.499 9.164H206.231V13.25H208.499ZM224.443 20H222.391L216.217 10.658V20H214.165V7.472H216.217L222.391 16.796V7.472H224.443V20ZM233.959 17.444H228.721L227.821 20H225.679L230.161 7.472H232.537L237.019 20H234.859L233.959 17.444ZM233.383 15.77L231.349 9.956L229.297 15.77H233.383ZM251.258 11.09C250.934 10.466 250.484 9.998 249.908 9.686C249.332 9.362 248.666 9.2 247.91 9.2C247.082 9.2 246.344 9.386 245.696 9.758C245.048 10.13 244.538 10.658 244.166 11.342C243.806 12.026 243.626 12.818 243.626 13.718C243.626 14.618 243.806 15.416 244.166 16.112C244.538 16.796 245.048 17.324 245.696 17.696C246.344 18.068 247.082 18.254 247.91 18.254C249.026 18.254 249.932 17.942 250.628 17.318C251.324 16.694 251.75 15.848 251.906 14.78H247.208V13.142H254.102V14.744C253.97 15.716 253.622 16.61 253.058 17.426C252.506 18.242 251.78 18.896 250.88 19.388C249.992 19.868 249.002 20.108 247.91 20.108C246.734 20.108 245.66 19.838 244.688 19.298C243.716 18.746 242.942 17.984 242.366 17.012C241.802 16.04 241.52 14.942 241.52 13.718C241.52 12.494 241.802 11.396 242.366 10.424C242.942 9.452 243.716 8.696 244.688 8.156C245.672 7.604 246.746 7.328 247.91 7.328C249.242 7.328 250.424 7.658 251.456 8.318C252.5 8.966 253.256 9.89 253.724 11.09H251.258ZM265.396 7.49V20H263.344V14.528H257.458V20H255.406V7.49H257.458V12.854H263.344V7.49H265.396ZM274.919 17.444H269.681L268.781 20H266.639L271.121 7.472H273.497L277.979 20H275.819L274.919 17.444ZM274.343 15.77L272.309 9.956L270.257 15.77H274.343ZM285.706 20L282.826 14.996H281.26V20H279.208V7.49H283.528C284.488 7.49 285.298 7.658 285.958 7.994C286.63 8.33 287.128 8.78 287.452 9.344C287.788 9.908 287.956 10.538 287.956 11.234C287.956 12.05 287.716 12.794 287.236 13.466C286.768 14.126 286.042 14.576 285.058 14.816L288.154 20H285.706ZM281.26 13.358H283.528C284.296 13.358 284.872 13.166 285.256 12.782C285.652 12.398 285.85 11.882 285.85 11.234C285.85 10.586 285.658 10.082 285.274 9.722C284.89 9.35 284.308 9.164 283.528 9.164H281.26V13.358Z" fill="#074826"/>
<path d="M86.164 46.288C86.164 46.776 86.052 47.224 85.828 47.632C85.604 48.032 85.26 48.356 84.796 48.604C84.332 48.852 83.756 48.976 83.068 48.976H81.796V52H79.744V43.576H83.068C83.74 43.576 84.308 43.692 84.772 43.924C85.236 44.156 85.584 44.476 85.816 44.884C86.048 45.292 86.164 45.76 86.164 46.288ZM82.912 47.344C83.304 47.344 83.596 47.252 83.788 47.068C83.98 46.884 84.076 46.624 84.076 46.288C84.076 45.952 83.98 45.692 83.788 45.508C83.596 45.324 83.304 45.232 82.912 45.232H81.796V47.344H82.912ZM89.2483 43.576V48.616C89.2483 49.12 89.3723 49.508 89.6203 49.78C89.8683 50.052 90.2323 50.188 90.7123 50.188C91.1923 50.188 91.5603 50.052 91.8163 49.78C92.0723 49.508 92.2003 49.12 92.2003 48.616V43.576H94.2523V48.604C94.2523 49.356 94.0923 49.992 93.7723 50.512C93.4523 51.032 93.0203 51.424 92.4763 51.688C91.9403 51.952 91.3403 52.084 90.6763 52.084C90.0123 52.084 89.4163 51.956 88.8883 51.7C88.3683 51.436 87.9563 51.044 87.6523 50.524C87.3483 49.996 87.1963 49.356 87.1963 48.604V43.576H89.2483ZM103.229 52H101.177L97.7452 46.804V52H95.6932V43.576H97.7452L101.177 48.796V43.576H103.229V52ZM109.997 43.576V49.312C109.997 50.2 109.745 50.884 109.241 51.364C108.745 51.844 108.073 52.084 107.225 52.084C106.337 52.084 105.625 51.832 105.089 51.328C104.553 50.824 104.285 50.108 104.285 49.18H106.325C106.325 49.532 106.397 49.8 106.541 49.984C106.685 50.16 106.893 50.248 107.165 50.248C107.413 50.248 107.605 50.168 107.741 50.008C107.877 49.848 107.945 49.616 107.945 49.312V43.576H109.997ZM116.898 50.512H113.754L113.25 52H111.102L114.15 43.576H116.526L119.574 52H117.402L116.898 50.512ZM116.37 48.928L115.326 45.844L114.294 48.928H116.37ZM125.602 47.68C126.09 47.784 126.482 48.028 126.778 48.412C127.074 48.788 127.222 49.22 127.222 49.708C127.222 50.412 126.974 50.972 126.478 51.388C125.99 51.796 125.306 52 124.426 52H120.502V43.576H124.294C125.15 43.576 125.818 43.772 126.298 44.164C126.786 44.556 127.03 45.088 127.03 45.76C127.03 46.256 126.898 46.668 126.634 46.996C126.378 47.324 126.034 47.552 125.602 47.68ZM122.554 46.984H123.898C124.234 46.984 124.49 46.912 124.666 46.768C124.85 46.616 124.942 46.396 124.942 46.108C124.942 45.82 124.85 45.6 124.666 45.448C124.49 45.296 124.234 45.22 123.898 45.22H122.554V46.984ZM124.066 50.344C124.41 50.344 124.674 50.268 124.858 50.116C125.05 49.956 125.146 49.728 125.146 49.432C125.146 49.136 125.046 48.904 124.846 48.736C124.654 48.568 124.386 48.484 124.042 48.484H122.554V50.344H124.066ZM138.251 43.576V52H136.199V48.532H133.007V52H130.955V43.576H133.007V46.876H136.199V43.576H138.251ZM143.716 52.084C142.924 52.084 142.196 51.9 141.532 51.532C140.876 51.164 140.352 50.652 139.96 49.996C139.576 49.332 139.384 48.588 139.384 47.764C139.384 46.94 139.576 46.2 139.96 45.544C140.352 44.888 140.876 44.376 141.532 44.008C142.196 43.64 142.924 43.456 143.716 43.456C144.508 43.456 145.232 43.64 145.888 44.008C146.552 44.376 147.072 44.888 147.448 45.544C147.832 46.2 148.024 46.94 148.024 47.764C148.024 48.588 147.832 49.332 147.448 49.996C147.064 50.652 146.544 51.164 145.888 51.532C145.232 51.9 144.508 52.084 143.716 52.084ZM143.716 50.212C144.388 50.212 144.924 49.988 145.324 49.54C145.732 49.092 145.936 48.5 145.936 47.764C145.936 47.02 145.732 46.428 145.324 45.988C144.924 45.54 144.388 45.316 143.716 45.316C143.036 45.316 142.492 45.536 142.084 45.976C141.684 46.416 141.484 47.012 141.484 47.764C141.484 48.508 141.684 49.104 142.084 49.552C142.492 49.992 143.036 50.212 143.716 50.212ZM151.182 43.576V48.616C151.182 49.12 151.306 49.508 151.554 49.78C151.802 50.052 152.166 50.188 152.646 50.188C153.126 50.188 153.494 50.052 153.75 49.78C154.006 49.508 154.134 49.12 154.134 48.616V43.576H156.186V48.604C156.186 49.356 156.026 49.992 155.706 50.512C155.386 51.032 154.954 51.424 154.41 51.688C153.874 51.952 153.274 52.084 152.61 52.084C151.946 52.084 151.35 51.956 150.822 51.7C150.302 51.436 149.89 51.044 149.586 50.524C149.282 49.996 149.13 49.356 149.13 48.604V43.576H151.182ZM160.675 52.084C160.059 52.084 159.507 51.984 159.019 51.784C158.531 51.584 158.139 51.288 157.843 50.896C157.555 50.504 157.403 50.032 157.387 49.48H159.571C159.603 49.792 159.711 50.032 159.895 50.2C160.079 50.36 160.319 50.44 160.615 50.44C160.919 50.44 161.159 50.372 161.335 50.236C161.511 50.092 161.599 49.896 161.599 49.648C161.599 49.44 161.527 49.268 161.383 49.132C161.247 48.996 161.075 48.884 160.867 48.796C160.667 48.708 160.379 48.608 160.003 48.496C159.459 48.328 159.015 48.16 158.671 47.992C158.327 47.824 158.031 47.576 157.783 47.248C157.535 46.92 157.411 46.492 157.411 45.964C157.411 45.18 157.695 44.568 158.263 44.128C158.831 43.68 159.571 43.456 160.483 43.456C161.411 43.456 162.159 43.68 162.727 44.128C163.295 44.568 163.599 45.184 163.639 45.976H161.419C161.403 45.704 161.303 45.492 161.119 45.34C160.935 45.18 160.699 45.1 160.411 45.1C160.163 45.1 159.963 45.168 159.811 45.304C159.659 45.432 159.583 45.62 159.583 45.868C159.583 46.14 159.711 46.352 159.967 46.504C160.223 46.656 160.623 46.82 161.167 46.996C161.711 47.18 162.151 47.356 162.487 47.524C162.831 47.692 163.127 47.936 163.375 48.256C163.623 48.576 163.747 48.988 163.747 49.492C163.747 49.972 163.623 50.408 163.375 50.8C163.135 51.192 162.783 51.504 162.319 51.736C161.855 51.968 161.307 52.084 160.675 52.084ZM167.062 43.576V52H165.01V43.576H167.062ZM176.085 52H174.033L170.601 46.804V52H168.549V43.576H170.601L174.033 48.796V43.576H176.085V52ZM183.164 46.24C183.012 45.96 182.792 45.748 182.504 45.604C182.224 45.452 181.892 45.376 181.508 45.376C180.844 45.376 180.312 45.596 179.912 46.036C179.512 46.468 179.312 47.048 179.312 47.776C179.312 48.552 179.52 49.16 179.936 49.6C180.36 50.032 180.94 50.248 181.676 50.248C182.18 50.248 182.604 50.12 182.948 49.864C183.3 49.608 183.556 49.24 183.716 48.76H181.112V47.248H185.576V49.156C185.424 49.668 185.164 50.144 184.796 50.584C184.436 51.024 183.976 51.38 183.416 51.652C182.856 51.924 182.224 52.06 181.52 52.06C180.688 52.06 179.944 51.88 179.288 51.52C178.64 51.152 178.132 50.644 177.764 49.996C177.404 49.348 177.224 48.608 177.224 47.776C177.224 46.944 177.404 46.204 177.764 45.556C178.132 44.9 178.64 44.392 179.288 44.032C179.936 43.664 180.676 43.48 181.508 43.48C182.516 43.48 183.364 43.724 184.052 44.212C184.748 44.7 185.208 45.376 185.432 46.24H183.164ZM194.5 50.512H191.356L190.852 52H188.704L191.752 43.576H194.128L197.176 52H195.004L194.5 50.512ZM193.972 48.928L192.928 45.844L191.896 48.928H193.972ZM205.639 52H203.587L200.155 46.804V52H198.103V43.576H200.155L203.587 48.796V43.576H205.639V52ZM210.283 43.576C211.171 43.576 211.947 43.752 212.611 44.104C213.275 44.456 213.787 44.952 214.147 45.592C214.515 46.224 214.699 46.956 214.699 47.788C214.699 48.612 214.515 49.344 214.147 49.984C213.787 50.624 213.271 51.12 212.599 51.472C211.935 51.824 211.163 52 210.283 52H207.127V43.576H210.283ZM210.151 50.224C210.927 50.224 211.531 50.012 211.963 49.588C212.395 49.164 212.611 48.564 212.611 47.788C212.611 47.012 212.395 46.408 211.963 45.976C211.531 45.544 210.927 45.328 210.151 45.328H209.179V50.224H210.151ZM224.449 43.576V45.22H222.217V52H220.165V45.22H217.933V43.576H224.449ZM229.462 52.084C228.67 52.084 227.942 51.9 227.278 51.532C226.622 51.164 226.098 50.652 225.706 49.996C225.322 49.332 225.13 48.588 225.13 47.764C225.13 46.94 225.322 46.2 225.706 45.544C226.098 44.888 226.622 44.376 227.278 44.008C227.942 43.64 228.67 43.456 229.462 43.456C230.254 43.456 230.978 43.64 231.634 44.008C232.298 44.376 232.818 44.888 233.194 45.544C233.578 46.2 233.77 46.94 233.77 47.764C233.77 48.588 233.578 49.332 233.194 49.996C232.81 50.652 232.29 51.164 231.634 51.532C230.978 51.9 230.254 52.084 229.462 52.084ZM229.462 50.212C230.134 50.212 230.67 49.988 231.07 49.54C231.478 49.092 231.682 48.5 231.682 47.764C231.682 47.02 231.478 46.428 231.07 45.988C230.67 45.54 230.134 45.316 229.462 45.316C228.782 45.316 228.238 45.536 227.83 45.976C227.43 46.416 227.23 47.012 227.23 47.764C227.23 48.508 227.43 49.104 227.83 49.552C228.238 49.992 228.782 50.212 229.462 50.212ZM246.504 43.576L244.308 52H241.824L240.48 46.456L239.088 52H236.604L234.468 43.576H236.664L237.876 49.708L239.376 43.576H241.632L243.072 49.708L244.296 43.576H246.504ZM255.069 52H253.017L249.585 46.804V52H247.533V43.576H249.585L253.017 48.796V43.576H255.069V52ZM265.519 46.288C265.519 46.776 265.407 47.224 265.183 47.632C264.959 48.032 264.615 48.356 264.151 48.604C263.687 48.852 263.111 48.976 262.423 48.976H261.151V52H259.099V43.576H262.423C263.095 43.576 263.663 43.692 264.127 43.924C264.591 44.156 264.939 44.476 265.171 44.884C265.403 45.292 265.519 45.76 265.519 46.288ZM262.267 47.344C262.659 47.344 262.951 47.252 263.143 47.068C263.335 46.884 263.431 46.624 263.431 46.288C263.431 45.952 263.335 45.692 263.143 45.508C262.951 45.324 262.659 45.232 262.267 45.232H261.151V47.344H262.267ZM268.64 50.416H271.328V52H266.588V43.576H268.64V50.416ZM277.551 50.512H274.407L273.903 52H271.755L274.803 43.576H277.179L280.227 52H278.055L277.551 50.512ZM277.023 48.928L275.979 45.844L274.947 48.928H277.023ZM288.69 52H286.638L283.206 46.804V52H281.154V43.576H283.206L286.638 48.796V43.576H288.69V52ZM297.714 52H295.662L292.23 46.804V52H290.178V43.576H292.23L295.662 48.796V43.576H297.714V52ZM301.253 43.576V52H299.201V43.576H301.253ZM310.276 52H308.224L304.792 46.804V52H302.74V43.576H304.792L308.224 48.796V43.576H310.276V52ZM317.356 46.24C317.204 45.96 316.984 45.748 316.696 45.604C316.416 45.452 316.084 45.376 315.7 45.376C315.036 45.376 314.504 45.596 314.104 46.036C313.704 46.468 313.504 47.048 313.504 47.776C313.504 48.552 313.712 49.16 314.128 49.6C314.552 50.032 315.132 50.248 315.868 50.248C316.372 50.248 316.796 50.12 317.14 49.864C317.492 49.608 317.748 49.24 317.908 48.76H315.304V47.248H319.768V49.156C319.616 49.668 319.356 50.144 318.988 50.584C318.628 51.024 318.168 51.38 317.608 51.652C317.048 51.924 316.416 52.06 315.712 52.06C314.88 52.06 314.136 51.88 313.48 51.52C312.832 51.152 312.324 50.644 311.956 49.996C311.596 49.348 311.416 48.608 311.416 47.776C311.416 46.944 311.596 46.204 311.956 45.556C312.324 44.9 312.832 44.392 313.48 44.032C314.128 43.664 314.868 43.48 315.7 43.48C316.708 43.48 317.556 43.724 318.244 44.212C318.94 44.7 319.4 45.376 319.624 46.24H317.356ZM328.691 50.512H325.547L325.043 52H322.895L325.943 43.576H328.319L331.367 52H329.195L328.691 50.512ZM328.163 48.928L327.119 45.844L326.087 48.928H328.163ZM337.887 46.24C337.735 45.96 337.515 45.748 337.227 45.604C336.947 45.452 336.615 45.376 336.231 45.376C335.567 45.376 335.035 45.596 334.635 46.036C334.235 46.468 334.035 47.048 334.035 47.776C334.035 48.552 334.243 49.16 334.659 49.6C335.083 50.032 335.663 50.248 336.399 50.248C336.903 50.248 337.327 50.12 337.671 49.864C338.023 49.608 338.279 49.24 338.439 48.76H335.835V47.248H340.299V49.156C340.147 49.668 339.887 50.144 339.519 50.584C339.159 51.024 338.699 51.38 338.139 51.652C337.579 51.924 336.947 52.06 336.243 52.06C335.411 52.06 334.667 51.88 334.011 51.52C333.363 51.152 332.855 50.644 332.487 49.996C332.127 49.348 331.947 48.608 331.947 47.776C331.947 46.944 332.127 46.204 332.487 45.556C332.855 44.9 333.363 44.392 334.011 44.032C334.659 43.664 335.399 43.48 336.231 43.48C337.239 43.48 338.087 43.724 338.775 44.212C339.471 44.7 339.931 45.376 340.155 46.24H337.887ZM343.487 45.22V46.924H346.235V48.508H343.487V50.356H346.595V52H341.435V43.576H346.595V45.22H343.487ZM355.464 52H353.412L349.98 46.804V52H347.928V43.576H349.98L353.412 48.796V43.576H355.464V52ZM356.603 47.776C356.603 46.944 356.783 46.204 357.143 45.556C357.503 44.9 358.003 44.392 358.643 44.032C359.291 43.664 360.023 43.48 360.839 43.48C361.839 43.48 362.695 43.744 363.407 44.272C364.119 44.8 364.595 45.52 364.835 46.432H362.579C362.411 46.08 362.171 45.812 361.859 45.628C361.555 45.444 361.207 45.352 360.815 45.352C360.183 45.352 359.671 45.572 359.279 46.012C358.887 46.452 358.691 47.04 358.691 47.776C358.691 48.512 358.887 49.1 359.279 49.54C359.671 49.98 360.183 50.2 360.815 50.2C361.207 50.2 361.555 50.108 361.859 49.924C362.171 49.74 362.411 49.472 362.579 49.12H364.835C364.595 50.032 364.119 50.752 363.407 51.28C362.695 51.8 361.839 52.06 360.839 52.06C360.023 52.06 359.291 51.88 358.643 51.52C358.003 51.152 357.503 50.644 357.143 49.996C356.783 49.348 356.603 48.608 356.603 47.776ZM373.316 43.576L370.4 49.216V52H368.348V49.216L365.432 43.576H367.76L369.392 47.104L371.012 43.576H373.316Z" fill="#074826"/>
<path d="M86.26 30.06C86.028 29.572 85.692 29.196 85.252 28.932C84.812 28.66 84.3 28.524 83.716 28.524C83.132 28.524 82.604 28.66 82.132 28.932C81.668 29.196 81.3 29.58 81.028 30.084C80.764 30.58 80.632 31.156 80.632 31.812C80.632 32.468 80.764 33.044 81.028 33.54C81.3 34.036 81.668 34.42 82.132 34.692C82.604 34.956 83.132 35.088 83.716 35.088C84.532 35.088 85.204 34.844 85.732 34.356C86.26 33.868 86.568 33.208 86.656 32.376H83.32V31.488H87.82V32.328C87.756 33.016 87.54 33.648 87.172 34.224C86.804 34.792 86.32 35.244 85.72 35.58C85.12 35.908 84.452 36.072 83.716 36.072C82.94 36.072 82.232 35.892 81.592 35.532C80.952 35.164 80.444 34.656 80.068 34.008C79.7 33.36 79.516 32.628 79.516 31.812C79.516 30.996 79.7 30.264 80.068 29.616C80.444 28.96 80.952 28.452 81.592 28.092C82.232 27.724 82.94 27.54 83.716 27.54C84.604 27.54 85.388 27.76 86.068 28.2C86.756 28.64 87.256 29.26 87.568 30.06H86.26ZM93.0558 36.084C92.2798 36.084 91.5718 35.904 90.9318 35.544C90.2918 35.176 89.7838 34.668 89.4078 34.02C89.0398 33.364 88.8558 32.628 88.8558 31.812C88.8558 30.996 89.0398 30.264 89.4078 29.616C89.7838 28.96 90.2918 28.452 90.9318 28.092C91.5718 27.724 92.2798 27.54 93.0558 27.54C93.8398 27.54 94.5518 27.724 95.1918 28.092C95.8318 28.452 96.3358 28.956 96.7038 29.604C97.0718 30.252 97.2558 30.988 97.2558 31.812C97.2558 32.636 97.0718 33.372 96.7038 34.02C96.3358 34.668 95.8318 35.176 95.1918 35.544C94.5518 35.904 93.8398 36.084 93.0558 36.084ZM93.0558 35.136C93.6398 35.136 94.1638 35 94.6278 34.728C95.0998 34.456 95.4678 34.068 95.7318 33.564C96.0038 33.06 96.1398 32.476 96.1398 31.812C96.1398 31.14 96.0038 30.556 95.7318 30.06C95.4678 29.556 95.1038 29.168 94.6398 28.896C94.1758 28.624 93.6478 28.488 93.0558 28.488C92.4638 28.488 91.9358 28.624 91.4718 28.896C91.0078 29.168 90.6398 29.556 90.3678 30.06C90.1038 30.556 89.9718 31.14 89.9718 31.812C89.9718 32.476 90.1038 33.06 90.3678 33.564C90.6398 34.068 91.0078 34.456 91.4718 34.728C91.9438 35 92.4718 35.136 93.0558 35.136ZM105.609 27.636L102.453 36H101.193L98.0374 27.636H99.2014L101.829 34.848L104.457 27.636H105.609ZM107.899 28.524V31.32H110.947V32.22H107.899V35.1H111.307V36H106.807V27.624H111.307V28.524H107.899ZM117.363 36L115.371 32.58H114.051V36H112.959V27.636H115.659C116.291 27.636 116.823 27.744 117.255 27.96C117.695 28.176 118.023 28.468 118.239 28.836C118.455 29.204 118.563 29.624 118.563 30.096C118.563 30.672 118.395 31.18 118.059 31.62C117.731 32.06 117.235 32.352 116.571 32.496L118.671 36H117.363ZM114.051 31.704H115.659C116.251 31.704 116.695 31.56 116.991 31.272C117.287 30.976 117.435 30.584 117.435 30.096C117.435 29.6 117.287 29.216 116.991 28.944C116.703 28.672 116.259 28.536 115.659 28.536H114.051V31.704ZM126.836 36H125.744L121.352 29.34V36H120.26V27.624H121.352L125.744 34.272V27.624H126.836V36ZM137.181 27.696V36H136.089V29.808L133.329 36H132.561L129.789 29.796V36H128.697V27.696H129.873L132.945 34.56L136.017 27.696H137.181ZM140.125 28.524V31.32H143.173V32.22H140.125V35.1H143.533V36H139.033V27.624H143.533V28.524H140.125ZM151.762 36H150.67L146.278 29.34V36H145.186V27.624H146.278L150.67 34.272V27.624H151.762V36ZM158.771 27.636V28.524H156.491V36H155.399V28.524H153.107V27.636H158.771ZM167.107 36.084C166.331 36.084 165.623 35.904 164.983 35.544C164.343 35.176 163.835 34.668 163.459 34.02C163.091 33.364 162.907 32.628 162.907 31.812C162.907 30.996 163.091 30.264 163.459 29.616C163.835 28.96 164.343 28.452 164.983 28.092C165.623 27.724 166.331 27.54 167.107 27.54C167.891 27.54 168.603 27.724 169.243 28.092C169.883 28.452 170.387 28.956 170.755 29.604C171.123 30.252 171.307 30.988 171.307 31.812C171.307 32.636 171.123 33.372 170.755 34.02C170.387 34.668 169.883 35.176 169.243 35.544C168.603 35.904 167.891 36.084 167.107 36.084ZM167.107 35.136C167.691 35.136 168.215 35 168.679 34.728C169.151 34.456 169.519 34.068 169.783 33.564C170.055 33.06 170.191 32.476 170.191 31.812C170.191 31.14 170.055 30.556 169.783 30.06C169.519 29.556 169.155 29.168 168.691 28.896C168.227 28.624 167.699 28.488 167.107 28.488C166.515 28.488 165.987 28.624 165.523 28.896C165.059 29.168 164.691 29.556 164.419 30.06C164.155 30.556 164.023 31.14 164.023 31.812C164.023 32.476 164.155 33.06 164.419 33.564C164.691 34.068 165.059 34.456 165.523 34.728C165.995 35 166.523 35.136 167.107 35.136ZM177.476 27.636V28.524H173.84V31.344H176.792V32.232H173.84V36H172.748V27.636H177.476ZM187.142 27.636V28.524H184.862V36H183.77V28.524H181.478V27.636H187.142ZM194.931 27.636V36H193.839V32.208H189.579V36H188.487V27.636H189.579V31.308H193.839V27.636H194.931ZM197.887 28.524V31.32H200.935V32.22H197.887V35.1H201.295V36H196.795V27.624H201.295V28.524H197.887ZM211.739 30.084C211.739 30.78 211.499 31.36 211.019 31.824C210.547 32.28 209.823 32.508 208.847 32.508H207.239V36H206.147V27.636H208.847C209.791 27.636 210.507 27.864 210.995 28.32C211.491 28.776 211.739 29.364 211.739 30.084ZM208.847 31.608C209.455 31.608 209.903 31.476 210.191 31.212C210.479 30.948 210.623 30.572 210.623 30.084C210.623 29.052 210.031 28.536 208.847 28.536H207.239V31.608H208.847ZM214.164 27.636V32.928C214.164 33.672 214.344 34.224 214.704 34.584C215.072 34.944 215.58 35.124 216.228 35.124C216.868 35.124 217.368 34.944 217.728 34.584C218.096 34.224 218.28 33.672 218.28 32.928V27.636H219.372V32.916C219.372 33.612 219.232 34.2 218.952 34.68C218.672 35.152 218.292 35.504 217.812 35.736C217.34 35.968 216.808 36.084 216.216 36.084C215.624 36.084 215.088 35.968 214.608 35.736C214.136 35.504 213.76 35.152 213.48 34.68C213.208 34.2 213.072 33.612 213.072 32.916V27.636H214.164ZM227.77 36H226.678L222.286 29.34V36H221.194V27.624H222.286L226.678 34.272V27.624H227.77V36ZM233.843 27.636V33.816C233.843 34.504 233.631 35.056 233.207 35.472C232.783 35.88 232.223 36.084 231.527 36.084C230.823 36.084 230.259 35.876 229.835 35.46C229.411 35.036 229.199 34.46 229.199 33.732H230.291C230.299 34.14 230.403 34.472 230.603 34.728C230.811 34.984 231.119 35.112 231.527 35.112C231.935 35.112 232.239 34.992 232.439 34.752C232.639 34.504 232.739 34.192 232.739 33.816V27.636H233.843ZM240.938 34.14H237.29L236.618 36H235.466L238.49 27.684H239.75L242.762 36H241.61L240.938 34.14ZM240.626 33.252L239.114 29.028L237.602 33.252H240.626ZM248.268 31.692C248.572 31.74 248.848 31.864 249.096 32.064C249.352 32.264 249.552 32.512 249.696 32.808C249.848 33.104 249.924 33.42 249.924 33.756C249.924 34.18 249.816 34.564 249.6 34.908C249.384 35.244 249.068 35.512 248.652 35.712C248.244 35.904 247.76 36 247.2 36H244.08V27.636H247.08C247.648 27.636 248.132 27.732 248.532 27.924C248.932 28.108 249.232 28.36 249.432 28.68C249.632 29 249.732 29.36 249.732 29.76C249.732 30.256 249.596 30.668 249.324 30.996C249.06 31.316 248.708 31.548 248.268 31.692ZM245.172 31.248H247.008C247.52 31.248 247.916 31.128 248.196 30.888C248.476 30.648 248.616 30.316 248.616 29.892C248.616 29.468 248.476 29.136 248.196 28.896C247.916 28.656 247.512 28.536 246.984 28.536H245.172V31.248ZM247.104 35.1C247.648 35.1 248.072 34.972 248.376 34.716C248.68 34.46 248.832 34.104 248.832 33.648C248.832 33.184 248.672 32.82 248.352 32.556C248.032 32.284 247.604 32.148 247.068 32.148H245.172V35.1H247.104Z" fill="#074826"/>
</svg>
