<svg width="22" height="22" viewBox="0 0 22 22" fill="none" xmlns="http://www.w3.org/2000/svg">
<path fill-rule="evenodd" clip-rule="evenodd" d="M7.82224 4.55726C9.63119 4.99239 11.0002 6.38226 11.3093 8.09818C11.3448 8.29431 11.5272 8.43333 11.734 8.43333C11.7577 8.43333 11.7816 8.43157 11.8058 8.42768C12.0408 8.3909 12.1992 8.18372 12.1597 7.96506C11.794 5.93677 10.176 4.29372 8.03744 3.77957C7.80674 3.72397 7.57173 3.85313 7.51233 4.06815C7.45312 4.28268 7.59174 4.50184 7.82224 4.55726Z" fill="#828282"/>
<path fill-rule="evenodd" clip-rule="evenodd" d="M13.9639 16.5408C13.6557 16.2324 13.4858 15.8223 13.4858 15.3863C13.4858 15.0899 13.5645 14.8054 13.7115 14.5567L12.3781 13.2233C11.1518 14.3143 9.53752 14.9783 7.77085 14.9783C3.94451 14.9783 0.831425 11.8653 0.831425 8.03912C0.831425 4.21293 3.94451 1.09998 7.77085 1.09998C11.5972 1.09998 14.7103 4.21293 14.7103 8.03912C14.7103 9.80572 14.0463 11.4196 12.9553 12.6461L14.289 13.9794C14.5376 13.8322 14.8219 13.7535 15.1184 13.7535C15.5546 13.7535 15.9647 13.9234 16.2729 14.2318L20.3549 18.3136C20.6633 18.6221 20.8333 19.0319 20.8333 19.4681C20.8333 19.9041 20.6633 20.3142 20.3549 20.6227C20.0368 20.941 19.6187 21.1 19.2003 21.1C18.7823 21.1 18.3642 20.941 18.0458 20.6227L13.9639 16.5408ZM7.77076 1.91642C4.39465 1.91642 1.64779 4.6631 1.64779 8.03914C1.64779 11.4151 4.39465 14.1619 7.77076 14.1619C11.1469 14.1619 13.8937 11.4151 13.8937 8.03914C13.8937 4.6631 11.1469 1.91642 7.77076 1.91642ZM14.5412 15.9636L18.6231 20.0454C18.9415 20.3638 19.4595 20.3635 19.7779 20.0454C19.9319 19.8912 20.0168 19.6862 20.0168 19.4682C20.0168 19.2502 19.9319 19.0451 19.7779 18.8909L15.6959 14.8091C15.5417 14.6549 15.3366 14.5699 15.1186 14.5699C14.9004 14.5699 14.6954 14.6549 14.5412 14.8091C14.3869 14.9633 14.3022 15.1684 14.3022 15.3863C14.3022 15.6043 14.3869 15.8094 14.5412 15.9636Z" fill="#828282"/>
<path d="M13.9639 16.5408L13.6103 16.8944L13.6102 16.8943L13.9639 16.5408ZM13.7115 14.5567L14.065 14.2031L14.3392 14.4773L14.1419 14.8112L13.7115 14.5567ZM12.3781 13.2233L12.0457 12.8498L12.3981 12.5363L12.7316 12.8698L12.3781 13.2233ZM12.9553 12.6461L12.6018 12.9997L12.2682 12.6662L12.5817 12.3138L12.9553 12.6461ZM14.289 13.9794L14.5437 14.4097L14.2099 14.6074L13.9355 14.333L14.289 13.9794ZM16.2729 14.2318L15.9194 14.5854L15.9192 14.5852L16.2729 14.2318ZM20.3549 18.3136L20.0013 18.6672H20.0013L20.3549 18.3136ZM20.3549 20.6227L20.0012 20.2692L20.0013 20.2691L20.3549 20.6227ZM18.0458 20.6227L18.3994 20.2691L18.0458 20.6227ZM14.5412 15.9636L14.1876 16.3172L14.5412 15.9636ZM18.6231 20.0454L18.2696 20.399L18.6231 20.0454ZM19.7779 20.0454L20.1317 20.3987L20.1313 20.3991L19.7779 20.0454ZM19.7779 18.8909L20.1314 18.5373L20.1317 18.5376L19.7779 18.8909ZM15.6959 14.8091L16.0495 14.4555L15.6959 14.8091ZM13.6102 16.8943C13.2084 16.4922 12.9858 15.955 12.9858 15.3863H13.9858C13.9858 15.6897 14.103 15.9727 14.3175 16.1874L13.6102 16.8943ZM12.9858 15.3863C12.9858 15.0005 13.0884 14.6281 13.2811 14.3022L14.1419 14.8112C14.0405 14.9826 13.9858 15.1792 13.9858 15.3863H12.9858ZM13.3579 14.9103L12.0245 13.5769L12.7316 12.8698L14.065 14.2031L13.3579 14.9103ZM12.7104 13.5969C11.3965 14.7658 9.6652 15.4783 7.77085 15.4783V14.4783C9.40984 14.4783 10.907 13.8628 12.0457 12.8498L12.7104 13.5969ZM7.77085 15.4783C3.66838 15.4783 0.331425 12.1415 0.331425 8.03912H1.33142C1.33142 11.5892 4.22063 14.4783 7.77085 14.4783V15.4783ZM0.331425 8.03912C0.331425 3.93677 3.66838 0.599976 7.77085 0.599976V1.59998C4.22063 1.59998 1.33142 4.48909 1.33142 8.03912H0.331425ZM7.77085 0.599976C11.8733 0.599976 15.2103 3.93677 15.2103 8.03912H14.2103C14.2103 4.48909 11.3211 1.59998 7.77085 1.59998V0.599976ZM15.2103 8.03912C15.2103 9.93343 14.4978 11.6644 13.3289 12.9784L12.5817 12.3138C13.5948 11.1749 14.2103 9.67801 14.2103 8.03912H15.2103ZM13.3088 12.2925L14.6425 13.6258L13.9355 14.333L12.6018 12.9997L13.3088 12.2925ZM14.0343 13.5492C14.3601 13.3563 14.7324 13.2535 15.1184 13.2535V14.2535C14.9114 14.2535 14.7151 14.3082 14.5437 14.4097L14.0343 13.5492ZM15.1184 13.2535C15.6872 13.2535 16.2246 13.476 16.6266 13.8784L15.9192 14.5852C15.7049 14.3707 15.422 14.2535 15.1184 14.2535V13.2535ZM16.6265 13.8783L20.7084 17.9601L20.0013 18.6672L15.9194 14.5854L16.6265 13.8783ZM20.7084 17.9601C21.1106 18.3622 21.3333 18.8992 21.3333 19.4681H20.3333C20.3333 19.1646 20.2161 18.8819 20.0013 18.6672L20.7084 17.9601ZM21.3333 19.4681C21.3333 20.0368 21.1106 20.5741 20.7084 20.9762L20.0013 20.2691C20.2161 20.0544 20.3333 19.7715 20.3333 19.4681H21.3333ZM20.7086 20.9761C20.2924 21.3926 19.7452 21.6 19.2003 21.6V20.6C19.4922 20.6 19.7811 20.4895 20.0012 20.2692L20.7086 20.9761ZM19.2003 21.6C18.6557 21.6 18.1086 21.3925 17.6923 20.9762L18.3994 20.2691C18.6198 20.4896 18.9089 20.6 19.2003 20.6V21.6ZM17.6923 20.9762L13.6103 16.8944L14.3174 16.1873L18.3994 20.2691L17.6923 20.9762ZM7.77076 2.41642C4.67077 2.41642 2.14779 4.93926 2.14779 8.03914H1.14779C1.14779 4.38693 4.11853 1.41642 7.77076 1.41642V2.41642ZM2.14779 8.03914C2.14779 11.139 4.67077 13.6619 7.77076 13.6619V14.6619C4.11852 14.6619 1.14779 11.6913 1.14779 8.03914H2.14779ZM7.77076 13.6619C10.8708 13.6619 13.3937 11.139 13.3937 8.03914H14.3937C14.3937 11.6913 11.4231 14.6619 7.77076 14.6619V13.6619ZM13.3937 8.03914C13.3937 4.93926 10.8708 2.41642 7.77076 2.41642V1.41642C11.4231 1.41642 14.3937 4.38694 14.3937 8.03914H13.3937ZM14.8947 15.61L18.9767 19.6919L18.2696 20.399L14.1876 16.3172L14.8947 15.61ZM18.9767 19.6919C19.0996 19.8148 19.3011 19.815 19.4245 19.6917L20.1313 20.3991C19.6178 20.9121 18.7834 20.9128 18.2696 20.399L18.9767 19.6919ZM19.424 19.6922C19.4845 19.6316 19.5168 19.5535 19.5168 19.4682H20.5168C20.5168 19.8188 20.3792 20.1508 20.1317 20.3987L19.424 19.6922ZM19.5168 19.4682C19.5168 19.3828 19.4845 19.3048 19.424 19.2442L20.1317 18.5376C20.3792 18.7855 20.5168 19.1175 20.5168 19.4682H19.5168ZM19.4243 19.2445L15.3424 15.1627L16.0495 14.4555L20.1314 18.5373L19.4243 19.2445ZM15.3424 15.1627C15.2819 15.1022 15.204 15.0699 15.1186 15.0699V14.0699C15.4693 14.0699 15.8015 14.2076 16.0495 14.4555L15.3424 15.1627ZM15.1186 15.0699C15.033 15.0699 14.9552 15.1022 14.8947 15.1627L14.1876 14.4555C14.4356 14.2076 14.7677 14.0699 15.1186 14.0699V15.0699ZM14.8947 15.1627C14.8345 15.2229 14.8022 15.3006 14.8022 15.3863H13.8022C13.8022 15.0361 13.9394 14.7038 14.1876 14.4555L14.8947 15.1627ZM14.8022 15.3863C14.8022 15.4721 14.8345 15.5498 14.8947 15.61L14.1876 16.3172C13.9394 16.0689 13.8022 15.7366 13.8022 15.3863H14.8022Z" fill="#6F747A"/>
</svg>
