<svg width="71" height="59" viewBox="0 0 71 59" fill="none" xmlns="http://www.w3.org/2000/svg">
<path fill-rule="evenodd" clip-rule="evenodd" d="M35.8204 0.00012207C49.3274 0.00012207 60.3693 11.042 60.3693 24.549C60.3693 38.056 49.3274 49.0978 35.8204 49.0978C22.2621 49.0978 11.2202 38.056 11.2202 24.549C11.2202 11.042 22.2621 0.00012207 35.8204 0.00012207ZM12.9664 23.6759C16.3046 23.9327 19.3347 22.4947 22.9297 21.108C25.6516 20.2349 28.0654 20.6972 30.6333 21.7243C33.612 23.5218 36.4881 23.83 39.5695 21.7243C42.4455 20.1836 45.527 20.4404 48.5571 21.7243C51.7412 23.265 55.0794 23.9327 58.6745 23.7786C58.315 11.5555 48.1976 1.64356 35.8718 1.64356C23.4946 1.64356 13.3772 11.5042 12.9664 23.6759ZM13.0177 27.4763C16.2532 27.7331 19.2833 26.2951 22.8783 24.9085C25.6003 24.0354 28.0141 24.4976 30.582 25.5248C33.5607 27.3223 36.4367 27.6304 39.5182 25.5248C42.3942 23.984 45.4756 24.2408 48.5057 25.5248C51.6899 27.0655 55.0281 27.7331 58.469 27.579C58.5204 26.9628 58.6231 26.3465 58.5717 25.5761C54.9767 25.7815 51.6385 25.0625 48.4543 23.5218C45.4243 22.1865 42.3428 21.9811 39.4668 23.5218C36.4367 25.6275 33.5607 25.3193 30.5306 23.5218C27.9627 22.4947 25.5489 22.0324 22.827 22.9055C19.232 24.2922 16.2019 25.7302 12.8637 25.5761C12.915 26.2951 13.0691 26.9114 13.0177 27.4763ZM13.9422 31.3281C16.8695 31.3281 19.6942 29.9415 22.8783 28.7603C25.6003 27.8872 28.0141 28.3494 30.582 29.3766C33.5607 31.1741 36.4367 31.4822 39.5182 29.3766C42.3942 27.8358 45.4756 28.0926 48.5057 29.3766C51.3817 30.7632 54.5145 31.4822 57.6473 31.3795C57.75 30.7118 57.9555 30.1469 58.1095 29.4279C54.7199 29.5306 51.5358 28.863 48.5057 27.425C45.4756 26.0897 42.3942 25.8843 39.5182 27.425C36.4881 29.5306 33.612 29.2225 30.582 27.425C28.0141 26.3978 25.6003 25.9356 22.8783 26.8087C19.4888 28.0926 16.6127 29.3766 13.4286 29.3766C13.5313 29.9928 13.7881 30.6091 13.9422 31.3281ZM15.4829 34.9745C17.794 34.6664 20.2078 33.5365 22.8783 32.5094C25.6003 31.6363 28.0141 32.0985 30.582 33.1256C33.5607 34.9232 36.4367 35.2313 39.5182 33.1256C42.3942 31.5849 45.4756 31.7904 48.5057 33.1256C50.9195 34.3069 53.436 34.9745 56.0039 35.0772C56.2093 34.4609 56.6202 33.8446 56.9283 33.177C54.0523 33.177 51.1763 32.458 48.5057 31.1741C45.4756 29.8388 42.3942 29.6333 39.5182 31.1741C36.4881 33.2284 33.612 32.9716 30.582 31.1741C28.0141 30.1469 25.6003 29.6847 22.8783 30.5578C19.8483 31.6876 17.2804 32.9716 14.5584 33.1256C14.918 33.7419 15.2775 34.4096 15.4829 34.9745ZM18.7698 39.6994C23.0838 44.3729 29.144 47.4544 35.7691 47.4544C42.1887 47.4544 47.9408 44.6297 52.2548 40.2643C51.0222 39.9562 49.7896 39.3912 48.5057 38.8263C45.4756 37.491 42.3942 37.2856 39.5182 38.8263C36.4881 40.8806 33.612 40.6238 30.582 38.8263C28.0141 37.7992 25.6003 37.337 22.8783 38.21C21.4403 38.7236 20.105 39.2885 18.7698 39.6994ZM17.5885 38.2614C19.2833 37.8505 21.0295 37.0802 22.9297 36.3612C25.6516 35.4881 28.0654 35.9503 30.6333 36.9775C33.612 38.775 36.4881 39.0317 39.5695 36.9775C42.4455 35.4367 45.527 35.6422 48.5571 36.9775C50.3032 37.7992 52.0494 38.4155 53.7955 38.6722C54.1037 38.056 54.5659 37.4397 55.0281 36.8747C52.8711 36.6693 50.7141 36.0017 48.5571 34.9745C45.527 33.6392 42.4455 33.4338 39.5695 34.9745C36.5394 37.0288 33.6634 36.772 30.6333 34.9745C28.0654 33.9474 25.6516 33.4851 22.9297 34.3582C20.6186 35.2313 18.4616 36.2071 16.4587 36.618C16.8695 37.1315 17.229 37.6965 17.5885 38.2614Z" fill="white"/>
<path fill-rule="evenodd" clip-rule="evenodd" d="M29.7605 9.8597C30.3254 12.3249 32.3284 14.1737 34.8962 14.1737C37.8236 14.1737 40.1347 11.8626 40.1347 8.93527C40.1347 6.3674 38.3372 4.26174 35.872 3.74817C39.1075 3.74817 41.8295 6.47011 41.8295 9.80834C41.8295 13.1466 39.1075 15.8685 35.7179 15.8685C32.4311 15.8685 29.7091 13.1466 29.7605 9.8597ZM30.12 8.42169L32.3284 8.16491L33.2528 10.2192L33.715 8.06219L35.9747 7.75405L34.0745 6.62418L34.5367 4.46717L32.8933 5.95654L30.9417 4.82667L31.8661 6.88097L30.12 8.42169Z" fill="white"/>
<path fill-rule="evenodd" clip-rule="evenodd" d="M57.2364 49.6117L57.9554 48.9441Z" fill="white"/>
<path fill-rule="evenodd" clip-rule="evenodd" d="M14.3016 49.6117L13.5826 48.9441Z" fill="white"/>
<path d="M66.378 30.3013L66.532 29.3255M66.3266 28.5552L66.378 27.3226M65.5563 26.3982L65.4535 25.1656M63.656 24.7547L63.502 23.6249M62.6289 26.09L62.5775 25.1142M61.5504 28.4525L61.2936 27.4767M61.3963 30.25L61.0882 29.3255M68.7918 41.2918L69.6135 40.4701M69.6135 39.6997L70.3325 38.5699M70.0244 37.44L70.5379 36.3615M69.2026 35.0776L69.6649 33.9477M67.6619 35.7452L68.1755 34.7694M65.5563 37.2859L66.1725 36.002M64.4778 38.724L64.6832 37.5941M59.0852 54.2339L60.0097 54.0285M60.7287 53.4635L61.9099 53.0527M62.3721 51.8715L63.502 51.3579M63.1425 49.509L64.1183 48.9441M61.499 49.0982L62.3721 48.79M58.8798 49.0468L59.7015 48.3792M57.2364 49.6117L57.9554 48.9441M8.70361 46.0167L3.87601 38.2617M62.8343 46.0167L67.6619 38.2617M5.15995 30.3013L5.00588 29.3255M5.21131 28.5552L5.15995 27.2713M5.98167 26.3982L6.08438 25.1656M7.88189 24.7547L8.03596 23.6249M8.85768 26.09L8.90904 25.1142M9.98755 28.4525L10.2443 27.4767M10.1416 30.25L10.4498 29.3255M2.74615 41.2918L1.92443 40.4701M1.87307 39.6997L1.15407 38.5699M1.51357 37.44L1 36.3615M2.33529 35.0776L1.87307 33.9477M3.87601 35.7452L3.36244 34.7694M5.98167 37.2859L5.36538 36.002M7.00881 38.724L6.80339 37.5941M12.4527 54.2339L11.5283 54.0285M10.8093 53.4635L9.62804 53.0527M9.16583 51.8715L8.03596 51.3579M8.34411 49.509L7.36832 48.9441M10.0389 49.0982L9.16583 48.79M12.6581 49.0468L11.8364 48.3792M14.3016 49.6117L13.5826 48.9441M10.6552 50.0226C10.0389 49.5604 9.42261 49.509 8.65225 49.7144C8.75497 50.3821 9.37126 50.947 10.2957 51.4092L10.6552 50.0226ZM25.138 54.5934C21.3889 55.5692 17.0235 53.4122 11.5283 51.2038L25.138 54.5934ZM18.9237 54.0798C19.2319 52.6932 18.6156 51.512 16.8694 50.4334C16.6127 51.3065 17.0235 52.4877 17.7425 53.669C16.4072 53.9771 15.2774 54.542 14.9179 55.3638C16.8694 55.7746 18.1534 55.261 18.9237 54.0798ZM16.8181 51.2552C16.2531 50.3821 15.5855 49.8685 14.507 49.8685C14.6097 50.7929 15.0719 51.9228 15.7909 52.8472C14.6097 52.8986 13.4798 53.5662 12.8122 54.2339C13.5312 54.8502 14.3529 55.0043 15.3287 54.7988L16.8181 51.2552ZM14.6097 50.4848C14.1989 49.8172 13.6339 49.3549 12.8122 49.2522C12.5041 50.1767 12.9663 51.2552 13.6339 51.9742C12.5041 52.1796 11.5796 52.6932 11.1174 53.5149C11.7851 54.0285 12.5041 54.1312 13.2744 53.823L14.6097 50.4848ZM12.6068 49.7144C11.9905 49.0468 11.3742 48.9954 10.4498 49.2522C10.4498 49.9199 10.912 50.6389 11.5796 51.2038L12.6068 49.7144ZM11.3742 53.0527C10.5011 53.104 9.93619 52.7445 9.3199 51.9742C9.93619 51.4092 10.6552 51.2038 11.5796 51.3065L11.3742 53.0527ZM8.29275 27.0145C8.49818 26.2955 8.29275 25.7305 7.83053 25.0115C7.21425 25.4224 6.9061 26.2441 6.9061 27.2199L8.29275 27.0145ZM11.4769 44.5273C7.31696 41.9081 7.72782 35.8479 7.6251 28.2984L11.4769 44.5273ZM7.77918 36.2588C9.16583 35.9507 9.98755 34.8722 10.2957 32.9206C9.42261 32.9719 8.49818 33.8964 7.72782 34.9749C6.95746 33.845 5.93031 33.0746 5.15995 33.0233C5.46809 34.9749 6.39253 36.002 7.77918 36.2588ZM9.57669 33.1774C10.193 32.3043 10.2957 31.5339 9.93619 30.5068C9.11447 30.969 8.24139 31.8421 7.72782 32.8179C7.21425 31.7907 6.1871 31.0203 5.26266 30.6608C4.95452 31.5339 5.21131 32.3043 5.72488 33.1774H9.57669ZM9.47397 30.8663C9.93619 30.25 10.0903 29.5823 9.93619 28.7093C8.9604 28.812 8.13868 29.6851 7.72782 30.6095C7.11153 29.6337 6.28981 28.966 5.36538 28.812C5.15995 29.6851 5.36538 30.3527 5.87895 30.969L9.47397 30.8663ZM9.42261 28.7606C9.73076 27.8875 9.57669 27.3226 8.9604 26.5523C8.34411 26.8604 7.83053 27.528 7.57375 28.3498L9.42261 28.7606ZM5.8276 28.812C5.41674 28.093 5.62217 27.374 6.08438 26.655C6.80339 26.8604 7.31696 27.528 7.57375 28.4011L5.8276 28.812ZM3.87601 36.8751C3.61923 36.1561 3.20837 35.6939 2.48936 35.3344C2.18122 35.9507 2.28394 36.8237 2.79751 37.6968L3.87601 36.8751ZM7.98461 45.0923C9.01175 44.1165 9.21718 42.7812 8.49818 40.9323C7.77918 41.4973 7.36832 42.6785 7.2656 44.0138C6.03302 43.4488 4.80045 43.2434 4.03009 43.6543C5.31402 45.1436 6.64931 45.5545 7.98461 45.0923ZM8.03596 41.5486C8.08732 40.4701 7.83053 39.6997 6.95746 39.0321C6.49524 39.8538 6.1871 41.0864 6.23845 42.1649C5.26266 41.5486 3.97873 41.2918 3.00294 41.4973C3.25972 42.3703 3.82466 43.038 4.69773 43.4488L8.03596 41.5486ZM6.75203 39.597C6.80339 38.7753 6.64931 38.0563 6.03303 37.44C5.31402 38.005 5.00588 39.1348 5.05723 40.162C4.08144 39.597 3.00294 39.443 2.12986 39.8025C2.38665 40.6755 2.90022 41.1378 3.67058 41.3945L6.75203 39.597ZM5.62217 37.7482C5.51945 36.8751 5.00588 36.4129 4.18416 36.0534C3.7733 36.6183 3.72194 37.44 3.87601 38.3131L5.62217 37.7482ZM2.54072 39.6484C1.82172 39.1862 1.61629 38.5185 1.61629 37.5941C2.38665 37.4914 3.15701 37.7995 3.7733 38.4158L2.54072 39.6484ZM24.2135 51.7174C20.105 50.6902 15.4828 45.9654 12.2473 46.5303L24.2135 51.7174ZM28.4762 52.4364C17.7939 48.4305 13.9934 39.6997 7.31696 47.4034C14.7124 46.3762 20.978 53.7203 27.6545 53.0013L28.4762 52.4364ZM21.697 55.3124C26.5246 56.2882 29.452 48.3792 35.8203 51.9742C31.0441 51.5633 26.6273 60.0373 21.697 55.3124ZM60.8827 50.0226C61.499 49.5604 62.1153 49.509 62.8857 49.7144C62.783 50.3821 62.1667 50.947 61.2422 51.4092L60.8827 50.0226ZM46.3999 54.5934C50.149 55.5692 54.5144 53.4122 60.0097 51.2038L46.3999 54.5934ZM52.6142 54.0798C52.306 52.6932 52.9223 51.512 54.6685 50.4334C54.9766 51.3065 54.5144 52.4877 53.7954 53.669C55.1307 53.9771 56.2606 54.542 56.6201 55.3638C54.6685 55.7746 53.3846 55.261 52.6142 54.0798ZM54.7198 51.2552C55.2848 50.3821 55.9524 49.8685 57.0309 49.8685C56.9282 50.7929 56.466 51.9228 55.747 52.8472C56.9282 52.8986 58.0581 53.5662 58.7257 54.2339C58.0067 54.8502 57.185 55.0043 56.2092 54.7988L54.7198 51.2552ZM56.9282 50.4848C57.3904 49.8172 57.904 49.3549 58.7257 49.2522C59.0339 50.1767 58.5717 51.2552 57.904 51.9742C59.0339 52.1796 59.9583 52.6932 60.4205 53.5149C59.7529 54.0285 59.0339 54.1312 58.2635 53.823L56.9282 50.4848ZM58.9312 49.7144C59.5474 49.0468 60.1637 48.9954 61.0882 49.2522C61.0882 49.9199 60.6259 50.6389 59.9583 51.2038L58.9312 49.7144ZM60.1637 53.0527C61.0368 53.104 61.6017 52.7445 62.218 51.9742C61.6017 51.4092 60.8827 51.2038 59.9583 51.3065L60.1637 53.0527ZM63.2452 27.0145C63.0397 26.2955 63.2452 25.7305 63.7074 25.0115C64.3237 25.4224 64.6318 26.2441 64.6318 27.2199L63.2452 27.0145ZM60.061 44.5273C64.221 41.9081 63.8101 35.8479 63.9128 28.2984L60.061 44.5273ZM63.7588 36.2588C62.3721 35.9507 61.5504 34.8722 61.2422 32.9206C62.1153 32.9719 63.0397 33.8964 63.8101 34.9749C64.5805 33.845 65.6076 33.0746 66.378 33.0233C66.0698 34.9749 65.1454 36.002 63.7588 36.2588ZM61.9612 33.1774C61.345 32.3043 61.2422 31.5339 61.6017 30.5068C62.4235 30.969 63.2965 31.8421 63.8101 32.8179C64.3237 31.7907 65.3508 31.0203 66.2753 30.6608C66.5834 31.5339 66.3266 32.3043 65.813 33.1774H61.9612ZM62.064 30.8663C61.6017 30.25 61.4477 29.5823 61.6017 28.7093C62.5775 28.812 63.3992 29.6851 63.8101 30.6095C64.4264 29.6337 65.2481 28.966 66.1725 28.812C66.378 29.6851 66.1725 30.3527 65.659 30.969L62.064 30.8663ZM62.1153 28.7606C61.8072 27.8875 61.9612 27.3226 62.5775 26.5523C63.1938 26.8604 63.7074 27.528 63.9642 28.3498L62.1153 28.7606ZM65.7103 28.812C66.1212 28.093 65.9158 27.374 65.4535 26.655C64.7345 26.8604 64.221 27.528 63.9642 28.4011L65.7103 28.812ZM67.6619 36.8751C67.9187 36.1561 68.3809 35.6939 69.0486 35.3344C69.3567 35.9507 69.254 36.8237 68.7404 37.6968L67.6619 36.8751ZM63.5533 45.0923C62.5262 44.1165 62.3207 42.7812 63.0397 40.9323C63.7587 41.4973 64.1696 42.6785 64.2723 44.0138C65.5049 43.4488 66.7375 43.2434 67.5078 43.6543C66.1725 45.1436 64.8886 45.5545 63.5533 45.0923ZM63.502 41.5486C63.4506 40.4701 63.7074 39.6997 64.5805 39.0321C65.0427 39.8538 65.3508 41.0864 65.2995 42.1649C66.2753 41.5486 67.5592 41.2918 68.535 41.4973C68.2782 42.3703 67.7133 43.038 66.8402 43.4488L63.502 41.5486ZM64.7859 39.597C64.7345 38.7753 64.8886 38.0563 65.5049 37.44C66.2239 38.005 66.532 39.1348 66.4807 40.162C67.4565 39.597 68.535 39.443 69.4081 39.8025C69.1513 40.6755 68.6377 41.1378 67.8673 41.3945L64.7859 39.597ZM65.9158 37.7482C66.0185 36.8751 66.532 36.4129 67.3538 36.0534C67.7646 36.6183 67.816 37.44 67.6619 38.3131L65.9158 37.7482ZM68.9459 39.6484C69.6649 39.1862 69.8703 38.5185 69.8703 37.5941C69.0999 37.4914 68.3296 37.7995 67.7133 38.4158L68.9459 39.6484ZM47.3244 51.7174C51.433 50.6902 56.0551 45.9654 59.2907 46.5303L47.3244 51.7174ZM43.0617 52.4364C53.7441 48.4305 57.5445 39.6997 64.221 47.4034C56.8255 46.3762 50.5599 53.7203 43.8834 53.0013L43.0617 52.4364ZM39.2099 53.0013C37.8746 53.2581 36.7961 53.6176 35.8203 53.9771C34.9472 53.5149 33.5606 53.2067 32.328 53.0013H39.2099ZM40.3398 53.6176C39.2099 53.823 38.0287 54.1825 37.0015 54.542C38.4909 55.2097 39.7235 56.0828 40.9047 57.1613L40.0316 57.8803C38.7991 56.6477 37.4638 55.7233 35.8203 55.0556C34.2282 55.7746 32.7389 56.6991 31.5063 57.8803L30.6332 57.1613C31.7117 56.1341 32.8416 55.261 34.2796 54.542C33.4065 54.1825 32.328 53.823 31.1982 53.6176H40.3398ZM49.8409 55.3124C45.0133 56.2882 42.0859 48.3792 35.7176 51.9742C40.4938 51.5633 44.9106 60.0373 49.8409 55.3124Z" stroke="white" stroke-width="0.613045" stroke-miterlimit="2.6131"/>
<path fill-rule="evenodd" clip-rule="evenodd" d="M44.7045 39.6991L45.7316 39.2368C45.8857 39.0828 46.0398 39.0314 46.0911 38.9801C46.2452 38.9287 46.3993 38.826 46.4506 38.7233H46.502C46.502 38.826 46.4506 38.8773 46.4506 38.9287C46.4506 38.9801 46.3479 39.0314 46.3479 39.0828C46.1938 39.2882 45.937 39.4936 45.5775 39.6991C45.4235 39.7504 45.2694 39.8531 45.064 39.9558C44.8072 40.0586 44.6018 40.1613 44.4477 40.1613C44.2422 40.3153 44.0368 40.4181 43.9341 40.5208C43.9341 40.5721 43.8827 40.6235 43.8827 40.7262C43.8314 40.7776 43.8314 40.8289 43.8314 40.8803C43.8314 41.0857 43.8314 41.2911 43.8314 41.4966C43.8314 41.702 43.8827 41.9074 43.8827 42.1129C43.8827 42.2156 43.9341 42.3183 43.9855 42.3696C44.0368 42.4724 44.0882 42.5751 44.1909 42.5751H44.2422C44.2936 42.3183 44.4477 42.1129 44.4477 41.9588C44.6018 41.7534 44.7045 41.5479 44.8585 41.4452C44.8585 41.4452 44.9099 41.4452 44.9613 41.4452C45.0126 41.3939 45.064 41.3939 45.064 41.3939C45.1667 41.3939 45.2694 41.4452 45.3721 41.4452C45.5262 41.4966 45.6803 41.5479 45.8343 41.5993L46.1425 41.702C46.1938 41.7534 46.1938 41.7534 46.1425 41.8047C46.0398 41.8561 45.783 42.1129 45.5262 42.4724C45.3208 42.7805 45.064 42.9346 44.8585 43.0886C44.6531 43.2941 44.345 43.3968 43.9855 43.3968C43.9341 43.3454 43.78 43.2941 43.78 43.1914C43.7287 43.14 43.6773 42.9859 43.6773 42.8832C43.626 43.0886 43.5232 43.1914 43.4719 43.3454C43.4205 43.4481 43.3178 43.6022 43.2151 43.7049C43.1637 43.9617 43.1124 44.1672 43.061 44.2699C43.0097 44.4239 42.9583 44.578 42.8556 44.7321C42.7529 44.7834 42.6502 44.7834 42.5475 44.8348C42.342 44.8862 42.2393 44.9375 41.9825 44.9889C41.9825 44.9889 41.9312 44.9889 41.8798 44.9889C41.8285 45.0402 41.7257 45.0402 41.6744 45.0402C41.623 44.9889 41.623 44.9889 41.6744 44.9375C41.7771 44.8862 41.8798 44.7834 41.9825 44.7321C42.1366 44.6807 42.2907 44.6294 42.342 44.5267C42.4961 44.4753 42.5475 44.4239 42.6502 44.3726C42.8042 44.3212 42.8556 44.1672 42.907 44.1158C42.907 44.0644 42.907 44.0644 42.907 44.0644C42.907 44.0131 42.907 43.859 42.8556 43.859C42.8042 43.859 42.8042 43.8077 42.8042 43.8077C42.7015 43.8077 42.6502 43.8077 42.5988 43.8077C42.5475 43.8077 42.4961 43.8077 42.3934 43.7563C42.342 43.7563 42.342 43.7049 42.342 43.6536C42.2907 43.6022 42.2907 43.6022 42.2907 43.4481C42.2907 43.3968 42.342 43.2427 42.342 43.14C42.3934 42.9859 42.4447 42.8832 42.4447 42.7805C42.4961 42.7291 42.4961 42.7291 42.4961 42.6778C42.4961 42.6264 42.5475 42.6264 42.5475 42.6264C42.5988 42.6264 42.5988 42.6264 42.6502 42.6264C42.7529 42.6264 42.8042 42.6264 42.8556 42.6778C42.907 42.7291 42.9583 42.8319 42.9583 42.8832C43.0097 42.9859 43.061 43.0886 43.061 43.1914C43.1124 43.1914 43.1124 43.1914 43.1124 43.1914C43.1637 43.1914 43.1637 43.14 43.1637 43.14C43.2151 43.0886 43.3178 42.9859 43.3178 42.9346C43.3692 42.8319 43.4205 42.6778 43.4205 42.5751C43.4205 42.5237 43.4205 42.4724 43.4205 42.3696C43.4205 42.3183 43.4205 42.3183 43.4205 42.2669C43.4205 42.2156 43.4205 42.0615 43.4205 41.9588C43.4205 41.7534 43.4205 41.6506 43.4205 41.5993C43.4205 41.5479 43.4205 41.3939 43.4205 41.3425C43.4205 41.2911 43.4205 41.2398 43.4205 41.1884C43.4719 40.8803 43.5746 40.6748 43.6773 40.5208C43.7287 40.3667 43.8827 40.264 43.9855 40.2126L44.7045 39.6991ZM45.6803 41.9588L45.4748 41.9074L45.064 41.8047C45.0126 41.8047 44.9613 41.8047 44.9613 41.8047C44.9099 41.8047 44.8585 41.8561 44.8072 41.8561C44.7558 41.9074 44.7558 42.0101 44.6531 42.1129C44.6018 42.1642 44.5504 42.2669 44.499 42.3183C44.499 42.3696 44.4477 42.5237 44.4477 42.5237C44.4477 42.5751 44.4477 42.5751 44.4477 42.5751C44.6531 42.5751 44.7558 42.5751 44.9613 42.5237C45.1153 42.4724 45.2694 42.3696 45.4235 42.2669C45.4748 42.2156 45.4748 42.1642 45.5262 42.1642C45.5775 42.0615 45.6803 41.9588 45.6803 41.9588ZM36.3846 42.9859L36.7441 42.4724H36.8468C36.9495 42.5237 37.0522 42.6264 37.0522 42.6778C37.1549 42.7805 37.2576 42.8319 37.3604 42.8832H37.4117C37.4631 42.7291 37.6171 42.6264 37.7199 42.5237H37.7712C37.8739 42.5751 37.9766 42.6264 38.028 42.7291C38.0794 42.7805 38.1821 42.8319 38.3361 42.9346C38.3361 42.9859 38.3361 42.9859 38.3361 42.9859C38.2848 43.0373 38.2848 43.0373 38.1307 43.14C38.0794 43.2427 38.0794 43.3454 38.028 43.3454C37.9766 43.3968 37.9253 43.4481 37.8739 43.5509C37.8226 43.5509 37.7712 43.4995 37.6685 43.4995C37.6685 43.4995 37.6171 43.4481 37.5658 43.4481C37.5144 43.3968 37.4631 43.3968 37.3604 43.3454C37.309 43.2941 37.309 43.1914 37.2576 43.14C37.2063 43.2427 37.2063 43.2941 37.0522 43.3454C37.0009 43.3968 36.8981 43.4995 36.8981 43.5509H36.8468C36.7954 43.5509 36.7954 43.5509 36.6927 43.4995C36.6414 43.4482 36.6414 43.4481 36.59 43.4481C36.5386 43.3968 36.4873 43.3454 36.4359 43.2941C36.4359 43.14 36.3846 43.0373 36.3846 42.9859ZM41.5717 41.8561C41.5203 41.9074 41.3662 42.0615 41.3662 42.0615C41.3662 42.1129 41.3149 42.2156 41.3149 42.3696C41.2635 42.421 41.2122 42.4724 41.1094 42.5237C41.0581 42.5751 41.0067 42.5751 40.9554 42.6778C40.6986 42.9859 40.5445 43.1914 40.4932 43.2941C40.2877 43.4995 40.0823 43.6022 39.8769 43.6536H39.8255C39.7742 43.6536 39.6714 43.6536 39.6714 43.6536C39.6714 43.6536 39.6714 43.6022 39.7228 43.5509C39.7742 43.4995 39.7742 43.3968 39.7228 43.3454C39.7228 43.3454 39.6714 43.3454 39.6201 43.3968C39.5687 43.4995 39.5174 43.6022 39.466 43.6536C39.4147 43.7049 39.3119 43.7563 39.2606 43.859C38.9524 44.0131 38.6443 44.1158 38.2334 44.1672C37.9766 44.2185 37.5144 44.2185 37.1036 44.2185C36.7441 44.2185 36.3846 44.2185 36.1278 44.1672C35.871 44.1672 35.6142 44.0644 35.4088 43.9617C35.3574 43.9617 35.3061 43.9104 35.3061 43.859C35.2547 43.8077 35.2547 43.7049 35.2547 43.6536C35.2547 43.6022 35.2547 43.6022 35.2547 43.5509C35.2547 43.4995 35.2547 43.4995 35.2547 43.4481C35.2547 43.3968 35.2033 43.3454 35.2033 43.3454C35.2033 43.3454 35.152 43.3454 35.1006 43.3968C35.1006 43.5509 35.0493 43.7049 35.0493 43.8077C35.0493 43.859 35.0493 44.0131 35.0493 44.1158C35.0493 44.1672 35.0493 44.2699 35.0493 44.3212C35.0493 44.3726 35.1006 44.4753 35.1006 44.5267C35.152 44.6294 35.2547 44.7321 35.4088 44.7834C35.4088 44.8348 35.5115 44.8348 35.7169 44.8862C35.9737 44.8862 36.2305 44.9375 36.4873 44.9375C36.7954 44.9375 37.0522 44.9375 37.3604 44.8862C37.5658 44.8348 37.8739 44.8348 38.1307 44.7834C38.4902 44.6807 38.7984 44.578 39.0038 44.4753C39.3119 44.2699 39.5174 44.0644 39.6714 43.7563C39.7228 43.8077 39.7228 43.8077 39.8255 43.8077C39.8769 43.8077 39.9282 43.8077 39.9796 43.859C40.0309 43.859 40.0309 43.859 40.0309 43.859C40.0823 43.859 40.2364 43.8077 40.2877 43.8077C40.3391 43.7563 40.4418 43.7563 40.5445 43.6022C40.5959 43.4995 40.7499 43.3968 40.8013 43.2427C40.9554 43.0886 41.0581 42.9346 41.2122 42.9346C41.2635 42.8832 41.2635 42.8832 41.3149 42.8832C41.3662 42.8832 41.4176 42.9346 41.5717 42.9346C41.623 42.9346 41.6744 42.9859 41.7257 42.9859C41.7771 42.9859 41.9312 42.9346 41.9825 42.8832C42.0339 42.8319 42.0339 42.7291 42.1366 42.6778C42.1366 42.6264 42.188 42.6264 42.188 42.5237C42.188 42.4724 42.188 42.421 42.188 42.3696C42.1366 42.2669 42.0339 42.1642 41.9312 42.0615C41.7257 42.0615 41.623 41.9588 41.5717 41.8561ZM30.3244 45.7079L30.838 45.2457H30.8893C30.9407 45.297 30.992 45.3997 31.0948 45.4511C31.1461 45.5538 31.3002 45.6052 31.3515 45.6565C31.3515 45.6565 31.3515 45.7079 31.3002 45.7079L30.8893 46.0674C30.8893 46.1187 30.838 46.1187 30.838 46.1187C30.7866 46.1187 30.7353 46.1187 30.7353 46.0674C30.6839 46.0674 30.6839 46.0674 30.6839 46.016C30.6325 45.9647 30.5812 45.9133 30.5298 45.8619C30.4271 45.8619 30.3757 45.8106 30.3244 45.7079ZM33.6113 44.2185H33.6626C33.714 44.2699 33.7653 44.3212 33.8681 44.4239C33.9194 44.5267 34.0735 44.578 34.1248 44.6294C34.0735 44.6807 34.0735 44.7321 34.0221 44.7834C33.9708 44.8348 33.9194 44.9375 33.8681 44.9889C33.8167 44.9889 33.8167 45.0402 33.8167 45.0402C33.7653 45.0916 33.714 45.0916 33.6113 45.0916C33.5599 45.0916 33.4572 45.0402 33.4058 44.9889C33.3545 44.9375 33.2004 44.7834 33.2004 44.7321L33.6113 44.2185ZM33.6113 43.7563C33.5086 43.9104 33.4058 44.0131 33.2518 44.1672C33.2004 44.1672 33.0977 44.1158 33.0463 44.0131C32.9436 43.9617 32.8923 43.9617 32.8409 43.859C32.7895 43.8077 32.7895 43.7563 32.7895 43.7049C32.8409 43.6536 32.9436 43.5509 32.995 43.4995C33.0463 43.3454 33.149 43.2941 33.2004 43.2427H33.2518C33.4572 43.3968 33.5599 43.4995 33.5599 43.4995C33.6113 43.5509 33.6626 43.5509 33.7653 43.6536L34.0735 43.2941H34.1248C34.1762 43.3454 34.2789 43.4995 34.3303 43.4995C34.433 43.5509 34.5357 43.6022 34.5871 43.6536C34.5871 43.7049 34.5871 43.7049 34.5871 43.7049C34.5871 43.7049 34.5871 43.7563 34.5357 43.7563L34.1762 44.1672L34.1248 44.2185C34.0735 44.2185 34.0735 44.1672 34.0221 44.1672C33.9708 44.1672 33.9708 44.1158 33.9194 44.1158C33.8681 44.0644 33.8167 44.0131 33.7653 43.9617C33.714 43.9104 33.714 43.859 33.6113 43.7563ZM30.2217 43.7563C30.2217 44.2185 30.273 44.4239 30.273 44.4753C30.3244 44.7321 30.4785 44.9375 30.6325 44.9889C30.6839 44.9889 30.7353 45.0402 30.838 45.0402C30.992 45.0402 31.1461 44.9889 31.3002 44.8862C31.4543 44.7834 31.6083 44.6807 31.711 44.4753L32.43 43.4995V43.3454C32.43 43.2941 32.3787 43.2941 32.3787 43.2941C31.9678 43.2941 31.6083 43.2427 31.2488 43.2427C31.2488 43.2427 31.2488 43.1914 31.3002 43.14C31.4029 42.9859 31.6083 42.9346 31.7624 42.8319C31.9678 42.7291 32.1219 42.6778 32.3273 42.6778C32.3787 42.6778 32.43 42.7291 32.5328 42.8319C32.6355 42.8832 32.7382 42.8832 32.7382 42.8832H32.7895C32.9436 42.8319 33.0463 42.7291 33.149 42.5751C33.2518 42.4724 33.3545 42.3183 33.4572 42.2156C33.5085 42.1642 33.5085 42.1129 33.4572 42.1129C33.4058 42.1129 33.4058 42.1129 33.4058 42.1129C33.3545 42.1642 33.3031 42.2156 33.2004 42.3183C33.0977 42.4724 32.995 42.5237 32.8409 42.5237C32.7895 42.5237 32.7895 42.5237 32.7895 42.5237C32.7382 42.4724 32.6355 42.3696 32.5328 42.3183C32.43 42.3183 32.3273 42.3696 32.1733 42.3696C32.1219 42.3696 31.8651 42.5237 31.711 42.5751C31.5056 42.7291 31.3515 42.8832 31.1975 42.9346C31.0948 43.0886 30.992 43.2427 30.9407 43.4995L30.992 43.5509H31.0434C31.3515 43.6022 31.711 43.6022 32.0192 43.6022C31.9678 43.6536 31.9678 43.7563 31.8138 43.8077C31.8138 43.859 31.7624 43.9104 31.6083 44.0131C31.557 44.0644 31.4029 44.1158 31.3002 44.2185C31.1975 44.2185 31.0948 44.2699 30.992 44.2699C30.8893 44.2699 30.7352 44.2185 30.6839 44.1158C30.5812 44.0644 30.5298 43.9104 30.4785 43.8077C30.4785 43.6536 30.4785 43.4995 30.4271 43.2941V42.2669C30.4271 41.9074 30.4785 41.5479 30.5298 41.1371C30.5298 41.0857 30.4785 41.0857 30.4785 41.0857C30.4271 41.0857 30.4271 41.1371 30.3757 41.1371C30.3757 41.1371 30.3244 41.2911 30.273 41.5479C30.2217 41.5993 30.2217 41.702 30.2217 41.8047C30.2217 41.8561 30.2217 42.0101 30.2217 42.0615C30.2217 42.1642 30.2217 42.2669 30.2217 42.3183V42.8832V43.7563V43.7563ZM31.711 41.1371L32.1733 40.6748H32.2246C32.3787 40.7776 32.4814 40.8803 32.5328 40.983C32.5328 41.0344 32.5841 41.0344 32.6355 41.0344C32.6868 41.0857 32.6868 41.0857 32.6868 41.0857C32.5328 41.2398 32.3787 41.3939 32.2246 41.5479C32.2246 41.5479 32.1733 41.5479 32.1733 41.4966C32.1219 41.4966 32.1219 41.4452 32.0705 41.4452C32.0192 41.3939 31.9165 41.3425 31.8651 41.2911C31.7624 41.2398 31.711 41.1884 31.711 41.1371ZM26.0617 44.3212L26.1131 44.2699C26.2672 44.1672 26.4726 44.0131 26.678 43.9104H26.7294C26.7807 44.0644 27.0375 44.2699 27.0889 44.4753V44.5267C27.0375 44.5267 26.9348 44.6294 26.8321 44.6807C26.7294 44.7321 26.6267 44.7834 26.5239 44.8862C26.4726 44.8862 26.3699 44.8862 26.3699 44.8348C26.3185 44.7834 26.2672 44.7321 26.2672 44.7321C26.2158 44.6807 26.1644 44.5267 26.1131 44.4753C26.1131 44.3726 26.0617 44.3212 26.0617 44.3212ZM29.8622 42.9859C29.9135 42.9859 29.9135 42.9859 29.8622 42.9859C29.8622 42.9346 29.8108 42.9346 29.8108 42.9859C29.7081 42.9859 29.554 43.1914 29.5027 43.1914C29.3486 43.2427 29.2459 43.2427 29.1432 43.2427C28.835 43.2427 28.5269 43.1914 28.2187 43.1914C27.9106 43.14 27.5511 43.0886 27.2429 42.9346C26.8321 42.8319 26.5239 42.7291 26.2158 42.6264C26.0617 42.5237 25.7536 42.3696 25.5995 42.2156C25.5995 42.1642 25.5482 42.1642 25.4968 42.0615C25.4968 42.0101 25.5482 41.9074 25.5482 41.8561L25.5995 41.702C25.5995 41.702 25.5995 41.6506 25.6509 41.5993C25.6509 41.5479 25.5995 41.5479 25.5995 41.5479H25.5482C25.5482 41.5479 25.5482 41.5479 25.4968 41.5479C25.4454 41.7534 25.3941 41.8561 25.2914 41.9588C25.2914 42.0615 25.24 42.1642 25.1887 42.2669C25.1887 42.3183 25.1373 42.3696 25.1373 42.4724C25.1373 42.5237 25.0859 42.5751 25.0859 42.6778C25.1373 42.7291 25.1373 42.8319 25.1373 42.8832C25.24 42.9859 25.3427 43.0373 25.4454 43.14C25.7022 43.2427 26.0617 43.4482 26.4212 43.4995C26.7294 43.6022 27.1402 43.7049 27.4997 43.7049C27.8079 43.8076 28.2187 43.8077 28.4755 43.859C28.7837 43.859 29.0405 43.8077 29.3486 43.6022C29.554 43.4995 29.7595 43.2941 29.8622 42.9859Z" fill="white"/>
</svg>
