<svg width="193" height="51" viewBox="0 0 193 51" fill="none" xmlns="http://www.w3.org/2000/svg">
<path d="M71 25.7304L73.4301 18.7523H74.8941L77.3535 25.7304H75.8798L75.4113 24.2469H72.8934L72.4347 25.7304H71ZM73.8498 21.1531L73.2252 23.1636H75.0698L74.4451 21.1531L74.1621 20.0796H74.1426C74.0255 20.548 73.9279 20.9059 73.8498 21.1531Z" fill="#074826"/>
<path d="M78.136 25.7304V18.7523H81.2006C81.9943 18.7523 82.6027 18.9702 83.0256 19.4061C83.442 19.8356 83.6502 20.3658 83.6502 20.997C83.6502 21.6606 83.442 22.1941 83.0256 22.5975C82.6092 23.0009 82.0399 23.2026 81.3177 23.2026H79.6V25.7304H78.136ZM79.6 19.982V22.051H81.0639C81.4283 22.051 81.7081 21.9599 81.9032 21.7777C82.0984 21.589 82.196 21.332 82.196 21.0067C82.196 20.6814 82.0984 20.4309 81.9032 20.2552C81.7081 20.0731 81.4348 19.982 81.0834 19.982H79.6Z" fill="#074826"/>
<path d="M84.5454 25.7304V18.7523H85.98L88.3028 22.6463C88.3679 22.7569 88.4394 22.8936 88.5175 23.0562C88.6021 23.2189 88.6672 23.3555 88.7127 23.4661L88.7908 23.6223H88.8103C88.7843 23.1408 88.7713 22.7374 88.7713 22.4121V18.7523H90.1669V25.7304H88.8005L86.4192 21.8753C86.3541 21.7647 86.2793 21.6313 86.1947 21.4752C86.1101 21.3125 86.0451 21.1759 85.9995 21.0653L85.9215 20.9091H85.9019C85.928 21.3971 85.941 21.8038 85.941 22.1291V25.7304H84.5454Z" fill="#074826"/>
<path d="M91.441 25.7304V18.7523H92.8561V25.7304H91.441Z" fill="#074826"/>
<path d="M95.6943 25.7304V24.6666L99.5005 19.9624V19.9332H95.9383V18.7523H101.179V19.9332L97.4998 24.5007V24.5299H101.247V25.7304H95.6943Z" fill="#074826"/>
<path d="M101.765 25.7304L104.195 18.7523H105.659L108.118 25.7304H106.644L106.176 24.2469H103.658L103.199 25.7304H101.765ZM104.614 21.1531L103.99 23.1636H105.834L105.21 21.1531L104.927 20.0796H104.907C104.79 20.548 104.692 20.9059 104.614 21.1531Z" fill="#074826"/>
<path d="M108.901 25.7304V18.7523H110.892L111.877 22.256C111.949 22.5162 112.02 22.8057 112.092 23.1246C112.17 23.4369 112.229 23.6841 112.268 23.8663L112.316 24.1396H112.336C112.46 23.4694 112.603 22.8415 112.765 22.256L113.751 18.7523H115.771V25.7304H114.454V21.7289L114.512 20.2845H114.493C114.389 20.831 114.288 21.2735 114.19 21.6118L112.99 25.7304H111.633L110.462 21.6118L110.16 20.2845H110.14C110.179 20.8701 110.199 21.3516 110.199 21.7289V25.7304H108.901Z" fill="#074826"/>
<path d="M117.044 25.7304V18.7523H122.178V19.9429H118.46V21.5045H121.719V22.6659H118.46V24.5495H122.207V25.7304H117.044Z" fill="#074826"/>
<path d="M123.282 25.7304V18.7523H128.416V19.9429H124.697V21.5045H127.957V22.6659H124.697V24.5495H128.445V25.7304H123.282Z" fill="#074826"/>
<path d="M129.52 25.7304V18.7523H130.955L133.277 22.6463C133.343 22.7569 133.414 22.8936 133.492 23.0562C133.577 23.2189 133.642 23.3555 133.687 23.4661L133.765 23.6223H133.785C133.759 23.1408 133.746 22.7374 133.746 22.4121V18.7523H135.142V25.7304H133.775L131.394 21.8753C131.329 21.7647 131.254 21.6313 131.169 21.4752C131.085 21.3125 131.02 21.1759 130.974 21.0653L130.896 20.9091H130.877C130.903 21.3971 130.916 21.8038 130.916 22.1291V25.7304H129.52Z" fill="#074826"/>
<path d="M137.733 25.7304L140.163 18.7523H141.627L144.086 25.7304H142.613L142.144 24.2469H139.626L139.168 25.7304H137.733ZM140.583 21.1531L139.958 23.1636H141.803L141.178 21.1531L140.895 20.0796H140.875C140.758 20.548 140.661 20.9059 140.583 21.1531Z" fill="#074826"/>
<path d="M144.869 25.7304V18.7523H147.933C148.727 18.7523 149.336 18.9702 149.758 19.4061C150.175 19.8356 150.383 20.3658 150.383 20.997C150.383 21.6606 150.175 22.1941 149.758 22.5975C149.342 23.0009 148.773 23.2026 148.051 23.2026H146.333V25.7304H144.869ZM146.333 19.982V22.051H147.797C148.161 22.051 148.441 21.9599 148.636 21.7777C148.831 21.589 148.929 21.332 148.929 21.0067C148.929 20.6814 148.831 20.4309 148.636 20.2552C148.441 20.0731 148.168 19.982 147.816 19.982H146.333Z" fill="#074826"/>
<path d="M151.278 25.7304V18.7523H152.713L155.036 22.6463C155.101 22.7569 155.172 22.8936 155.25 23.0562C155.335 23.2189 155.4 23.3555 155.446 23.4661L155.524 23.6223H155.543C155.517 23.1408 155.504 22.7374 155.504 22.4121V18.7523H156.9V25.7304H155.533L153.152 21.8753C153.087 21.7647 153.012 21.6313 152.928 21.4752C152.843 21.3125 152.778 21.1759 152.732 21.0653L152.654 20.9091H152.635C152.661 21.3971 152.674 21.8038 152.674 22.1291V25.7304H151.278Z" fill="#074826"/>
<path d="M157.657 25.7304L160.087 18.7523H161.551L164.01 25.7304H162.536L162.068 24.2469H159.55L159.091 25.7304H157.657ZM160.506 21.1531L159.882 23.1636H161.726L161.102 21.1531L160.819 20.0796H160.799C160.682 20.548 160.584 20.9059 160.506 21.1531Z" fill="#074826"/>
<path d="M171.741 25.7304L171.692 24.7935H171.673C171.243 25.5157 170.59 25.8768 169.711 25.8768C168.69 25.8768 167.873 25.5384 167.262 24.8618C166.656 24.1851 166.354 23.3198 166.354 22.2657C166.354 21.0685 166.735 20.1186 167.496 19.4159C168.081 18.8824 168.83 18.6156 169.74 18.6156C170.593 18.6156 171.273 18.8271 171.78 19.25C172.294 19.6729 172.61 20.239 172.727 20.9482H171.341C171.256 20.5968 171.081 20.317 170.814 20.1088C170.547 19.8941 170.199 19.7868 169.77 19.7868C169.139 19.7868 168.651 20.0177 168.306 20.4797C167.967 20.9417 167.798 21.537 167.798 22.2657C167.798 22.9879 167.974 23.58 168.325 24.042C168.683 24.5039 169.158 24.7349 169.75 24.7349C170.271 24.7349 170.7 24.5755 171.038 24.2567C171.377 23.9314 171.546 23.5637 171.546 23.1538V23.1148H169.867V22.0217H172.805V25.7304H171.741Z" fill="#074826"/>
<path d="M173.99 25.7304V18.7523H175.405V21.4849H178.147V18.7523H179.562V25.7304H178.147V22.6561H175.405V25.7304H173.99Z" fill="#074826"/>
<path d="M180.32 25.7304L182.75 18.7523H184.214L186.674 25.7304H185.2L184.732 24.2469H182.214L181.755 25.7304H180.32ZM183.17 21.1531L182.545 23.1636H184.39L183.765 21.1531L183.482 20.0796H183.463C183.346 20.548 183.248 20.9059 183.17 21.1531Z" fill="#074826"/>
<path d="M187.456 25.7304V18.7523H190.657C191.328 18.7523 191.868 18.9312 192.278 19.289C192.694 19.6469 192.902 20.1153 192.902 20.6944C192.902 21.5858 192.476 22.1486 191.624 22.3828V22.4121C191.955 22.5097 192.203 22.6659 192.365 22.8806C192.535 23.0888 192.642 23.4011 192.687 23.8175C192.7 23.9736 192.713 24.1591 192.726 24.3738C192.746 24.582 192.759 24.7479 192.766 24.8715C192.779 24.9952 192.792 25.1188 192.805 25.2424C192.824 25.366 192.847 25.4636 192.873 25.5352C192.905 25.6002 192.944 25.6425 192.99 25.6621V25.7304H191.633C191.607 25.7174 191.585 25.6946 191.565 25.6621C191.546 25.623 191.529 25.571 191.516 25.5059C191.503 25.4408 191.49 25.3758 191.477 25.3107C191.471 25.2391 191.461 25.1513 191.448 25.0472C191.441 24.9366 191.435 24.8422 191.428 24.7642C191.422 24.6796 191.412 24.5722 191.399 24.4421C191.393 24.3055 191.386 24.1981 191.38 24.12C191.321 23.3263 190.866 22.9294 190.013 22.9294H188.871V25.7304H187.456ZM188.871 19.8941V21.8363H190.374C190.745 21.8363 191.028 21.7485 191.224 21.5728C191.425 21.3971 191.526 21.1661 191.526 20.8798C191.526 20.5871 191.432 20.3496 191.243 20.1674C191.054 19.9852 190.778 19.8941 190.413 19.8941H188.871Z" fill="#074826"/>
<path d="M73.7283 38.2243C72.9125 38.2243 72.2136 37.9391 71.6317 37.3686C71.0498 36.7981 70.7588 36.0764 70.7588 35.2035C70.7588 34.3249 71.0498 33.6033 71.6317 33.0385C72.2136 32.468 72.9296 32.1827 73.7796 32.1827C74.3958 32.1827 74.9434 32.3282 75.4227 32.6191C75.9076 32.9101 76.2642 33.3294 76.4924 33.8771H75.551C75.1973 33.2096 74.6068 32.8759 73.7796 32.8759C73.135 32.8759 72.6015 33.0898 72.1794 33.5177C71.7629 33.9399 71.5547 34.5018 71.5547 35.2035C71.5547 35.9052 71.7629 36.47 72.1794 36.8979C72.6015 37.3258 73.1235 37.5397 73.7454 37.5397C74.3729 37.5397 74.875 37.3629 75.2515 37.0091C75.6338 36.6554 75.8562 36.1762 75.919 35.5715H73.4716V34.9553H76.7405V35.5715C76.6607 36.336 76.344 36.9692 75.7906 37.4713C75.2373 37.9733 74.5498 38.2243 73.7283 38.2243Z" fill="#074826"/>
<path d="M82.0235 36.8979C82.4399 36.47 82.6482 35.9052 82.6482 35.2035C82.6482 34.5018 82.4399 33.9399 82.0235 33.5177C81.607 33.0898 81.0736 32.8759 80.4232 32.8759C79.7785 32.8759 79.2451 33.0898 78.8229 33.5177C78.4065 33.9399 78.1982 34.5018 78.1982 35.2035C78.1982 35.9052 78.4093 36.47 78.8315 36.8979C79.2537 37.3258 79.7871 37.5397 80.4318 37.5397C81.0764 37.5397 81.607 37.3258 82.0235 36.8979ZM80.4318 38.2329C79.5817 38.2329 78.8657 37.9476 78.2838 37.3771C77.7019 36.8009 77.411 36.0764 77.411 35.2035C77.411 34.3249 77.7019 33.6033 78.2838 33.0385C78.8657 32.468 79.5817 32.1827 80.4318 32.1827C81.2818 32.1827 81.9949 32.468 82.5711 33.0385C83.153 33.6033 83.444 34.3249 83.444 35.2035C83.444 36.0821 83.153 36.8066 82.5711 37.3771C81.9949 37.9476 81.2818 38.2329 80.4318 38.2329Z" fill="#074826"/>
<path d="M86.2614 38.173L83.9765 32.2426H84.8066L86.6721 37.3429L88.5548 32.2426H89.3849L87.1 38.173H86.2614Z" fill="#074826"/>
<path d="M93.37 32.2426V32.8588H91.0081V34.8783H93.1133V35.4859H91.0081V37.5568H93.37V38.173H90.2294V32.2426H93.37Z" fill="#074826"/>
<path d="M95.3287 35.7255V38.173H94.5499V32.2426H96.4754C97.1428 32.2426 97.6506 32.4052 97.9986 32.7304C98.3523 33.0556 98.5292 33.4549 98.5292 33.9284C98.5292 34.3963 98.4008 34.787 98.1441 35.1008C97.8874 35.4146 97.5023 35.6114 96.9888 35.6913L98.6233 38.173H97.6477L96.0903 35.7255H95.3287ZM95.3287 32.8673V35.1094H96.4754C96.9032 35.1094 97.2199 35.0124 97.4252 34.8184C97.6363 34.6187 97.7419 34.3421 97.7419 33.9883C97.7419 33.241 97.3197 32.8673 96.4754 32.8673H95.3287Z" fill="#074826"/>
<path d="M103.742 32.2426H104.521V38.173H103.742L100.61 33.4663V38.173H99.8315V32.2426H100.61L103.742 36.9492V32.2426Z" fill="#074826"/>
<path d="M111.857 32.2426V38.173H111.07V33.8514L109.084 38.173H108.579L106.585 33.8514V38.173H105.807V32.2426H106.603L108.836 37.1033L111.061 32.2426H111.857Z" fill="#074826"/>
<path d="M116.285 32.2426V32.8588H113.923V34.8783H116.028V35.4859H113.923V37.5568H116.285V38.173H113.144V32.2426H116.285Z" fill="#074826"/>
<path d="M121.375 32.2426H122.154V38.173H121.375L118.243 33.4663V38.173H117.465V32.2426H118.243L121.375 36.9492V32.2426Z" fill="#074826"/>
<path d="M123.175 32.8673V32.2426H127.085V32.8673H125.519V38.173H124.741V32.8673H123.175Z" fill="#074826"/>
<path d="M134.981 36.8979C135.398 36.47 135.606 35.9052 135.606 35.2035C135.606 34.5018 135.398 33.9399 134.981 33.5177C134.565 33.0898 134.032 32.8759 133.381 32.8759C132.737 32.8759 132.203 33.0898 131.781 33.5177C131.364 33.9399 131.156 34.5018 131.156 35.2035C131.156 35.9052 131.367 36.47 131.789 36.8979C132.212 37.3258 132.745 37.5397 133.39 37.5397C134.034 37.5397 134.565 37.3258 134.981 36.8979ZM133.39 38.2329C132.54 38.2329 131.824 37.9476 131.242 37.3771C130.66 36.8009 130.369 36.0764 130.369 35.2035C130.369 34.3249 130.66 33.6033 131.242 33.0385C131.824 32.468 132.54 32.1827 133.39 32.1827C134.24 32.1827 134.953 32.468 135.529 33.0385C136.111 33.6033 136.402 34.3249 136.402 35.2035C136.402 36.0821 136.111 36.8066 135.529 37.3771C134.953 37.9476 134.24 38.2329 133.39 38.2329Z" fill="#074826"/>
<path d="M137.371 38.173V32.2426H140.708V32.8673H138.15V34.8783H140.169V35.4945H138.15V38.173H137.371Z" fill="#074826"/>
<path d="M143.866 32.8673V32.2426H147.777V32.8673H146.211V38.173H145.432V32.8673H143.866Z" fill="#074826"/>
<path d="M152.569 32.2426H153.356V38.173H152.569V35.4945H149.582V38.173H148.803V32.2426H149.582V34.8783H152.569V32.2426Z" fill="#074826"/>
<path d="M157.777 32.2426V32.8588H155.415V34.8783H157.52V35.4859H155.415V37.5568H157.777V38.173H154.636V32.2426H157.777Z" fill="#074826"/>
<path d="M163.448 32.2426C164.115 32.2426 164.623 32.4052 164.971 32.7304C165.325 33.0556 165.502 33.472 165.502 33.9798C165.502 34.4875 165.331 34.9069 164.988 35.2377C164.652 35.5629 164.138 35.7255 163.448 35.7255H162.301V38.173H161.523V32.2426H163.448ZM162.301 35.1094H163.448C163.876 35.1094 164.192 35.0124 164.398 34.8184C164.609 34.6187 164.714 34.3421 164.714 33.9883C164.714 33.241 164.292 32.8673 163.448 32.8673H162.301V35.1094Z" fill="#074826"/>
<path d="M166.461 36.0935V32.2426H167.249V36.0935C167.249 36.5841 167.377 36.9521 167.634 37.1974C167.896 37.437 168.255 37.5568 168.712 37.5568C169.168 37.5568 169.528 37.437 169.79 37.1974C170.053 36.9521 170.184 36.5841 170.184 36.0935V32.2426H170.963V36.0935C170.963 36.7895 170.749 37.3201 170.321 37.6852C169.899 38.0503 169.359 38.2329 168.703 38.2329C168.053 38.2329 167.517 38.0503 167.095 37.6852C166.672 37.3201 166.461 36.7895 166.461 36.0935Z" fill="#074826"/>
<path d="M176.139 32.2426H176.917V38.173H176.139L173.007 33.4663V38.173H172.228V32.2426H173.007L176.139 36.9492V32.2426Z" fill="#074826"/>
<path d="M180.522 36.6241V32.2426H181.301V36.6241C181.301 37.1147 181.15 37.5055 180.847 37.7964C180.545 38.0874 180.146 38.2329 179.649 38.2329C179.153 38.2329 178.751 38.0874 178.443 37.7964C178.14 37.5055 177.989 37.1147 177.989 36.6241H178.785C178.791 36.8979 178.862 37.1204 178.999 37.2915C179.141 37.4627 179.358 37.5483 179.649 37.5483C179.946 37.5483 180.166 37.4627 180.308 37.2915C180.451 37.1147 180.522 36.8922 180.522 36.6241Z" fill="#074826"/>
<path d="M187.015 38.173L186.553 36.8722H183.917L183.455 38.173H182.659L184.816 32.2426H185.672L187.82 38.173H187.015ZM184.14 36.2561H186.331L185.235 33.1925L184.14 36.2561Z" fill="#074826"/>
<path d="M188.841 32.2426H190.964C191.568 32.2426 192.036 32.3909 192.367 32.6876C192.698 32.9786 192.863 33.3551 192.863 33.8172C192.863 34.479 192.484 34.9154 191.725 35.1265C192.108 35.1892 192.416 35.3604 192.649 35.6399C192.883 35.9195 193 36.2418 193 36.6069C193 37.0576 192.823 37.4313 192.47 37.728C192.122 38.0246 191.654 38.173 191.066 38.173H188.841V32.2426ZM189.62 32.8673V34.8184H190.929C191.289 34.8184 191.568 34.7328 191.768 34.5617C191.973 34.3848 192.076 34.1481 192.076 33.8514C192.076 33.5491 191.973 33.3094 191.768 33.1326C191.568 32.9557 191.289 32.8673 190.929 32.8673H189.62ZM189.62 37.5568H191.024C191.4 37.5568 191.694 37.4627 191.905 37.2744C192.122 37.0862 192.23 36.8294 192.23 36.5043C192.23 36.1734 192.113 35.9138 191.879 35.7255C191.651 35.5373 191.346 35.4431 190.964 35.4431H189.62V37.5568Z" fill="#074826"/>
<path fill-rule="evenodd" clip-rule="evenodd" d="M30.5254 0C42.3661 0 52.0457 9.67963 52.0457 21.5203C52.0457 33.361 42.3661 43.0406 30.5254 43.0406C18.6397 43.0406 8.96007 33.361 8.96007 21.5203C8.96007 9.67963 18.6397 0 30.5254 0ZM10.4908 20.7549C13.4172 20.98 16.0735 19.7194 19.225 18.5039C21.6111 17.7385 23.7271 18.1437 25.9782 19.0441C28.5895 20.6199 31.1107 20.89 33.812 19.0441C36.3332 17.6935 39.0345 17.9186 41.6907 19.0441C44.4821 20.3948 47.4085 20.98 50.56 20.845C50.2448 10.1298 41.3756 1.44069 30.5704 1.44069C19.7202 1.44069 10.851 10.0848 10.4908 20.7549ZM10.5358 24.0865C13.3722 24.3116 16.0285 23.051 19.18 21.8354C21.5661 21.0701 23.6821 21.4753 25.9332 22.3757C28.5444 23.9515 31.0657 24.2216 33.7669 22.3757C36.2882 21.0251 38.9894 21.2502 41.6457 22.3757C44.4371 23.7264 47.3635 24.3116 50.3799 24.1766C50.4249 23.6363 50.515 23.0961 50.4699 22.4207C47.3184 22.6008 44.392 21.9705 41.6007 20.6199C38.9444 19.4493 36.2431 19.2692 33.7219 20.6199C31.0657 22.4658 28.5444 22.1956 25.8882 20.6199C23.6371 19.7194 21.5211 19.3142 19.1349 20.0796C15.9834 21.2952 13.3272 22.5558 10.4008 22.4207C10.4458 23.051 10.5808 23.5913 10.5358 24.0865ZM11.3462 27.4631C13.9124 27.4631 16.3886 26.2476 19.18 25.2121C21.5661 24.4467 23.6821 24.8519 25.9332 25.7523C28.5444 27.3281 31.0657 27.5982 33.7669 25.7523C36.2882 24.4017 38.9894 24.6268 41.6457 25.7523C44.1669 26.9679 46.9132 27.5982 49.6596 27.5082C49.7496 26.9229 49.9297 26.4276 50.0648 25.7973C47.0933 25.8874 44.302 25.3021 41.6457 24.0415C38.9894 22.8709 36.2882 22.6909 33.7669 24.0415C31.1107 25.8874 28.5895 25.6173 25.9332 24.0415C23.6821 23.1411 21.5661 22.7359 19.18 23.5012C16.2085 24.6268 13.6873 25.7523 10.896 25.7523C10.986 26.2926 11.2111 26.8328 11.3462 27.4631ZM12.6969 30.6597C14.7228 30.3895 16.8388 29.3991 19.18 28.4986C21.5661 27.7333 23.6821 28.1385 25.9332 29.0389C28.5444 30.6147 31.0657 30.8848 33.7669 29.0389C36.2882 27.6883 38.9894 27.8683 41.6457 29.0389C43.7617 30.0744 45.9678 30.6597 48.2189 30.7497C48.399 30.2095 48.7591 29.6692 49.0293 29.0839C46.508 29.0839 43.9868 28.4536 41.6457 27.3281C38.9894 26.1575 36.2882 25.9774 33.7669 27.3281C31.1107 29.1289 28.5895 28.9038 25.9332 27.3281C23.6821 26.4276 21.5661 26.0225 19.18 26.7878C16.5237 27.7783 14.2726 28.9038 11.8865 29.0389C12.2016 29.5792 12.5168 30.1644 12.6969 30.6597ZM15.5782 34.8017C19.36 38.8986 24.6726 41.5999 30.4804 41.5999C36.1081 41.5999 41.1505 39.1237 44.9323 35.2969C43.8518 35.0268 42.7713 34.5315 41.6457 34.0363C38.9894 32.8657 36.2882 32.6856 33.7669 34.0363C31.1107 35.8371 28.5895 35.612 25.9332 34.0363C23.6821 33.1359 21.5661 32.7307 19.18 33.496C17.9194 33.9462 16.7488 34.4415 15.5782 34.8017ZM14.5427 33.5411C16.0285 33.1809 17.5592 32.5056 19.225 31.8753C21.6111 31.1099 23.7271 31.5151 25.9782 32.4155C28.5895 33.9913 31.1107 34.2164 33.812 32.4155C36.3332 31.0649 39.0345 31.245 41.6907 32.4155C43.2215 33.1359 44.7522 33.6761 46.2829 33.9012C46.5531 33.361 46.9583 32.8207 47.3635 32.3255C45.4726 32.1454 43.5816 31.5601 41.6907 30.6597C39.0345 29.4891 36.3332 29.309 33.812 30.6597C31.1557 32.4605 28.6345 32.2354 25.9782 30.6597C23.7271 29.7592 21.6111 29.354 19.225 30.1194C17.199 30.8848 15.3081 31.7402 13.5523 32.1004C13.9124 32.5506 14.2276 33.0458 14.5427 33.5411Z" fill="#074826"/>
<path fill-rule="evenodd" clip-rule="evenodd" d="M25.2126 8.64324C25.7079 10.8043 27.4637 12.425 29.7148 12.425C32.281 12.425 34.307 10.3991 34.307 7.83285C34.307 5.58177 32.7312 3.73589 30.5702 3.28568C33.4066 3.28568 35.7927 5.67182 35.7927 8.59822C35.7927 11.5246 33.4066 13.9108 30.4351 13.9108C27.5538 13.9108 25.1676 11.5246 25.2126 8.64324ZM25.5278 7.38264L27.4637 7.15753L28.2741 8.95839L28.6793 7.06749L30.6603 6.79736L28.9945 5.80688L29.3996 3.91598L27.959 5.2216L26.2481 4.23113L27.0585 6.03199L25.5278 7.38264Z" fill="#074826"/>
<path fill-rule="evenodd" clip-rule="evenodd" d="M49.2986 43.4911L49.9289 42.9058Z" fill="#074826"/>
<path fill-rule="evenodd" clip-rule="evenodd" d="M8.46405 43.8513C7.92379 43.4461 7.38353 43.4011 6.70821 43.5812C6.79825 44.1664 7.33851 44.6617 8.1489 45.0669L8.46405 43.8513ZM21.1601 47.8582C17.8736 48.7136 14.0467 46.8227 9.22942 44.8868L21.1601 47.8582ZM15.7125 47.408C15.9827 46.1924 15.4424 45.1569 13.9117 44.2115C13.6866 44.9768 14.0467 46.0123 14.677 47.0478C13.5065 47.318 12.516 47.8132 12.2008 48.5335C13.9117 48.8937 15.0372 48.4435 15.7125 47.408ZM13.8666 44.9318C13.3714 44.1664 12.7861 43.7162 11.8407 43.7162C11.9307 44.5266 12.3359 45.5171 12.9662 46.3275C11.9307 46.3725 10.9402 46.9578 10.355 47.5431C10.9853 48.0833 11.7056 48.2184 12.561 48.0383L13.8666 44.9318ZM11.9307 44.2565C11.5705 43.6712 11.0753 43.266 10.355 43.176C10.0848 43.9864 10.49 44.9318 11.0753 45.5621C10.0848 45.7422 9.27444 46.1924 8.86924 46.9128C9.45452 47.363 10.0848 47.453 10.7601 47.1829L11.9307 44.2565ZM10.1749 43.5812C9.63461 42.9959 9.09435 42.9509 8.28396 43.176C8.28396 43.7613 8.68916 44.3916 9.27444 44.8868L10.1749 43.5812ZM9.09435 46.5076C8.32899 46.5526 7.83375 46.2374 7.29349 45.5621C7.83375 45.0669 8.46405 44.8868 9.27444 44.9768L9.09435 46.5076ZM6.39306 23.6816C6.57315 23.0513 6.39306 22.5561 5.98787 21.9258C5.44761 22.286 5.17748 23.0063 5.17748 23.8617L6.39306 23.6816ZM9.1844 39.034C5.53765 36.7379 5.89782 31.4254 5.80778 24.8072L9.1844 39.034ZM5.94284 31.7855C7.15843 31.5154 7.87877 30.5699 8.1489 28.8591C7.38353 28.9041 6.57315 29.7145 5.89782 30.66C5.2225 29.6695 4.32207 28.9942 3.64675 28.9492C3.91687 30.66 4.72726 31.5604 5.94284 31.7855ZM7.5186 29.0842C8.05886 28.3189 8.1489 27.6435 7.83375 26.7431C7.1134 27.1483 6.34804 27.9137 5.89782 28.7691C5.44761 27.8686 4.54718 27.1933 3.73679 26.8782C3.46666 27.6435 3.69177 28.3189 4.14198 29.0842H7.5186ZM7.42856 27.0583C7.83375 26.518 7.96881 25.9327 7.83375 25.1674C6.97834 25.2574 6.258 26.0228 5.89782 26.8332C5.35756 25.9777 4.63722 25.3925 3.82683 25.2574C3.64675 26.0228 3.82683 26.608 4.27705 27.1483L7.42856 27.0583ZM7.38353 25.2124C7.65366 24.447 7.5186 23.9518 6.97834 23.2765C6.43808 23.5466 5.98787 24.1319 5.76276 24.8522L7.38353 25.2124ZM4.23202 25.2574C3.87185 24.6271 4.05194 23.9968 4.45713 23.3665C5.08743 23.5466 5.53765 24.1319 5.76276 24.8972L4.23202 25.2574ZM2.52121 32.3258C2.2961 31.6955 1.93593 31.2903 1.30562 30.9751C1.03549 31.5154 1.12554 32.2808 1.57575 33.0461L2.52121 32.3258ZM6.12293 39.5292C7.02336 38.6738 7.20345 37.5033 6.57315 35.8825C5.94284 36.3777 5.58267 37.4132 5.49263 38.5838C4.41211 38.0885 3.33159 37.9085 2.65627 38.2686C3.78181 39.5743 4.95237 39.9344 6.12293 39.5292ZM6.16795 36.4227C6.21297 35.4773 5.98787 34.802 5.2225 34.2167C4.81731 34.937 4.54718 36.0175 4.5922 36.963C3.73679 36.4227 2.61125 36.1976 1.75584 36.3777C1.98095 37.1431 2.47618 37.7284 3.24155 38.0885L6.16795 36.4227ZM5.04241 34.7119C5.08743 33.9916 4.95237 33.3613 4.41211 32.821C3.78181 33.3163 3.51168 34.3067 3.5567 35.2072C2.70129 34.7119 1.75584 34.5769 0.990473 34.892C1.21558 35.6574 1.6658 36.0626 2.34112 36.2877L5.04241 34.7119ZM4.05194 33.0911C3.9619 32.3258 3.51168 31.9206 2.79133 31.6054C2.43116 32.1007 2.38614 32.821 2.52121 33.5864L4.05194 33.0911ZM1.35065 34.7569C0.720345 34.3518 0.540257 33.7665 0.540257 32.9561C1.21558 32.866 1.8909 33.1362 2.43116 33.6764L1.35065 34.7569ZM20.3497 45.337C16.748 44.4366 12.6961 40.2946 9.85972 40.7898L20.3497 45.337ZM24.0865 45.9673C14.722 42.4556 11.3905 34.802 5.53765 41.5552C12.0208 40.6548 17.5134 47.0929 23.3662 46.4626L24.0865 45.9673ZM18.1437 48.4885C22.3757 49.3439 24.9419 42.4106 30.5246 45.5621C26.3376 45.2019 22.4658 52.6305 18.1437 48.4885ZM52.4951 43.8513C53.0354 43.4461 53.5756 43.4011 54.251 43.5812C54.1609 44.1664 53.6207 44.6617 52.8103 45.0669L52.4951 43.8513ZM39.7991 47.8582C43.0856 48.7136 46.9125 46.8227 51.7298 44.8868L39.7991 47.8582ZM45.2467 47.408C44.9765 46.1924 45.5168 45.1569 47.0475 44.2115C47.3176 44.9768 46.9125 46.0123 46.2822 47.0478C47.4527 47.318 48.4432 47.8132 48.7583 48.5335C47.0475 48.8937 45.922 48.4435 45.2467 47.408ZM47.0925 44.9318C47.5878 44.1664 48.1731 43.7162 49.1185 43.7162C49.0285 44.5266 48.6233 45.5171 47.993 46.3275C49.0285 46.3725 50.0189 46.9578 50.6042 47.5431C49.9739 48.0833 49.2536 48.2184 48.3982 48.0383L47.0925 44.9318ZM49.0285 44.2565C49.4337 43.6712 49.8839 43.266 50.6042 43.176C50.8744 43.9864 50.4692 44.9318 49.8839 45.5621C50.8744 45.7422 51.6847 46.1924 52.0899 46.9128C51.5047 47.363 50.8744 47.453 50.199 47.1829L49.0285 44.2565ZM50.7843 43.5812C51.3246 42.9959 51.8648 42.9509 52.6752 43.176C52.6752 43.7613 52.27 44.3916 51.6847 44.8868L50.7843 43.5812ZM51.8648 46.5076C52.6302 46.5526 53.1254 46.2374 53.6657 45.5621C53.1254 45.0669 52.4951 44.8868 51.6847 44.9768L51.8648 46.5076ZM54.5661 23.6816C54.386 23.0513 54.5661 22.5561 54.9713 21.9258C55.5116 22.286 55.7817 23.0063 55.7817 23.8617L54.5661 23.6816ZM51.7748 39.034C55.4215 36.7379 55.0614 31.4254 55.1514 24.8072L51.7748 39.034ZM55.0163 31.7855C53.8008 31.5154 53.0804 30.5699 52.8103 28.8591C53.5756 28.9041 54.386 29.7145 55.0614 30.66C55.7367 29.6695 56.6371 28.9942 57.3124 28.9492C57.0423 30.66 56.2319 31.5604 55.0163 31.7855ZM53.4406 29.0842C52.9003 28.3189 52.8103 27.6435 53.1254 26.7431C53.8458 27.1483 54.6111 27.9137 55.0614 28.7691C55.5116 27.8686 56.412 27.1933 57.2224 26.8782C57.4925 27.6435 57.2674 28.3189 56.8172 29.0842H53.4406ZM53.5306 27.0583C53.1254 26.518 52.9904 25.9327 53.1254 25.1674C53.9808 25.2574 54.7012 26.0228 55.0614 26.8332C55.6016 25.9777 56.322 25.3925 57.1323 25.2574C57.3124 26.0228 57.1323 26.608 56.6821 27.1483L53.5306 27.0583ZM53.5756 25.2124C53.3055 24.447 53.4406 23.9518 53.9808 23.2765C54.5211 23.5466 54.9713 24.1319 55.1964 24.8522L53.5756 25.2124ZM56.7272 25.2574C57.0873 24.6271 56.9072 23.9968 56.502 23.3665C55.8717 23.5466 55.4215 24.1319 55.1964 24.8972L56.7272 25.2574ZM58.438 32.3258C58.6631 31.6955 59.0683 31.2903 59.6535 30.9751C59.9237 31.5154 59.8336 32.2808 59.3834 33.0461L58.438 32.3258ZM54.8362 39.5292C53.9358 38.6738 53.7557 37.5033 54.386 35.8825C55.0163 36.3777 55.3765 37.4132 55.4666 38.5838C56.5471 38.0885 57.6276 37.9085 58.3029 38.2686C57.1323 39.5743 56.0068 39.9344 54.8362 39.5292ZM54.7912 36.4227C54.7462 35.4773 54.9713 34.802 55.7367 34.2167C56.1419 34.937 56.412 36.0175 56.367 36.963C57.2224 36.4227 58.3479 36.1976 59.2033 36.3777C58.9782 37.1431 58.483 37.7284 57.7176 38.0885L54.7912 36.4227ZM55.9168 34.7119C55.8717 33.9916 56.0068 33.3613 56.5471 32.821C57.1774 33.3163 57.4475 34.3067 57.4025 35.2072C58.2579 34.7119 59.2033 34.5769 59.9687 34.892C59.7436 35.6574 59.2934 36.0626 58.6181 36.2877L55.9168 34.7119ZM56.9072 33.0911C56.9973 32.3258 57.4475 31.9206 58.1678 31.6054C58.528 32.1007 58.573 32.821 58.438 33.5864L56.9072 33.0911ZM59.5635 34.7569C60.1938 34.3518 60.3739 33.7665 60.3739 32.9561C59.6986 32.866 59.0233 33.1362 58.483 33.6764L59.5635 34.7569ZM40.6094 45.337C44.2112 44.4366 48.2631 40.2946 51.0995 40.7898L40.6094 45.337ZM36.8727 45.9673C46.2371 42.4556 49.5687 34.802 55.4215 41.5552C48.9384 40.6548 43.4458 47.0929 37.593 46.4626L36.8727 45.9673ZM33.496 46.4626C32.3255 46.6877 31.38 47.0028 30.5246 47.318C29.7592 46.9128 28.5437 46.6426 27.4631 46.4626H33.496ZM34.4865 47.0028C33.496 47.1829 32.4605 47.498 31.5601 47.8132C32.8657 48.3985 33.9462 49.1638 34.9817 50.1093L34.2164 50.7396C33.1359 49.6591 31.9653 48.8487 30.5246 48.2634C29.1289 48.8937 27.8233 49.7041 26.7428 50.7396L25.9774 50.1093C26.9229 49.2089 27.9134 48.4435 29.174 47.8132C28.4086 47.498 27.4631 47.1829 26.4727 47.0028H34.4865ZM42.8155 48.4885C38.5835 49.3439 36.0172 42.4106 30.4346 45.5621C34.6216 45.2019 38.4934 52.6305 42.8155 48.4885Z" fill="#074826"/>
<path fill-rule="evenodd" clip-rule="evenodd" d="M11.6606 43.4911L11.0303 42.9058Z" fill="#074826"/>
<path fill-rule="evenodd" clip-rule="evenodd" d="M38.3125 34.8013L39.213 34.3961C39.348 34.261 39.4831 34.216 39.5281 34.171C39.6632 34.1259 39.7982 34.0359 39.8433 33.9459H39.8883C39.8883 34.0359 39.8433 34.0809 39.8433 34.1259C39.8433 34.171 39.7532 34.216 39.7532 34.261C39.6182 34.4411 39.3931 34.6212 39.0779 34.8013C38.9428 34.8463 38.8078 34.9363 38.6277 35.0264C38.4026 35.1164 38.2225 35.2065 38.0874 35.2065C37.9073 35.3415 37.7273 35.4316 37.6372 35.5216C37.6372 35.5666 37.5922 35.6117 37.5922 35.7017C37.5472 35.7467 37.5472 35.7917 37.5472 35.8368C37.5472 36.0169 37.5472 36.1969 37.5472 36.377C37.5472 36.5571 37.5922 36.7372 37.5922 36.9173C37.5922 37.0073 37.6372 37.0974 37.6822 37.1424C37.7273 37.2324 37.7723 37.3225 37.8623 37.3225H37.9073C37.9524 37.0974 38.0874 36.9173 38.0874 36.7822C38.2225 36.6021 38.3125 36.422 38.4476 36.332C38.4476 36.332 38.4926 36.332 38.5376 36.332C38.5827 36.287 38.6277 36.287 38.6277 36.287C38.7177 36.287 38.8078 36.332 38.8978 36.332C39.0329 36.377 39.1679 36.422 39.303 36.4671L39.5731 36.5571C39.6182 36.6021 39.6182 36.6021 39.5731 36.6472C39.4831 36.6922 39.258 36.9173 39.0329 37.2324C38.8528 37.5026 38.6277 37.6376 38.4476 37.7727C38.2675 37.9528 37.9974 38.0428 37.6822 38.0428C37.6372 37.9978 37.5022 37.9528 37.5022 37.8627C37.4571 37.8177 37.4121 37.6827 37.4121 37.5926C37.3671 37.7727 37.277 37.8627 37.232 37.9978C37.187 38.0878 37.097 38.2229 37.0069 38.313C36.9619 38.5381 36.9169 38.7181 36.8719 38.8082C36.8268 38.9433 36.7818 39.0783 36.6918 39.2134C36.6017 39.2584 36.5117 39.2584 36.4216 39.3034C36.2416 39.3484 36.1515 39.3935 35.9264 39.4385C35.9264 39.4385 35.8814 39.4385 35.8364 39.4385C35.7913 39.4835 35.7013 39.4835 35.6563 39.4835C35.6112 39.4385 35.6112 39.4385 35.6563 39.3935C35.7463 39.3485 35.8364 39.2584 35.9264 39.2134C36.0615 39.1684 36.1965 39.1233 36.2416 39.0333C36.3766 38.9883 36.4216 38.9433 36.5117 38.8982C36.6467 38.8532 36.6918 38.7181 36.7368 38.6731C36.7368 38.6281 36.7368 38.6281 36.7368 38.6281C36.7368 38.5831 36.7368 38.448 36.6918 38.448C36.6467 38.448 36.6467 38.403 36.6467 38.403C36.5567 38.403 36.5117 38.403 36.4667 38.403C36.4216 38.403 36.3766 38.403 36.2866 38.358C36.2416 38.358 36.2416 38.313 36.2416 38.2679C36.1965 38.2229 36.1965 38.2229 36.1965 38.0878C36.1965 38.0428 36.2416 37.9078 36.2416 37.8177C36.2866 37.6827 36.3316 37.5926 36.3316 37.5026C36.3766 37.4575 36.3766 37.4575 36.3766 37.4125C36.3766 37.3675 36.4216 37.3675 36.4216 37.3675C36.4667 37.3675 36.4667 37.3675 36.5117 37.3675C36.6017 37.3675 36.6467 37.3675 36.6918 37.4125C36.7368 37.4575 36.7818 37.5476 36.7818 37.5926C36.8268 37.6827 36.8719 37.7727 36.8719 37.8627C36.9169 37.8627 36.9169 37.8627 36.9169 37.8627C36.9619 37.8627 36.9619 37.8177 36.9619 37.8177C37.0069 37.7727 37.097 37.6826 37.097 37.6376C37.142 37.5476 37.187 37.4125 37.187 37.3225C37.187 37.2775 37.187 37.2324 37.187 37.1424C37.187 37.0974 37.187 37.0974 37.187 37.0523C37.187 37.0073 37.187 36.8723 37.187 36.7822C37.187 36.6021 37.187 36.5121 37.187 36.4671C37.187 36.422 37.187 36.287 37.187 36.242C37.187 36.1969 37.187 36.1519 37.187 36.1069C37.232 35.8368 37.3221 35.6567 37.4121 35.5216C37.4571 35.3866 37.5922 35.2965 37.6822 35.2515L38.3125 34.8013ZM39.168 36.7822L38.9879 36.7372L38.6277 36.6472C38.5827 36.6472 38.5376 36.6472 38.5376 36.6472C38.4926 36.6472 38.4476 36.6922 38.4026 36.6922C38.3576 36.7372 38.3576 36.8272 38.2675 36.9173C38.2225 36.9623 38.1775 37.0523 38.1325 37.0974C38.1325 37.1424 38.0874 37.2775 38.0874 37.2775C38.0874 37.3225 38.0874 37.3225 38.0874 37.3225C38.2675 37.3225 38.3576 37.3225 38.5376 37.2775C38.6727 37.2324 38.8078 37.1424 38.9428 37.0523C38.9879 37.0073 38.9879 36.9623 39.0329 36.9623C39.0779 36.8723 39.168 36.7822 39.168 36.7822ZM31.0191 37.6827L31.3342 37.2324H31.4242C31.5143 37.2775 31.6043 37.3675 31.6043 37.4125C31.6944 37.5026 31.7844 37.5476 31.8745 37.5926H31.9195C31.9645 37.4575 32.0996 37.3675 32.1896 37.2775H32.2346C32.3247 37.3225 32.4147 37.3675 32.4597 37.4575C32.5048 37.5026 32.5948 37.5476 32.7299 37.6376C32.7299 37.6826 32.7299 37.6827 32.7299 37.6827C32.6848 37.7277 32.6848 37.7277 32.5498 37.8177C32.5048 37.9078 32.5048 37.9978 32.4597 37.9978C32.4147 38.0428 32.3697 38.0878 32.3247 38.1779C32.2797 38.1779 32.2346 38.1329 32.1446 38.1329C32.1446 38.1329 32.0996 38.0878 32.0545 38.0878C32.0095 38.0428 31.9645 38.0428 31.8745 37.9978C31.8294 37.9528 31.8294 37.8627 31.7844 37.8177C31.7394 37.9078 31.7394 37.9528 31.6043 37.9978C31.5593 38.0428 31.4693 38.1329 31.4693 38.1779H31.4242C31.3792 38.1779 31.3792 38.1779 31.2892 38.1329C31.2442 38.0878 31.2442 38.0878 31.1991 38.0878C31.1541 38.0428 31.1091 37.9978 31.0641 37.9528C31.0641 37.8177 31.0191 37.7277 31.0191 37.6827ZM35.5662 36.6922C35.5212 36.7372 35.3861 36.8723 35.3861 36.8723C35.3861 36.9173 35.3411 37.0073 35.3411 37.1424C35.2961 37.1874 35.2511 37.2324 35.161 37.2775C35.116 37.3225 35.071 37.3225 35.026 37.4125C34.8009 37.6826 34.6658 37.8627 34.6208 37.9528C34.4407 38.1329 34.2606 38.2229 34.0805 38.2679H34.0355C33.9905 38.2679 33.9004 38.2679 33.9004 38.2679C33.9004 38.2679 33.9004 38.2229 33.9455 38.1779C33.9905 38.1329 33.9905 38.0428 33.9455 37.9978C33.9455 37.9978 33.9004 37.9978 33.8554 38.0428C33.8104 38.1329 33.7654 38.2229 33.7203 38.2679C33.6753 38.313 33.5853 38.358 33.5403 38.448C33.2701 38.5831 33 38.6731 32.6398 38.7181C32.4147 38.7632 32.0095 38.7632 31.6494 38.7632C31.3342 38.7632 31.0191 38.7632 30.7939 38.7181C30.5688 38.7181 30.3437 38.6281 30.1636 38.5381C30.1186 38.5381 30.0736 38.493 30.0736 38.448C30.0286 38.403 30.0286 38.313 30.0286 38.2679C30.0286 38.2229 30.0286 38.2229 30.0286 38.1779C30.0286 38.1329 30.0286 38.1329 30.0286 38.0878C30.0286 38.0428 29.9836 37.9978 29.9836 37.9978C29.9836 37.9978 29.9385 37.9978 29.8935 38.0428C29.8935 38.1779 29.8485 38.313 29.8485 38.403C29.8485 38.448 29.8485 38.5831 29.8485 38.6731C29.8485 38.7181 29.8485 38.8082 29.8485 38.8532C29.8485 38.8982 29.8935 38.9883 29.8935 39.0333C29.9385 39.1233 30.0286 39.2134 30.1636 39.2584C30.1636 39.3034 30.2537 39.3034 30.4338 39.3484C30.6589 39.3484 30.884 39.3935 31.1091 39.3935C31.3792 39.3935 31.6043 39.3935 31.8745 39.3484C32.0545 39.3034 32.3247 39.3034 32.5498 39.2584C32.8649 39.1684 33.1351 39.0783 33.3152 38.9883C33.5853 38.8082 33.7654 38.6281 33.9004 38.358C33.9454 38.403 33.9455 38.403 34.0355 38.403C34.0805 38.403 34.1255 38.403 34.1706 38.448C34.2156 38.448 34.2156 38.448 34.2156 38.448C34.2606 38.448 34.3957 38.403 34.4407 38.403C34.4857 38.358 34.5758 38.358 34.6658 38.2229C34.7108 38.1329 34.8459 38.0428 34.8909 37.9078C35.026 37.7727 35.116 37.6376 35.2511 37.6376C35.2961 37.5926 35.2961 37.5926 35.3411 37.5926C35.3861 37.5926 35.4312 37.6376 35.5662 37.6376C35.6112 37.6376 35.6563 37.6827 35.7013 37.6827C35.7463 37.6827 35.8814 37.6376 35.9264 37.5926C35.9714 37.5476 35.9714 37.4575 36.0615 37.4125C36.0615 37.3675 36.1065 37.3675 36.1065 37.2775C36.1065 37.2324 36.1065 37.1874 36.1065 37.1424C36.0615 37.0523 35.9714 36.9623 35.8814 36.8723C35.7013 36.8723 35.6112 36.7822 35.5662 36.6922ZM25.7065 40.0688L26.1567 39.6636H26.2017C26.2468 39.7086 26.2918 39.7987 26.3818 39.8437C26.4269 39.9337 26.5619 39.9788 26.6069 40.0238C26.6069 40.0238 26.6069 40.0688 26.5619 40.0688L26.2017 40.3839C26.2017 40.429 26.1567 40.429 26.1567 40.429C26.1117 40.429 26.0667 40.429 26.0667 40.3839C26.0217 40.3839 26.0217 40.3839 26.0217 40.3389C25.9766 40.2939 25.9316 40.2489 25.8866 40.2039C25.7966 40.2039 25.7515 40.1588 25.7065 40.0688ZM28.5879 38.7632H28.6329C28.6779 38.8082 28.723 38.8532 28.813 38.9433C28.858 39.0333 28.9931 39.0783 29.0381 39.1233C28.9931 39.1684 28.9931 39.2134 28.9481 39.2584C28.903 39.3034 28.858 39.3935 28.813 39.4385C28.768 39.4385 28.768 39.4835 28.768 39.4835C28.723 39.5285 28.6779 39.5285 28.5879 39.5285C28.5429 39.5285 28.4528 39.4835 28.4078 39.4385C28.3628 39.3935 28.2277 39.2584 28.2277 39.2134L28.5879 38.7632ZM28.5879 38.358C28.4978 38.493 28.4078 38.5831 28.2727 38.7181C28.2277 38.7181 28.1377 38.6731 28.0927 38.5831C28.0026 38.5381 27.9576 38.5381 27.9126 38.448C27.8675 38.403 27.8675 38.358 27.8675 38.313C27.9126 38.2679 28.0026 38.1779 28.0476 38.1329C28.0926 37.9978 28.1827 37.9528 28.2277 37.9078H28.2727C28.4528 38.0428 28.5429 38.1329 28.5429 38.1329C28.5879 38.1779 28.6329 38.1779 28.723 38.2679L28.9931 37.9528H29.0381C29.0831 37.9978 29.1732 38.1329 29.2182 38.1329C29.3082 38.1779 29.3983 38.2229 29.4433 38.2679C29.4433 38.313 29.4433 38.313 29.4433 38.313C29.4433 38.313 29.4433 38.358 29.3983 38.358L29.0831 38.7181L29.0381 38.7632C28.9931 38.7632 28.9931 38.7181 28.9481 38.7181C28.903 38.7181 28.903 38.6731 28.858 38.6731C28.813 38.6281 28.768 38.5831 28.723 38.5381C28.6779 38.493 28.6779 38.448 28.5879 38.358ZM25.6165 38.358C25.6165 38.7632 25.6615 38.9433 25.6615 38.9883C25.7065 39.2134 25.8416 39.3935 25.9766 39.4385C26.0217 39.4385 26.0667 39.4835 26.1567 39.4835C26.2918 39.4835 26.4269 39.4385 26.5619 39.3484C26.697 39.2584 26.832 39.1684 26.9221 38.9883L27.5524 38.1329V37.9978C27.5524 37.9528 27.5074 37.9528 27.5074 37.9528C27.1472 37.9528 26.832 37.9078 26.5169 37.9078C26.5169 37.9078 26.5169 37.8627 26.5619 37.8177C26.652 37.6827 26.832 37.6376 26.9671 37.5476C27.1472 37.4575 27.2823 37.4125 27.4623 37.4125C27.5074 37.4125 27.5524 37.4575 27.6424 37.5476C27.7325 37.5926 27.8225 37.5926 27.8225 37.5926H27.8675C28.0026 37.5476 28.0926 37.4575 28.1827 37.3225C28.2727 37.2324 28.3628 37.0974 28.4528 37.0073C28.4978 36.9623 28.4978 36.9173 28.4528 36.9173C28.4078 36.9173 28.4078 36.9173 28.4078 36.9173C28.3628 36.9623 28.3178 37.0073 28.2277 37.0974C28.1377 37.2324 28.0476 37.2775 27.9126 37.2775C27.8675 37.2775 27.8675 37.2775 27.8675 37.2775C27.8225 37.2324 27.7325 37.1424 27.6424 37.0974C27.5524 37.0974 27.4623 37.1424 27.3273 37.1424C27.2823 37.1424 27.0572 37.2775 26.9221 37.3225C26.742 37.4575 26.6069 37.5926 26.4719 37.6376C26.3818 37.7727 26.2918 37.9078 26.2468 38.1329L26.2918 38.1779H26.3368C26.6069 38.2229 26.9221 38.2229 27.1922 38.2229C27.1472 38.2679 27.1472 38.358 27.0121 38.403C27.0121 38.448 26.9671 38.493 26.832 38.5831C26.787 38.6281 26.652 38.6731 26.5619 38.7632C26.4719 38.7632 26.3818 38.8082 26.2918 38.8082C26.2017 38.8082 26.0667 38.7632 26.0217 38.6731C25.9316 38.6281 25.8866 38.493 25.8416 38.403C25.8416 38.2679 25.8416 38.1329 25.7965 37.9528V37.0523C25.7965 36.7372 25.8416 36.422 25.8866 36.0619C25.8866 36.0169 25.8416 36.0169 25.8416 36.0169C25.7966 36.0169 25.7966 36.0619 25.7515 36.0619C25.7515 36.0619 25.7065 36.1969 25.6615 36.422C25.6165 36.4671 25.6165 36.5571 25.6165 36.6472C25.6165 36.6922 25.6165 36.8272 25.6165 36.8723C25.6165 36.9623 25.6165 37.0523 25.6165 37.0974V37.5926V38.358V38.358ZM26.9221 36.0619L27.3273 35.6567H27.3723C27.5074 35.7467 27.5974 35.8368 27.6424 35.9268C27.6424 35.9718 27.6875 35.9718 27.7325 35.9718C27.7775 36.0169 27.7775 36.0169 27.7775 36.0169C27.6424 36.1519 27.5074 36.287 27.3723 36.422C27.3723 36.422 27.3273 36.422 27.3273 36.377C27.2823 36.377 27.2823 36.332 27.2372 36.332C27.1922 36.287 27.1022 36.242 27.0572 36.1969C26.9671 36.1519 26.9221 36.1069 26.9221 36.0619ZM21.9697 38.8532L22.0147 38.8082C22.1498 38.7181 22.3299 38.5831 22.51 38.493H22.555C22.6 38.6281 22.8251 38.8082 22.8701 38.9883V39.0333C22.8251 39.0333 22.7351 39.1233 22.645 39.1684C22.555 39.2134 22.465 39.2584 22.3749 39.3484C22.3299 39.3484 22.2398 39.3484 22.2398 39.3034C22.1948 39.2584 22.1498 39.2134 22.1498 39.2134C22.1048 39.1684 22.0598 39.0333 22.0147 38.9883C22.0147 38.8982 21.9697 38.8532 21.9697 38.8532ZM25.3013 37.6827C25.3463 37.6827 25.3463 37.6827 25.3013 37.6827C25.3013 37.6376 25.2563 37.6376 25.2563 37.6827C25.1662 37.6827 25.0312 37.8627 24.9862 37.8627C24.8511 37.9078 24.7611 37.9078 24.671 37.9078C24.4009 37.9078 24.1308 37.8627 23.8606 37.8627C23.5905 37.8177 23.2753 37.7727 23.0052 37.6376C22.645 37.5476 22.3749 37.4575 22.1048 37.3675C21.9697 37.2775 21.6996 37.1424 21.5645 37.0073C21.5645 36.9623 21.5195 36.9623 21.4745 36.8723C21.4745 36.8272 21.5195 36.7372 21.5195 36.6922L21.5645 36.5571C21.5645 36.5571 21.5645 36.5121 21.6095 36.4671C21.6095 36.422 21.5645 36.422 21.5645 36.422H21.5195C21.5195 36.422 21.5195 36.422 21.4745 36.422C21.4295 36.6021 21.3844 36.6922 21.2944 36.7822C21.2944 36.8723 21.2494 36.9623 21.2044 37.0523C21.2044 37.0974 21.1593 37.1424 21.1593 37.2324C21.1593 37.2775 21.1143 37.3225 21.1143 37.4125C21.1593 37.4575 21.1593 37.5476 21.1593 37.5926C21.2494 37.6827 21.3394 37.7277 21.4295 37.8177C21.6546 37.9078 21.9697 38.0878 22.2849 38.1329C22.555 38.2229 22.9152 38.313 23.2303 38.313C23.5005 38.403 23.8606 38.403 24.0857 38.448C24.3559 38.448 24.581 38.403 24.8511 38.2229C25.0312 38.1329 25.2113 37.9528 25.3013 37.6827Z" fill="#074826"/>
</svg>
