<svg width="54" height="54" viewBox="0 0 54 54" fill="none" xmlns="http://www.w3.org/2000/svg">
<g clip-path="url(#clip0_384_2840)">
<path d="M29.5752 9.72388C29.5914 9.83731 29.6076 9.93456 29.6238 10.0155C29.8182 10.761 29.9965 11.5065 30.191 12.2519C30.5151 13.5484 30.661 14.8773 30.6448 16.2223C30.6285 19.1879 30.6285 22.1536 30.6285 25.1192C30.6448 30.2564 30.661 35.3936 30.6771 40.5307C30.6771 40.628 30.6771 40.709 30.6771 40.8387C30.904 40.8225 31.0985 40.7739 31.293 40.79C31.5847 40.79 31.6333 40.6766 31.6333 40.4011C31.6171 36.2687 31.6333 32.1363 31.6333 28.02C31.6333 27.9228 31.6333 27.8256 31.6333 27.7121C31.8764 27.7121 32.0546 27.7283 32.2491 27.7121C32.6867 27.6797 32.6867 27.6797 32.6867 27.2745C32.6867 21.4891 32.6867 15.7037 32.6867 9.91837C32.6867 9.72388 32.6867 9.54564 32.6867 9.33496C31.6495 9.43221 30.6285 9.578 29.5752 9.72388Z" fill="white"/>
<path d="M32.9945 9.75586C32.9783 9.75586 32.9459 9.75586 32.9297 9.77204C32.9297 15.7033 32.9297 21.6345 32.9297 27.5658C33.2376 27.5658 33.5455 27.5658 33.8372 27.5658C33.8858 27.5658 33.9506 27.4524 33.9506 27.3876C33.9345 26.9824 33.8858 26.5935 33.8858 26.1883C33.8858 24.584 33.902 22.9797 33.902 21.3753C33.902 18.75 33.902 16.1409 33.902 13.5156C33.902 13.3211 33.9182 13.1266 33.8858 12.9483C33.7886 12.5108 33.6913 12.0732 33.5617 11.6519C33.3997 11.0199 33.189 10.3879 32.9945 9.75586Z" fill="white"/>
<path d="M20.9537 20.4034C20.9699 20.4196 20.9861 20.4196 21.0023 20.4358C21.1157 20.2738 21.2454 20.1279 21.3589 19.9658C21.845 19.3014 22.4284 18.7504 23.0928 18.2967C25.2158 16.8544 27.6143 16.1251 30.1423 15.7848C30.2071 15.7686 30.3206 15.6714 30.3206 15.6066C30.3206 15.1366 30.3044 14.6504 30.2881 14.1804C30.2881 14.0346 30.2071 13.986 30.0613 14.0184C29.1051 14.229 28.1166 14.3911 27.1766 14.6666C26.3664 14.9097 25.5885 15.2986 24.7944 15.6389C23.0928 16.3844 21.7478 17.5188 20.9861 19.2852C20.9537 19.3501 20.9375 19.4149 20.9375 19.4797C20.9537 19.7876 20.9537 20.0955 20.9537 20.4034Z" fill="white"/>
<path d="M29.8017 11.7489C29.6721 11.2789 29.5424 10.7766 29.4128 10.2904C29.3318 9.98249 29.2994 9.95005 28.9915 10.0311C28.5215 10.1445 28.0516 10.258 27.5978 10.4362C26.1393 10.971 24.6808 11.5544 23.4329 12.5106C22.6065 13.1426 21.861 13.8556 21.3748 14.7956C21.0507 15.4275 20.9697 16.092 20.9697 16.8212C21.0183 16.7889 21.0345 16.7889 21.0345 16.7726C21.0993 16.6754 21.1641 16.5782 21.2128 16.4809C21.5531 15.7841 22.0717 15.2169 22.6713 14.7307C23.984 13.6611 25.4911 12.9805 27.0954 12.4944C27.9705 12.2189 28.878 11.992 29.8017 11.7489Z" fill="white"/>
<path d="M20.9535 26.8044C20.9697 26.8205 21.0021 26.8205 21.0184 26.8367C21.2128 26.6422 21.4073 26.4478 21.618 26.2696C21.9258 26.0264 22.2014 25.7348 22.5417 25.5727C23.7408 25.0217 24.9401 24.4545 26.2527 24.1952C27.533 23.9521 28.7971 23.6604 30.0935 23.6118C30.2555 23.6118 30.3042 23.547 30.3042 23.4011C30.3042 23.0284 30.2879 22.6557 30.3042 22.2829C30.3204 22.0561 30.2556 21.975 30.0124 21.9913C29.3804 22.0561 28.7484 22.0885 28.1326 22.1695C26.4472 22.4126 24.8267 22.915 23.3358 23.7252C22.4769 24.1952 21.6666 24.7462 21.0669 25.5565C21.0184 25.6213 20.9535 25.7023 20.9535 25.7833C20.9373 26.1237 20.9535 26.464 20.9535 26.8044Z" fill="white"/>
<path d="M30.288 33.5136C30.1745 33.5136 30.0773 33.5136 29.98 33.5136C28.8295 33.4812 27.6951 33.6594 26.5445 33.8215C25.3453 33.9998 24.1298 34.097 22.9468 34.4535C22.3634 34.6317 21.8124 34.8587 21.2615 35.0855C21.1318 35.1503 20.9859 35.3286 20.9535 35.4583C20.9049 35.7824 20.9374 36.1227 20.9374 36.5117C21.0832 36.4792 21.2128 36.4792 21.3263 36.4306C22.1527 36.0903 22.9793 35.7824 23.8705 35.6528C25.5721 35.4097 27.2899 35.2476 29.0077 35.2314C29.4129 35.2314 29.8342 35.1828 30.2555 35.1665C30.288 34.648 30.288 34.097 30.288 33.5136Z" fill="white"/>
<path d="M20.9543 30.0457C21.2946 29.8026 21.6025 29.5433 21.9266 29.3326C22.8665 28.7655 23.9037 28.4737 24.957 28.1982C26.4479 27.7931 27.9875 27.6635 29.527 27.5662C29.7863 27.55 30.0456 27.5338 30.2887 27.5177C30.2887 26.9504 30.2887 26.4318 30.2887 25.8809C30.1915 25.8809 30.1104 25.8809 30.0131 25.8809C28.1819 25.9133 26.3831 26.2536 24.6491 26.8046C23.3365 27.2259 22.0724 27.7121 21.1001 28.7493C21.0353 28.8141 20.9705 28.8951 20.9705 28.9762C20.938 29.3326 20.9543 29.6892 20.9543 30.0457Z" fill="white"/>
<path d="M20.9541 23.5141C21.0675 23.4006 21.1486 23.3196 21.2296 23.2548C21.5375 22.9631 21.8292 22.639 22.1533 22.3796C23.5632 21.3101 25.1838 20.6943 26.8854 20.2891C27.9387 20.0299 28.9921 19.8192 30.0779 19.7543C30.1589 19.7543 30.2885 19.6733 30.2885 19.6247C30.3047 19.1386 30.3047 18.6362 30.3047 18.1338C30.1751 18.1338 30.094 18.15 30.0131 18.15C29.219 18.1986 28.4411 18.3606 27.6632 18.539C26.1237 18.8954 24.649 19.3492 23.3039 20.192C22.3153 20.8077 21.6023 21.6342 20.9865 22.5903C20.9703 22.6228 20.9703 22.6552 20.9703 22.6876C20.9541 22.9307 20.9541 23.1899 20.9541 23.5141Z" fill="white"/>
<path d="M30.2879 29.7698C30.1421 29.7698 30.0287 29.7698 29.9153 29.7698C28.7484 29.7536 27.5816 29.8994 26.431 30.1101C25.5559 30.2721 24.6808 30.4504 23.8219 30.6449C22.801 30.8718 21.9582 31.4551 21.0832 31.9737C21.0345 32.0062 20.9697 32.071 20.9535 32.1196C20.9373 32.5085 20.9535 32.8974 20.9535 33.3351C21.0507 33.2864 21.0994 33.254 21.1642 33.2378C21.6017 33.0109 22.0231 32.7678 22.493 32.5733C24.5188 31.7631 26.6417 31.4551 28.7971 31.3741C29.2994 31.358 29.7856 31.3417 30.2879 31.3255C30.2879 30.7907 30.2879 30.3046 30.2879 29.7698Z" fill="white"/>
<path d="M21.959 9.05917C21.9752 9.07535 22.0076 9.09161 22.0238 9.10779C22.0886 8.99436 22.1535 8.89712 22.2183 8.78369C22.4451 8.39477 22.672 7.98959 22.9151 7.60068C23.5958 6.54731 24.4871 5.68841 25.4432 4.89434C25.8807 4.53781 26.3669 4.22991 26.8369 3.9058C26.9989 3.79236 27.1124 3.84098 27.1934 4.03544C27.3069 4.29473 27.4365 4.53781 27.5662 4.7809C29.0895 4.1975 30.6452 3.922 32.2334 3.80856C32.2334 3.19275 32.2334 2.59314 32.2334 1.99353C32.0875 1.99353 31.9416 1.97733 31.812 1.99353C31.5041 2.02594 31.1962 2.04215 30.8883 2.10697C28.976 2.49591 27.1934 3.17654 25.5566 4.24611C24.8922 4.68367 24.1791 5.0888 23.6443 5.656C22.7531 6.59593 22.3965 7.85998 21.959 9.05917Z" fill="white"/>
<path d="M25.459 36.625C25.4914 38.1484 25.5239 39.5907 25.5562 41.0492C26.1396 41.0815 26.6906 41.114 27.2578 41.1302C27.2578 40.9681 27.2578 40.8709 27.2578 40.7737C27.2578 39.85 27.2578 38.9425 27.2578 38.0187C27.2578 37.3381 27.2578 37.3381 26.6258 37.095C26.2855 36.9491 25.9128 36.8033 25.459 36.625Z" fill="#077E40"/>
<path d="M22.4932 36.7383C22.4932 37.1596 22.4932 37.5324 22.4932 37.9213C22.4932 38.764 22.5093 39.6066 22.5093 40.4494C22.5093 40.7087 22.6066 40.7897 22.8335 40.8059C23.1414 40.8383 23.433 40.8707 23.741 40.9032C23.8707 40.9193 24.0165 40.9032 24.1137 40.9032C24.1137 39.477 24.1137 38.0834 24.1137 36.6572C23.5303 36.6735 23.0117 36.7058 22.4932 36.7383Z" fill="#077E40"/>
<path d="M22.1854 36.7061C21.5696 36.7546 21.0185 36.8032 20.4676 36.8518C20.4514 36.9005 20.4351 36.9329 20.4351 36.9491C20.4351 38.0511 20.4351 39.1531 20.4189 40.2551C20.4189 40.4333 20.5324 40.4495 20.6458 40.4658C20.8565 40.4981 21.051 40.5306 21.2617 40.5629C21.5696 40.6115 21.8774 40.644 22.1692 40.6764C22.1854 39.3476 22.1854 38.0511 22.1854 36.7061Z" fill="#077E40"/>
<path d="M32.6859 0.875C32.6697 0.875 32.6373 0.891205 32.6211 0.891205C32.6211 3.56514 32.6211 6.23906 32.6211 8.94538C32.929 8.84821 33.0263 9.02644 33.0748 9.26949C33.1073 9.39918 33.1721 9.52879 33.2207 9.65848C33.3018 9.52879 33.3179 9.39918 33.3179 9.26949C33.3504 7.66515 33.3666 6.04459 33.3989 4.44024C33.4152 3.71099 33.3341 2.99794 33.1397 2.3173C33.01 1.83114 32.848 1.36117 32.6859 0.875Z" fill="#047C3F"/>
<path d="M20.0784 40.3839C20.0946 40.3029 20.0946 40.2704 20.0946 40.2218C20.0784 39.1685 20.046 38.1313 20.0297 37.078C20.0297 36.9321 19.9487 36.8997 19.8353 36.9159C19.4301 36.9645 19.025 37.0294 18.636 37.0617C18.4416 37.078 18.3768 37.159 18.393 37.3372C18.4092 38.1799 18.4254 39.0388 18.4578 39.8815C18.4578 39.9625 18.5551 40.076 18.6199 40.0922C19.0898 40.2056 19.576 40.2866 20.0784 40.3839Z" fill="#077E40"/>
<path d="M32.2495 7.37351C32.2495 6.88735 32.2495 6.44979 32.2495 5.99604C30.9369 5.94741 29.7053 6.27153 28.4736 6.72529C28.6357 7.13043 28.7977 7.53557 28.9598 7.95692C30.0618 7.71383 31.1151 7.3411 32.2495 7.37351Z" fill="white"/>
<path d="M18.1503 40.0114C18.1503 39.0391 18.1503 38.0992 18.1503 37.143C18.1016 37.1269 18.053 37.1106 18.0207 37.1269C17.5831 37.224 17.1618 37.3213 16.7404 37.4185C16.6918 37.4347 16.627 37.5644 16.6432 37.6454C16.6432 38.2774 16.6594 38.9095 16.6918 39.5415C16.6918 39.6063 16.7728 39.7197 16.8377 39.7359C17.259 39.8332 17.6966 39.9142 18.1503 40.0114Z" fill="#077E40"/>
<path d="M25.216 41.016C25.216 39.525 25.216 38.0827 25.216 36.5918C24.908 36.6242 24.6649 36.6404 24.4219 36.6567C24.4219 38.0989 24.4219 39.5089 24.4219 40.9349C24.7135 40.9673 24.9567 40.9998 25.216 41.016Z" fill="#077E40"/>
<path d="M33.7562 11.4251C33.7886 11.4251 33.8372 11.4088 33.8696 11.4088C33.8696 10.1124 33.8696 8.83215 33.8696 7.51953C33.821 7.51953 33.74 7.51953 33.6265 7.51953C33.5941 8.5243 33.5293 9.51281 33.5293 10.5176C33.5455 10.8092 33.6914 11.1172 33.7562 11.4251Z" fill="#047C3F"/>
<path d="M16.3034 39.6225C15.882 39.5252 15.4931 39.4442 15.1042 39.347C15.0556 39.3307 15.0069 39.2822 14.9583 39.2497C12.9326 37.2078 11.5066 34.8094 10.68 32.0382C10.21 30.4825 9.967 28.8944 9.98318 27.2738C9.99936 23.5789 11.0528 20.192 13.2405 17.1939C14.8935 14.9089 17.0002 13.1425 19.5283 11.8947C20.0469 11.6354 20.5817 11.4247 21.1165 11.1816C21.3109 11.6192 21.2137 11.8299 20.8247 12.0081C17.3568 13.4666 14.6666 15.8326 12.7867 19.0899C11.7658 20.8564 11.1176 22.7687 10.8097 24.7943C10.5828 26.3015 10.5828 27.8248 10.7773 29.3481C11.1824 32.4596 12.3978 35.2146 14.3749 37.6454C14.6667 38.0019 14.9908 38.3422 15.3149 38.6988C15.3311 38.715 15.3634 38.7311 15.4607 38.796C15.4607 38.5205 15.4769 38.2936 15.4607 38.0667C15.4445 37.9047 15.5093 37.8074 15.6552 37.7588C15.8658 37.6778 16.0603 37.5806 16.3196 37.4833C16.3034 38.1964 16.3034 38.877 16.3034 39.6225Z" fill="#077E40"/>
<path d="M37.9704 39.5576C38.2459 39.4928 38.5214 39.428 38.7969 39.3794C39.0076 39.3469 39.1697 39.2335 39.3154 39.0714C41.9084 36.3651 43.4803 33.1564 43.9827 29.4291C44.1933 27.8572 44.1933 26.2852 43.9503 24.7132C43.6586 22.7038 43.0266 20.8077 42.0542 19.0413C40.4336 16.1081 38.1487 13.8393 35.2155 12.2025C35.1182 12.1539 35.0048 12.1053 34.8751 12.0566C34.8751 12.235 34.8913 12.3807 34.8751 12.5104C34.8589 12.6887 34.94 12.7859 35.0858 12.867C36.0419 13.3855 36.9171 14.0176 37.7435 14.7306C40.1582 16.8211 41.8435 19.3816 42.7835 22.4283C43.1562 23.6275 43.3669 24.8429 43.4479 26.0907C43.4803 26.5607 43.4479 27.0469 43.4479 27.533C40.5957 27.7437 37.7597 27.9544 34.8913 28.1813C35.021 28.4567 35.1344 28.6836 35.2478 28.9267C35.5396 29.5101 35.5396 29.494 36.1878 29.4453C37.387 29.3481 38.5862 29.2833 39.7854 29.186C40.4498 29.1374 41.0981 29.0888 41.7625 29.0402C42.2973 29.0077 42.8321 28.9754 43.3831 28.9429C42.8969 33.1726 41.0657 36.673 37.9704 39.5576Z" fill="#009859"/>
<path d="M16.3022 39.6231C16.3022 38.8777 16.3022 38.197 16.3022 37.4677C16.0429 37.5812 15.8484 37.6784 15.6378 37.7433C15.4919 37.7919 15.4271 37.8891 15.4433 38.0511C15.4595 38.2781 15.4433 38.5049 15.4433 38.7804C15.3622 38.7156 15.3299 38.7156 15.2974 38.6832C14.9895 38.3429 14.6492 38.0025 14.3576 37.6298C12.3805 35.1989 11.165 32.444 10.7599 29.3325C10.5654 27.8092 10.5654 26.2859 10.7923 24.7788C11.084 22.753 11.7322 20.8407 12.7694 19.0743C14.6492 15.8171 17.3393 13.451 20.8074 11.9925C21.1963 11.8304 21.2935 11.6036 21.099 11.166C20.5642 11.3929 20.0295 11.6197 19.5109 11.879C16.9829 13.1269 14.8761 14.8933 13.2232 17.1783C11.0516 20.1763 9.982 23.5633 9.96582 27.2582C9.96582 28.8787 10.2089 30.4669 10.6627 32.0227C11.4891 34.7776 12.9152 37.176 14.941 39.2341C14.9895 39.2827 15.0381 39.3152 15.0868 39.3314C15.4919 39.4448 15.8808 39.5259 16.3022 39.6231Z" fill="#009859"/>
<path d="M10.291 15.1038C11.004 15.7033 11.6847 16.2706 12.3815 16.854C12.4787 16.7243 12.576 16.627 12.657 16.5136C12.0736 16.0275 11.5064 15.5413 10.9554 15.0713C11.0365 15.0389 11.085 15.0551 11.1337 15.0713C11.7009 15.3792 12.268 15.671 12.8353 15.9626C12.9163 15.9951 13.0298 15.9626 13.127 15.9626C13.1107 15.8817 13.127 15.7682 13.0784 15.7033C12.8028 15.3469 12.5273 14.9903 12.2519 14.6338C12.0898 14.4394 11.9439 14.2287 11.7981 14.018C11.8143 14.0017 11.8305 13.9856 11.8468 13.9694C12.4139 14.4555 12.9811 14.9255 13.5807 15.4279C13.6455 15.2658 13.9696 15.201 13.7428 15.0065C13.1107 14.4394 12.4463 13.9046 11.7819 13.3535C11.7009 13.4346 11.6361 13.5156 11.5712 13.5966C11.312 13.9046 11.312 13.9046 11.555 14.2287C11.8305 14.5851 12.0898 14.9255 12.3653 15.282C12.2519 15.2982 12.1709 15.2658 12.0898 15.2334C11.7171 15.0389 11.3443 14.8283 10.9716 14.6338C10.9068 14.6014 10.7609 14.5851 10.7123 14.6338C10.5502 14.7796 10.4368 14.9417 10.291 15.1038Z" fill="#009859"/>
<path d="M42.7675 15.1359C42.7836 15.1521 42.7998 15.1683 42.816 15.1845C42.7675 15.2655 42.735 15.3466 42.6864 15.4276C42.4595 15.8003 42.2327 16.173 42.0057 16.5296C41.7789 16.9023 41.7789 16.9023 42.1354 17.2102C42.8323 16.6592 43.5453 16.1082 44.2583 15.541C44.1611 15.4114 44.0801 15.3303 43.9991 15.2169C43.5129 15.5896 43.0429 15.9624 42.573 16.3351C42.5568 16.3189 42.5405 16.3026 42.5243 16.2865C42.573 16.2055 42.6054 16.1244 42.654 16.0434C42.8809 15.6707 43.1078 15.3141 43.3346 14.9414C43.5615 14.5849 43.5453 14.5362 43.1887 14.2607C42.4919 14.8118 41.7951 15.3466 41.082 15.9137C41.1793 16.0434 41.2603 16.1406 41.3413 16.254C41.8437 15.8651 42.3137 15.5086 42.7675 15.1359Z" fill="#009859"/>
<path d="M19.8197 9.86889C19.8035 9.88515 19.7711 9.90133 19.7548 9.91751C19.69 9.85271 19.6252 9.80408 19.5766 9.73928C19.2687 9.41517 18.9446 9.09106 18.6367 8.76695C18.345 8.47521 18.345 8.47521 17.9561 8.73451C18.3125 9.54478 18.6853 10.3713 19.0418 11.1978C19.1877 11.133 19.3011 11.0843 19.4307 11.0195C19.1715 10.4523 18.9284 9.90133 18.6853 9.35036C18.7988 9.36654 18.8798 9.43135 18.9446 9.49616C19.2525 9.80408 19.5604 10.1282 19.8683 10.4523C20.16 10.7602 20.1925 10.7602 20.5651 10.4847C20.2086 9.67447 19.8359 8.84794 19.4632 8.02148C19.3173 8.08629 19.22 8.13491 19.0743 8.19972C19.3335 8.78313 19.5766 9.31792 19.8197 9.86889Z" fill="#009859"/>
<path d="M7.30865 33.5296C8.16754 33.3026 9.02643 33.0758 9.91777 32.8489C9.88533 32.7031 9.85297 32.5734 9.82052 32.4437C9.22093 32.6058 8.63752 32.7517 8.05411 32.9137C8.03792 32.8975 8.03792 32.8651 8.02166 32.8489C8.44302 32.5572 8.86438 32.2493 9.28574 31.9576C9.64229 31.6983 9.64229 31.6983 9.48023 31.2607C8.62134 31.4876 7.7462 31.7145 6.87109 31.9576C6.90351 32.1035 6.93592 32.2331 6.96833 32.3789C7.56794 32.2169 8.15136 32.071 8.73477 31.909C8.75095 31.9252 8.75095 31.9576 8.76713 31.9738C8.34577 32.2817 7.90823 32.5896 7.48691 32.8813C7.13039 33.092 7.13039 33.092 7.30865 33.5296Z" fill="#009859"/>
<path d="M9.78809 22.2828C8.91294 22.0722 8.05404 21.8777 7.16277 21.667C7.13036 21.8129 7.09794 21.9425 7.06553 22.0884C7.66514 22.2342 8.23236 22.3638 8.81577 22.4935C8.81577 22.5097 8.81577 22.5421 8.79951 22.5583C8.75088 22.5745 8.68608 22.5907 8.63745 22.5907C8.16755 22.6556 7.71376 22.7366 7.2438 22.769C6.91968 22.7852 6.80624 22.9311 6.79004 23.2227C6.79004 23.2389 6.79004 23.2552 6.80624 23.3038C7.66514 23.4982 8.54028 23.7089 9.43154 23.9196C9.46399 23.7737 9.49635 23.6441 9.52879 23.4982C8.9292 23.3524 8.34579 23.2227 7.76237 23.0769C7.81099 22.9959 7.85962 22.9797 7.90825 22.9797C8.39441 22.9148 8.88057 22.85 9.36674 22.7852C9.75565 22.7366 9.75565 22.7366 9.78809 22.2828Z" fill="#009859"/>
<path d="M39.7363 14.3586C39.8498 14.472 39.9308 14.5692 40.0443 14.6989C40.3036 14.4558 40.5466 14.2128 40.8059 14.0021C40.8707 13.9535 41.0166 13.921 41.0652 13.9535C41.2273 14.0831 41.3569 14.2451 41.5027 14.4072C41.1786 14.7151 40.887 14.9906 40.579 15.2823C40.6925 15.3958 40.7897 15.4929 40.887 15.6065C41.5676 14.9744 42.2158 14.3586 42.8802 13.7428C42.7668 13.6131 42.6696 13.5321 42.5723 13.4187C42.2968 13.6617 42.0375 13.9048 41.762 14.1479C41.5838 13.9535 41.4218 13.7752 41.2434 13.5969C41.5189 13.3376 41.762 13.0946 42.0214 12.8515C41.9079 12.738 41.8269 12.6408 41.7134 12.5273C41.049 13.1108 40.4007 13.7266 39.7363 14.3586Z" fill="#009859"/>
<path d="M46.0894 23.1574C45.9435 23.1898 45.8463 23.2222 45.7329 23.2547C45.7814 23.6274 45.7814 23.6274 45.425 23.6598C45.3925 23.6598 45.3602 23.6598 45.3277 23.6598C45.1495 23.6436 45.0036 23.5788 44.9712 23.3843C44.9225 23.1898 45.0036 23.0277 45.1818 22.9629C45.6843 22.8333 46.1866 22.7199 46.689 22.6226C46.8835 22.5902 46.9969 22.7199 47.0293 22.8981C47.078 23.0764 47.0131 23.2222 46.851 23.3032C46.77 23.3519 46.7052 23.3843 46.6241 23.4329C46.6566 23.5625 46.689 23.6922 46.7214 23.8057C47.3048 23.6598 47.4993 23.3843 47.4021 22.8657C47.321 22.3472 47.0131 22.0716 46.5107 22.1527C46.0084 22.2337 45.506 22.3795 45.0036 22.5254C44.7443 22.6064 44.5498 22.7847 44.5498 23.0926C44.5498 23.4005 44.6309 23.6598 44.9388 23.7895C44.955 23.7895 44.9712 23.8218 44.9874 23.8543C44.9064 23.9029 44.8416 23.9353 44.7767 23.9839C44.7929 24.065 44.8091 24.1459 44.8415 24.2432C45.2953 24.1459 45.7329 24.0487 46.1542 23.9353C46.1866 23.9191 46.2352 23.838 46.2352 23.8057C46.2191 23.6112 46.1542 23.4005 46.0894 23.1574Z" fill="#009859"/>
<path d="M8.10355 35.7658C8.78414 35.4904 9.43236 35.2472 10.0806 34.9879C10.3075 34.8908 10.5019 34.7449 10.5019 34.4694C10.5182 34.129 10.4047 33.8049 10.1455 33.5781C10.0158 33.4646 9.78891 33.416 9.61067 33.416C9.38373 33.4322 9.17305 33.5457 8.94619 33.6267C8.46003 33.8049 7.99005 33.9994 7.50391 34.1777C7.56873 34.3235 7.61734 34.4531 7.66596 34.599C7.94142 34.5018 8.20073 34.4045 8.46003 34.3074C8.84894 34.1615 9.23794 34.0156 9.62685 33.886C9.82135 33.8212 9.99958 33.886 10.0806 34.1129C10.1616 34.3397 10.0644 34.4694 9.86989 34.5667C9.75646 34.6152 9.62685 34.6801 9.51342 34.7287C8.99482 34.9231 8.47621 35.1176 7.9415 35.3283C8.00631 35.4741 8.03867 35.5876 8.10355 35.7658Z" fill="#009859"/>
<path d="M39.704 10.7281C39.3961 10.5012 39.0882 10.2906 38.7965 10.0637C38.6506 9.95027 38.5534 9.96645 38.4399 10.1123C38.1158 10.5823 37.7593 11.0522 37.419 11.5222C37.2731 11.7167 37.1435 11.9111 36.9814 12.1218C37.3704 12.3974 37.7269 12.6566 38.1158 12.9321C38.1969 12.8186 38.2779 12.7215 38.3589 12.608C38.0996 12.4135 37.8728 12.2353 37.6135 12.0408C37.7755 11.8139 37.9376 11.6033 38.0996 11.3926C38.3427 11.5546 38.5534 11.7167 38.7965 11.8787C38.8775 11.7653 38.9423 11.6842 39.0233 11.5708C38.8451 11.4412 38.6506 11.3278 38.4886 11.1819C38.4399 11.1333 38.3913 11.0037 38.4238 10.955C38.5047 10.793 38.6344 10.6633 38.7479 10.5175C39.0072 10.6957 39.234 10.8578 39.4933 11.036C39.5581 10.9388 39.6229 10.8578 39.704 10.7281Z" fill="#009859"/>
<path d="M39.8006 13.1585C39.7033 13.2396 39.6385 13.353 39.5413 13.3854C39.4117 13.434 39.2496 13.4502 39.1362 13.4016C38.9741 13.3206 38.958 13.1261 39.0714 12.9964C39.4117 12.5913 39.752 12.1862 40.1085 11.8134C40.1733 11.7486 40.4002 11.7648 40.4974 11.8296C40.5785 11.8782 40.5947 12.0889 40.5622 12.1862C40.4651 12.4778 40.4651 12.5265 40.7892 12.6562C40.8378 12.5751 40.9026 12.4941 40.9512 12.3969C41.1295 12.0565 41.0647 11.8296 40.7406 11.538C40.4651 11.2787 40.141 11.23 39.8654 11.4245C39.3469 11.8134 38.9417 12.2834 38.6338 12.8506C38.5042 13.0937 38.5528 13.3367 38.731 13.5474C39.1686 14.066 39.6548 14.0336 40.1085 13.4502C40.0275 13.353 39.9303 13.2719 39.8006 13.1585Z" fill="#009859"/>
<path d="M7.8928 20.6616C8.00623 20.3537 8.10348 20.0782 8.23309 19.7217C8.05485 19.7379 7.84417 19.7055 7.81176 19.7703C7.6335 20.143 7.50385 20.5482 7.3418 20.9533C8.20072 21.2936 9.02718 21.6015 9.88608 21.9419C9.95088 21.7798 9.98332 21.6663 10.0481 21.5205C9.72402 21.3908 9.43235 21.2612 9.12443 21.1478C8.96237 21.083 8.92993 21.0181 8.99474 20.8561C9.0758 20.6616 9.14061 20.451 9.23786 20.2403C9.10825 20.1917 8.99474 20.1592 8.88131 20.1106C8.78406 20.3375 8.71925 20.532 8.622 20.7264C8.58964 20.7913 8.47621 20.8723 8.42759 20.8561C8.24935 20.8237 8.08722 20.7426 7.8928 20.6616Z" fill="#009859"/>
<path d="M47.5309 24C46.7368 24.5024 45.9914 25.1182 44.9219 24.9886C44.9542 25.1993 44.9704 25.3451 45.019 25.5396C46.0076 25.1344 46.8665 25.5882 47.774 25.8475C47.7902 25.3775 47.774 25.3937 47.3851 25.2803C47.1582 25.2154 46.9313 25.1506 46.6397 25.0696C46.9152 24.9075 47.1096 24.7941 47.3041 24.6807C47.6444 24.4862 47.6444 24.4862 47.5309 24Z" fill="#009859"/>
<path d="M15.9791 13.1912C15.5091 12.5753 15.0391 11.9757 14.5692 11.3599C14.7313 11.2141 14.8609 11.1006 15.023 10.971C14.9257 10.8575 14.8609 10.7765 14.7799 10.6631C14.3423 11.0034 13.921 11.3275 13.4834 11.6679C13.5645 11.7813 13.6455 11.8785 13.7103 11.9757C13.8886 11.8461 14.0344 11.7488 14.1965 11.6354C14.6827 12.2512 15.1526 12.8509 15.6225 13.4666C15.7522 13.3694 15.8495 13.2884 15.9791 13.1912Z" fill="#009859"/>
<path d="M38.1807 9.65891C37.7108 9.38342 37.2409 9.12412 36.7709 8.84863C36.7061 8.97825 36.6412 9.07549 36.5926 9.18892C36.7709 9.30235 36.9167 9.38342 37.095 9.49685C36.7061 10.1775 36.3333 10.8257 35.9443 11.5064C36.0902 11.5874 36.2036 11.6522 36.3495 11.7333C36.6898 11.1337 37.0302 10.5502 37.3543 9.96683C37.4677 9.77234 37.5487 9.72371 37.7432 9.8534C38.0187 10.0478 38.0187 10.0316 38.1807 9.65891Z" fill="#009859"/>
<path d="M44.1929 20.4517C44.0956 20.2247 44.0146 20.0303 43.9173 19.8358C43.8202 19.6576 43.8363 19.5603 44.047 19.4955C44.3225 19.3983 44.598 19.2524 44.8735 19.139C45.2138 18.9769 45.5541 18.8311 45.9269 18.6528C45.8621 18.5069 45.7972 18.3773 45.7486 18.2314C44.9059 18.6042 44.0956 18.9769 43.2529 19.3496C43.4474 19.7872 43.6257 20.1924 43.8202 20.6137C43.9498 20.5651 44.0632 20.5165 44.1929 20.4517Z" fill="#009859"/>
<path d="M8.65457 31.1638C8.768 31.1476 8.89769 31.1314 9.01112 31.099C9.33523 31.0179 9.4811 30.7424 9.41622 30.386C9.33523 29.9646 9.12455 29.8187 8.75182 29.8674C8.42771 29.916 8.11978 29.9484 7.79568 29.997C7.39054 30.0619 6.9854 30.1267 6.54785 30.2077C6.56406 30.3697 6.59647 30.4994 6.61267 30.6452C7.35813 30.5318 8.07116 30.4183 8.80044 30.3373C8.88143 30.3211 8.97868 30.4346 9.07593 30.4994C9.01112 30.5804 8.94631 30.6938 8.86525 30.7263C8.54114 30.8073 8.54114 30.7911 8.65457 31.1638Z" fill="#009859"/>
<path d="M9.3351 24.3243C8.50856 24.1785 7.6983 24.0326 6.87181 23.8868C6.72596 23.8543 6.62872 23.8705 6.62872 24.0326C6.61252 24.1785 6.58011 24.3081 6.80699 24.3567C7.50383 24.4701 8.18445 24.5998 8.86512 24.7132C9.38372 24.7943 9.28647 24.7943 9.3351 24.3243Z" fill="#009859"/>
<path d="M15.0225 10.5171C15.5572 11.2625 16.092 11.9918 16.6268 12.7373C16.7727 12.64 16.8699 12.559 16.9996 12.4618C16.4648 11.7163 15.9462 11.0033 15.4114 10.2578C15.2655 10.3551 15.1521 10.4199 15.0225 10.5171Z" fill="#009859"/>
<path d="M29.5752 9.72325C30.6286 9.57738 31.6495 9.43159 32.6867 9.26953C32.6867 9.48021 32.6867 9.67463 32.6867 9.85294C32.6867 15.6383 32.6867 21.4237 32.6867 27.2091C32.6867 27.6305 32.6867 27.6305 32.2491 27.6467C32.0546 27.6629 31.8764 27.6467 31.6334 27.6467C31.6334 27.7601 31.6334 27.8573 31.6334 27.9546C31.6334 32.087 31.6334 36.2194 31.6334 40.3357C31.6334 40.6112 31.5685 40.7409 31.293 40.7246C31.0986 40.7246 30.9041 40.757 30.6772 40.7732C30.6772 40.6598 30.6772 40.5625 30.6772 40.4653C30.661 35.3282 30.6448 30.191 30.6286 25.0538C30.6286 22.0882 30.6124 19.1225 30.6448 16.1569C30.661 14.8118 30.5152 13.4992 30.191 12.1865C30.0127 11.441 29.8183 10.6956 29.6238 9.95011C29.6076 9.93393 29.5914 9.83668 29.5752 9.72325Z" fill="#009859"/>
<path d="M37.9695 39.5579C41.0648 36.6734 42.896 33.1729 43.4146 28.9595C42.8636 28.9919 42.3288 29.0243 41.7941 29.0568C41.1296 29.1054 40.4814 29.1539 39.817 29.2026C38.6177 29.2836 37.4185 29.3646 36.2193 29.4619C35.5549 29.5105 35.571 29.5267 35.2794 28.9433C35.1659 28.7164 35.0525 28.4733 34.9228 28.1979C37.7913 27.9872 40.6273 27.7765 43.4794 27.5496C43.4794 27.0472 43.5119 26.5772 43.4794 26.1073C43.3984 24.8594 43.1877 23.6278 42.815 22.4448C41.8751 19.3982 40.1897 16.8214 37.7751 14.7472C36.9485 14.0341 36.0735 13.4183 35.1173 12.8835C34.9715 12.8025 34.8742 12.7053 34.9066 12.527C34.9228 12.3974 34.9066 12.2515 34.9066 12.0732C35.0363 12.138 35.1498 12.1705 35.2469 12.2191C38.1802 13.8558 40.4652 16.1246 42.0857 19.0578C43.0581 20.8404 43.6901 22.7366 43.9818 24.7298C44.2087 26.3018 44.2249 27.8738 44.0142 29.4457C43.5119 33.1729 41.9399 36.3817 39.347 39.088C39.2011 39.2501 39.0391 39.3473 38.8284 39.3959C38.5205 39.4283 38.245 39.4931 37.9695 39.5579Z" fill="#009859"/>
<path d="M32.9949 9.75586C33.1894 10.3879 33.4001 11.0199 33.5783 11.6519C33.708 12.0732 33.8052 12.5108 33.9024 12.9483C33.9349 13.1266 33.9186 13.3211 33.9186 13.5156C33.9186 16.1409 33.9186 18.75 33.9186 21.3753C33.9186 22.9797 33.9024 24.584 33.9024 26.1883C33.9024 26.5935 33.9511 26.9824 33.9672 27.3876C33.9672 27.4524 33.8863 27.5497 33.8538 27.5658C33.5621 27.582 33.2542 27.5658 32.9463 27.5658C32.9463 21.6345 32.9463 15.7033 32.9463 9.77204C32.9463 9.75586 32.9787 9.75586 32.9949 9.75586Z" fill="#009859"/>
<path d="M20.9541 20.403C20.9541 20.0951 20.9541 19.7871 20.9541 19.463C20.9541 19.3982 20.9703 19.3334 21.0027 19.2686C21.7644 17.5184 23.1094 16.384 24.811 15.6223C25.5889 15.282 26.3668 14.8931 27.1932 14.65C28.1332 14.3583 29.1055 14.2125 30.0779 14.0018C30.2237 13.9694 30.2885 14.018 30.3047 14.1639C30.321 14.6338 30.3372 15.1199 30.3372 15.5899C30.3372 15.6547 30.2399 15.7682 30.1589 15.7682C27.6308 16.1085 25.2486 16.8377 23.1094 18.28C22.445 18.7338 21.8616 19.2848 21.3755 19.9492C21.262 20.1113 21.1323 20.2571 21.0189 20.4192C20.9865 20.4354 20.9703 20.4192 20.9541 20.403Z" fill="#009859"/>
<path d="M29.803 11.7495C28.863 11.9926 27.9555 12.2032 27.0643 12.4787C25.4599 12.9649 23.9528 13.6455 22.6401 14.7151C22.0405 15.2013 21.5381 15.7684 21.1816 16.4653C21.133 16.5625 21.0682 16.6598 21.0034 16.757C21.0034 16.7732 20.9709 16.7732 20.9385 16.8056C20.9385 16.0926 21.0195 15.412 21.3437 14.7799C21.8298 13.84 22.5753 13.1269 23.4017 12.4949C24.6496 11.5388 26.1081 10.9554 27.5666 10.4206C28.0203 10.2586 28.4903 10.1451 28.9603 10.0155C29.2682 9.93447 29.3006 9.96683 29.3817 10.2748C29.5437 10.7934 29.6733 11.2795 29.803 11.7495Z" fill="#009859"/>
<path d="M20.9541 26.8039C20.9541 26.4636 20.9541 26.1395 20.9541 25.7991C20.9541 25.7181 21.0189 25.6371 21.0675 25.5723C21.6671 24.7782 22.4774 24.211 23.3363 23.741C24.8434 22.9308 26.4478 22.4284 28.1332 22.1853C28.749 22.0881 29.3972 22.0719 30.013 22.0071C30.2561 21.9746 30.321 22.0719 30.3047 22.2987C30.2885 22.6715 30.2885 23.0442 30.3047 23.4169C30.3047 23.5628 30.2561 23.6276 30.094 23.6276C28.7976 23.6762 27.5173 23.9679 26.2534 24.211C24.9407 24.4703 23.7415 25.0213 22.5423 25.5885C22.2019 25.7506 21.9102 26.0422 21.6185 26.2853C21.4078 26.4636 21.2134 26.658 21.0189 26.8525C21.0027 26.8201 20.9703 26.8039 20.9541 26.8039Z" fill="#009859"/>
<path d="M30.2878 33.5137C30.2878 34.0971 30.2878 34.6319 30.2878 35.1991C29.8664 35.2153 29.4451 35.2639 29.04 35.2639C27.3222 35.2639 25.6044 35.426 23.9028 35.6853C23.0115 35.8149 22.185 36.1228 21.3585 36.4631C21.245 36.5117 21.1154 36.5117 20.9696 36.5442C20.9696 36.1552 20.9372 35.8311 20.9857 35.4908C21.002 35.3449 21.1478 35.1667 21.2937 35.118C21.8446 34.875 22.4119 34.6481 22.9791 34.486C24.1458 34.1295 25.3613 34.0161 26.5767 33.854C27.7111 33.692 28.8455 33.5137 30.0123 33.5461C30.0771 33.5299 30.1744 33.5137 30.2878 33.5137Z" fill="#009859"/>
<path d="M20.9541 30.0457C20.9541 29.673 20.9541 29.3326 20.9541 28.9762C20.9541 28.8951 21.0189 28.8141 21.0837 28.7493C22.056 27.7283 23.3201 27.2259 24.6327 26.8046C26.383 26.2536 28.1656 25.9133 29.9969 25.8809C30.0779 25.8809 30.1589 25.8809 30.2724 25.8809C30.2724 26.4318 30.2724 26.9504 30.2724 27.5177C30.0292 27.5338 29.7699 27.55 29.5106 27.5662C27.9711 27.6635 26.4316 27.8093 24.9407 28.1982C23.9035 28.4737 22.8501 28.7655 21.9102 29.3326C21.6023 29.5433 21.2944 29.8026 20.9541 30.0457Z" fill="#009859"/>
<path d="M20.9541 23.5141C20.9541 23.1899 20.9541 22.9307 20.9541 22.6876C20.9541 22.6552 20.9541 22.6228 20.9703 22.5903C21.5861 21.6504 22.3153 20.8077 23.2877 20.192C24.6327 19.3492 26.1237 18.8954 27.647 18.539C28.4249 18.3606 29.2028 18.1986 29.9969 18.15C30.0779 18.15 30.1589 18.1338 30.2885 18.1338C30.2885 18.6524 30.2885 19.1386 30.2724 19.6247C30.2724 19.6733 30.1427 19.7543 30.0617 19.7543C28.9758 19.8192 27.9225 20.0299 26.8691 20.2891C25.1675 20.7105 23.547 21.3101 22.1371 22.3796C21.7968 22.639 21.5213 22.9631 21.2134 23.2548C21.1486 23.3196 21.0837 23.4006 20.9541 23.5141Z" fill="#009859"/>
<path d="M30.2885 29.7698C30.2885 30.3046 30.2885 30.7907 30.2885 31.3255C29.7862 31.3417 29.2838 31.358 28.7976 31.3741C26.6423 31.4551 24.5031 31.7631 22.4937 32.5733C22.0399 32.7516 21.6185 33.0109 21.1648 33.2378C21.1162 33.2702 21.0675 33.2864 20.9541 33.3351C20.9541 32.9137 20.9541 32.5085 20.9541 32.1196C20.9541 32.071 21.0189 32.0062 21.0837 31.9737C21.9589 31.4551 22.8178 30.8718 23.8225 30.6449C24.6976 30.4504 25.5565 30.2721 26.4316 30.1101C27.5822 29.8994 28.7328 29.7536 29.9158 29.7698C30.0292 29.7698 30.1427 29.7698 30.2885 29.7698Z" fill="#009859"/>
<path d="M21.959 9.05917C22.3965 7.85998 22.7531 6.59593 23.6443 5.656C24.1791 5.0888 24.8922 4.66746 25.5566 4.24611C27.1934 3.19275 28.9922 2.49591 30.8883 2.10697C31.1962 2.04215 31.5041 2.02594 31.812 1.99353C31.9416 1.97733 32.0875 1.99353 32.2334 1.99353C32.2334 2.60935 32.2334 3.19275 32.2334 3.80856C30.6452 3.9058 29.0895 4.1975 27.5662 4.7809C27.4365 4.53781 27.3069 4.29473 27.1934 4.03544C27.1124 3.84098 26.9828 3.80856 26.8369 3.9058C26.3669 4.22991 25.8807 4.53781 25.4432 4.89434C24.4871 5.68841 23.5958 6.54731 22.9151 7.60068C22.672 7.98959 22.4451 8.39477 22.2183 8.78369C22.1535 8.89712 22.0886 8.99436 22.0238 9.10779C22.0076 9.09161 21.9914 9.07535 21.959 9.05917Z" fill="#009859"/>
<path d="M25.459 36.625C25.9128 36.8033 26.2693 36.9491 26.642 37.095C27.274 37.3543 27.274 37.3543 27.274 38.0187C27.274 38.9425 27.274 39.85 27.274 40.7737C27.274 40.8709 27.274 40.9844 27.274 41.1302C26.7069 41.0978 26.1558 41.0654 25.5724 41.0492C25.5401 39.5907 25.5076 38.1484 25.459 36.625Z" fill="#009859"/>
<path d="M22.4937 36.7379C23.0123 36.7054 23.5309 36.6731 24.0981 36.6406C24.0981 38.0668 24.0981 39.4604 24.0981 40.8865C23.9847 40.8865 23.855 40.9027 23.7254 40.8865C23.4174 40.8541 23.1258 40.8055 22.8178 40.7892C22.591 40.7731 22.4937 40.6921 22.4937 40.4328C22.5099 39.59 22.4937 38.7473 22.4775 37.9047C22.4937 37.532 22.4937 37.1592 22.4937 36.7379Z" fill="#009859"/>
<path d="M22.1858 36.7061C22.1858 38.0511 22.1858 39.3476 22.1858 40.6764C21.894 40.644 21.5862 40.6115 21.2783 40.5629C21.0676 40.5306 20.8731 40.4981 20.6624 40.4658C20.5328 40.4495 20.4355 40.4171 20.4355 40.2551C20.4355 39.1531 20.4355 38.0511 20.4518 36.9491C20.4518 36.9329 20.468 36.9005 20.4842 36.8518C21.019 36.8032 21.5699 36.7709 22.1858 36.7061Z" fill="#009859"/>
<path d="M32.6869 0.875C32.8327 1.36117 33.0111 1.83114 33.1407 2.3173C33.3352 3.01414 33.4162 3.72719 33.4 4.44024C33.3675 6.04459 33.3514 7.66515 33.3189 9.26949C33.3189 9.39918 33.2865 9.52879 33.2217 9.65848C33.1731 9.52879 33.1082 9.39918 33.0759 9.26949C33.0272 9.02644 32.93 8.84821 32.6221 8.94538C32.6221 6.23906 32.6221 3.56514 32.6221 0.891205C32.6545 0.891205 32.6707 0.891205 32.6869 0.875Z" fill="#009859"/>
<path d="M20.0785 40.3843C19.5761 40.2871 19.09 40.206 18.6038 40.1088C18.539 40.0926 18.4418 39.9792 18.4418 39.8981C18.4093 39.0555 18.4093 38.1966 18.377 37.3539C18.377 37.1594 18.4418 37.0946 18.62 37.0784C19.0252 37.0459 19.4303 36.9811 19.8192 36.9325C19.9489 36.9163 20.0137 36.9487 20.0137 37.0946C20.0299 38.1479 20.0623 39.1851 20.0785 40.2385C20.1109 40.2547 20.0947 40.3033 20.0785 40.3843Z" fill="#009859"/>
<path d="M32.249 7.37351C31.1146 7.3411 30.0613 7.71383 28.9755 7.95692C28.8134 7.53557 28.6513 7.13043 28.4893 6.72529C29.7047 6.27153 30.9363 5.94741 32.2652 5.99604C32.249 6.44979 32.249 6.88735 32.249 7.37351Z" fill="#009859"/>
<path d="M10.291 15.1031C10.4368 14.9249 10.5341 14.779 10.6799 14.6494C10.7286 14.6008 10.8744 14.617 10.9392 14.6494C11.312 14.8438 11.6847 15.0545 12.0574 15.249C12.1384 15.2814 12.2032 15.3138 12.3329 15.2976C12.0574 14.9411 11.7981 14.6008 11.5226 14.2442C11.2795 13.9201 11.2795 13.9201 11.5388 13.6122C11.6036 13.5312 11.6684 13.4664 11.7495 13.3691C12.4139 13.9364 13.0784 14.4711 13.7103 15.0221C13.9373 15.2165 13.6132 15.2814 13.5483 15.4435C12.9649 14.9411 12.3815 14.4712 11.8143 13.9849C11.7981 14.0012 11.7819 14.0174 11.7657 14.0335C11.9116 14.2442 12.0736 14.4387 12.2195 14.6494C12.495 15.0059 12.7866 15.3624 13.0459 15.719C13.0946 15.7838 13.0784 15.8972 13.0946 15.9783C12.9973 15.9783 12.8839 16.0106 12.8028 15.9783C12.2357 15.6865 11.6684 15.3786 11.1013 15.0869C11.0527 15.0708 11.004 15.0545 10.923 15.0869C11.4902 15.5569 12.0412 16.0269 12.6246 16.5292C12.5436 16.6427 12.4463 16.7399 12.3491 16.8695C11.6847 16.2861 11.004 15.7027 10.291 15.1031Z" fill="#009859"/>
<path d="M18.1503 40.0116C17.6965 39.9143 17.259 39.8333 16.8214 39.7361C16.7566 39.7199 16.6918 39.6064 16.6756 39.5416C16.6432 38.9096 16.627 38.2776 16.627 37.6456C16.627 37.5645 16.6756 37.4349 16.7242 37.4187C17.1456 37.3053 17.5831 37.208 18.0045 37.127C18.0369 37.127 18.0693 37.1432 18.1341 37.1432C18.1503 38.0831 18.1503 39.0392 18.1503 40.0116Z" fill="#009859"/>
<path d="M25.216 41.0163C24.9729 41.0001 24.7136 40.9677 24.4219 40.9515C24.4219 39.5254 24.4219 38.0993 24.4219 36.6732C24.6487 36.657 24.908 36.6246 25.216 36.6084C25.216 38.0831 25.216 39.5254 25.216 41.0163Z" fill="#009859"/>
<path d="M42.7668 15.1359C42.3131 15.4924 41.8431 15.8651 41.357 16.254C41.2759 16.1406 41.1949 16.0434 41.0977 15.9137C41.8107 15.3466 42.5075 14.8118 43.2044 14.2607C43.5609 14.5362 43.5609 14.5849 43.3502 14.9414C43.1234 15.3141 42.8965 15.6707 42.6696 16.0434C42.621 16.1244 42.5886 16.2055 42.54 16.2865C42.5561 16.3026 42.5724 16.3189 42.5886 16.3351C43.0586 15.9624 43.5285 15.6058 44.0146 15.2169C44.1119 15.3303 44.1767 15.4276 44.2739 15.541C43.5609 16.1082 42.8641 16.6592 42.151 17.2102C41.7945 16.9185 41.7945 16.9023 42.0214 16.5296C42.2483 16.1569 42.4752 15.7841 42.702 15.4276C42.7506 15.3466 42.783 15.2655 42.8316 15.1845C42.7993 15.1683 42.7831 15.1521 42.7668 15.1359Z" fill="#009859"/>
<path d="M19.8191 9.86931C19.576 9.31834 19.3329 8.76737 19.0899 8.2164C19.2195 8.15152 19.3329 8.10289 19.4788 8.03809C19.8515 8.86462 20.2081 9.69107 20.5808 10.5013C20.2081 10.7606 20.1756 10.7606 19.884 10.469C19.576 10.1449 19.2681 9.83695 18.9602 9.51284C18.8954 9.44803 18.8144 9.39941 18.701 9.36696C18.944 9.91793 19.1871 10.469 19.4464 11.0361C19.3167 11.1009 19.2033 11.1496 19.0574 11.2144C18.6847 10.3879 18.3282 9.56146 17.9717 8.75119C18.3769 8.49189 18.3769 8.49189 18.6523 8.78355C18.9602 9.10766 19.2843 9.43177 19.5922 9.75588C19.657 9.82069 19.7057 9.86931 19.7705 9.93419C19.7705 9.90175 19.8029 9.88557 19.8191 9.86931Z" fill="#009859"/>
<path d="M7.30923 33.5297C7.13097 33.0922 7.13097 33.0922 7.47128 32.8491C7.90883 32.5412 8.33019 32.2333 8.75155 31.9415C8.73536 31.9254 8.73529 31.893 8.7191 31.8767C8.13569 32.0226 7.55231 32.1847 6.95271 32.3467C6.9203 32.2008 6.88788 32.0712 6.85547 31.9254C7.74678 31.6985 8.60567 31.4716 9.46457 31.2285C9.62662 31.6823 9.62662 31.6823 9.27007 31.9254C8.84879 32.2171 8.42744 32.525 8.00608 32.8167C8.02226 32.8329 8.02226 32.8653 8.03844 32.8815C8.62186 32.7356 9.20527 32.5736 9.80486 32.4115C9.8373 32.5574 9.86975 32.6708 9.90211 32.8167C9.02703 33.076 8.16813 33.3029 7.30923 33.5297Z" fill="#009859"/>
<path d="M9.78847 22.2832C9.75603 22.7369 9.75603 22.7532 9.3833 22.8017C8.89714 22.8666 8.41097 22.9314 7.92481 22.9962C7.87618 22.9962 7.82756 23.0287 7.77898 23.0935C8.36235 23.2231 8.94576 23.3689 9.54535 23.5148C9.51299 23.6606 9.48055 23.7741 9.44818 23.9362C8.55684 23.7255 7.68174 23.5148 6.82285 23.3203C6.80664 23.2717 6.80664 23.2555 6.80664 23.2393C6.82285 22.9638 6.93628 22.8017 7.2604 22.7855C7.73036 22.7694 8.18411 22.6721 8.65409 22.6073C8.7189 22.6073 8.76752 22.5911 8.81615 22.5749C8.81615 22.5587 8.81615 22.5262 8.83233 22.51C8.26518 22.3804 7.68174 22.2346 7.08214 22.1049C7.11455 21.9591 7.14696 21.8294 7.17937 21.6836C8.0545 21.878 8.9134 22.0725 9.78847 22.2832Z" fill="#009859"/>
<path d="M7.64887 26.2693C7.92434 25.8642 8.29707 25.929 8.68607 26.0263C8.94529 26.0911 9.07498 26.2855 9.09117 26.5286C9.10735 26.7879 9.09117 27.0634 9.09117 27.3389C9.09117 27.4686 9.02636 27.5334 8.88049 27.5334C8.11884 27.5009 7.34097 27.4847 6.5793 27.4686C6.41724 27.4686 6.35242 27.4037 6.36863 27.2254C6.38483 26.9986 6.36863 26.7717 6.38483 26.5448C6.41724 26.3179 6.48206 26.1072 6.74136 26.0263C7.03306 25.929 7.30856 25.9614 7.55164 26.1559C7.58405 26.1883 7.61646 26.2207 7.64887 26.2693ZM8.31333 27.0634C8.31333 27.0796 8.31333 27.0796 8.31333 27.0634C8.37814 27.0634 8.44295 27.0634 8.49157 27.0634C8.70225 27.0958 8.78324 27.0148 8.76706 26.7879C8.73461 26.48 8.45913 26.3179 8.0864 26.4152C7.84335 26.48 7.81093 26.6907 7.81093 26.8852C7.81093 27.112 8.00541 27.0148 8.11884 27.0472C8.18364 27.0796 8.24845 27.0634 8.31333 27.0634ZM7.09788 27.0148C7.09788 27.031 7.09788 27.031 7.09788 27.0472C7.22752 27.0148 7.40579 27.0309 7.47061 26.9661C7.53543 26.9013 7.48682 26.7231 7.4382 26.6097C7.38959 26.4638 7.06547 26.4152 6.871 26.48C6.64413 26.561 6.67654 26.7555 6.69274 26.9175C6.69274 26.9661 6.8548 26.9986 6.95203 27.0309C7.00065 27.0309 7.04926 27.0148 7.09788 27.0148Z" fill="#009859"/>
<path d="M43.9505 33.3993C44.0153 33.2534 44.0639 33.14 44.1125 32.9941C44.9714 33.3182 45.7979 33.6424 46.6568 33.9665C46.5271 34.3068 46.4137 34.5985 46.3003 34.8902C46.1544 35.2467 45.96 35.3602 45.6844 35.3278C45.3117 35.2953 45.0686 35.1009 44.9714 34.7282C44.4691 35.1009 44.0315 34.5823 43.4805 34.6471C43.5453 34.4527 43.6102 34.3068 43.675 34.1286C43.8856 34.1934 44.0801 34.2744 44.2746 34.3393C44.7607 34.5175 44.9714 34.3878 45.0525 33.8369C44.7121 33.691 44.3556 33.5452 43.9505 33.3993ZM45.3441 33.9341C45.3117 34.1934 45.2145 34.4364 45.2955 34.6309C45.3441 34.7606 45.6359 34.8741 45.7979 34.8416C46.0734 34.8092 46.0734 34.5013 46.1869 34.2582C45.9275 34.1448 45.6844 34.0637 45.3441 33.9341Z" fill="#009859"/>
<path d="M10.8747 16.708C11.4582 16.4649 11.7985 17.0158 12.2846 17.0969C12.2523 17.1455 12.2523 17.1779 12.236 17.2103C12.0416 17.5506 12.0416 17.5506 11.685 17.3562C11.5554 17.2751 11.442 17.1941 11.2961 17.1293C11.0206 16.9835 10.6479 17.1941 10.6154 17.502C10.6154 17.5506 10.6803 17.6317 10.7451 17.664C11.0206 17.8424 11.2961 18.0206 11.5878 18.1988C11.5068 18.3285 11.442 18.442 11.3447 18.5716C10.5831 18.0854 9.82136 17.6155 9.02734 17.1131C9.2542 16.7728 9.46488 16.4325 9.70793 16.1246C9.83762 15.9462 10.032 15.8653 10.259 15.9625C10.5345 16.0759 10.8099 16.2056 10.8423 16.5459C10.8747 16.6107 10.8747 16.6431 10.8747 16.708ZM10.0645 16.4162C9.9186 16.4162 9.54587 16.8051 9.61068 16.87C9.78899 17.0483 10.0159 17.1779 10.2427 17.3238C10.3561 17.1617 10.502 16.9996 10.5506 16.8051C10.6154 16.6594 10.2913 16.4162 10.0645 16.4162Z" fill="#009859"/>
<path d="M45.0846 27.3711C45.9921 27.3711 46.8672 27.3711 47.8072 27.3711C47.7747 27.7762 47.791 28.1489 47.7099 28.4893C47.6289 28.8458 46.9969 28.9755 46.6728 28.7162C46.6242 28.6675 46.5756 28.6189 46.5107 28.5379C46.3163 28.8782 46.0246 28.9107 45.7005 28.8782C45.3115 28.8458 45.1171 28.6837 45.0522 28.2948C45.036 28.2138 45.0198 28.1327 45.036 28.0679C45.0684 27.8248 45.0846 27.598 45.0846 27.3711ZM46.3324 27.7762C46.0569 27.7762 45.7815 27.7762 45.5222 27.7762C45.4898 27.7762 45.4249 27.8573 45.4249 27.8896C45.3601 28.1327 45.4898 28.3272 45.749 28.392C46.1542 28.5055 46.3649 28.311 46.3324 27.7762ZM46.7214 27.7925C46.6079 28.2462 46.7376 28.392 47.159 28.3759C47.3858 28.3596 47.4831 28.23 47.4831 27.9707C47.4831 27.7276 47.3048 27.8086 47.1913 27.7925C47.0293 27.7762 46.8672 27.7925 46.7214 27.7925Z" fill="#009859"/>
<path d="M45.8457 36.058C45.6512 36.4145 45.473 36.7549 45.2785 37.0627C45.1489 37.2572 44.922 37.3383 44.6789 37.2734C44.1279 37.1276 43.6093 36.8683 43.1718 36.4956C42.8639 36.2363 42.8315 36.0256 42.9936 35.669C43.1232 35.3935 43.269 35.1019 43.4148 34.7939C44.2089 35.2315 45.003 35.6367 45.8457 36.058ZM43.5283 35.3774C43.2366 35.7663 43.2042 35.9931 43.4959 36.1876C43.8524 36.4145 44.2414 36.609 44.6465 36.771C44.9382 36.8845 45.1975 36.7062 45.2623 36.3983C45.2785 36.3497 45.2299 36.2524 45.1812 36.2201C44.6465 35.9446 44.0955 35.669 43.5283 35.3774Z" fill="#009859"/>
<path d="M39.7363 14.3578C40.4007 13.7258 41.0652 13.1262 41.7296 12.4941C41.843 12.6076 41.9241 12.7048 42.0375 12.8182C41.7782 13.0614 41.5352 13.3044 41.2597 13.5637C41.4379 13.742 41.5838 13.9203 41.7782 14.1147C42.0537 13.8716 42.313 13.6285 42.5885 13.3855C42.6858 13.4989 42.783 13.5799 42.8964 13.7096C42.232 14.3254 41.5838 14.9412 40.9032 15.5733C40.8059 15.4597 40.7087 15.3626 40.5952 15.2491C40.9032 14.9574 41.1948 14.6819 41.5189 14.374C41.3731 14.2119 41.2434 14.0499 41.0814 13.9203C41.0328 13.8878 40.887 13.9203 40.8221 13.9689C40.5629 14.1796 40.3359 14.4226 40.0604 14.6657C39.9308 14.5685 39.8336 14.4712 39.7363 14.3578Z" fill="#009859"/>
<path d="M46.0887 23.1578C46.1536 23.4008 46.2022 23.6115 46.2508 23.8222C46.2508 23.8546 46.2022 23.9519 46.1698 23.9519C45.7323 24.0653 45.2947 24.1463 44.8571 24.2597C44.8247 24.1463 44.8085 24.0815 44.7923 24.0005C44.8571 23.9681 44.922 23.9194 45.003 23.8708C44.9868 23.8384 44.9706 23.8222 44.9543 23.806C44.6465 23.6764 44.5654 23.4171 44.5654 23.1092C44.5654 22.8012 44.7599 22.623 45.0191 22.5419C45.5054 22.3961 46.0077 22.2503 46.5263 22.1693C47.0287 22.0882 47.3366 22.3637 47.4176 22.8823C47.4987 23.4008 47.3204 23.6764 46.7369 23.8222C46.7046 23.7087 46.6721 23.5791 46.6398 23.4494C46.7208 23.4008 46.8018 23.3685 46.8666 23.3198C47.0287 23.2226 47.0935 23.093 47.0449 22.9147C46.9962 22.7364 46.8828 22.5905 46.7046 22.6392C46.2022 22.7364 45.6998 22.8499 45.1975 22.9795C45.003 23.0282 44.9382 23.1902 44.9868 23.4008C45.0354 23.5953 45.165 23.6601 45.3433 23.6764C45.3757 23.6764 45.4081 23.6764 45.4405 23.6764C45.7971 23.6439 45.7971 23.6439 45.7484 23.2712C45.8457 23.2226 45.9429 23.2064 46.0887 23.1578Z" fill="#009859"/>
<path d="M47.6285 30.2395C47.6285 30.8877 47.2719 31.2118 46.6075 31.1146C46.1862 31.066 45.7648 31.0012 45.3597 30.8877C44.8573 30.758 44.6952 30.4177 44.7925 29.9154C44.8897 29.4454 45.2138 29.2023 45.7 29.2672C46.1051 29.3157 46.5264 29.3806 46.9316 29.4616C47.4016 29.5589 47.6285 29.8343 47.6285 30.2395ZM45.7324 29.7209C45.7324 29.7371 45.7324 29.7371 45.7324 29.7533C45.7 29.7533 45.6675 29.7533 45.6352 29.7533C45.3273 29.7533 45.1814 29.8505 45.149 30.0775C45.1166 30.3367 45.2786 30.4502 45.4893 30.4826C45.9593 30.5636 46.4293 30.6284 46.8992 30.677C47.1099 30.7094 47.2719 30.5798 47.2882 30.3529C47.3044 30.1261 47.1747 30.0126 46.9802 29.964C46.5589 29.8668 46.1375 29.802 45.7324 29.7209Z" fill="#009859"/>
<path d="M9.07551 17.8906C9.22138 17.9231 9.36725 17.9554 9.49686 18.0203C9.91822 18.231 10.3558 18.4417 10.7447 18.7009C11.1012 18.944 11.1337 19.2843 10.923 19.6895C10.7123 20.0946 10.4206 20.2891 10.0155 20.127C9.49686 19.9163 9.0107 19.6409 8.52454 19.3492C8.23287 19.1709 8.18424 18.8468 8.29768 18.5388C8.45973 18.1013 8.70277 17.9069 9.07551 17.8906ZM8.94589 18.312C8.86483 18.3768 8.7514 18.4579 8.68659 18.5713C8.57316 18.7495 8.67041 18.9278 8.83246 19.0088C9.25382 19.2357 9.6751 19.4626 10.1127 19.6733C10.291 19.7543 10.5016 19.7381 10.5989 19.5112C10.6961 19.3006 10.6312 19.1061 10.4206 19.0088C10.0317 18.7981 9.62655 18.6037 9.22138 18.393C9.17275 18.3606 9.09177 18.3606 8.94589 18.312Z" fill="#009859"/>
<path d="M44.9221 22.105C44.4522 22.105 44.2253 21.9429 44.0956 21.5702C43.9498 21.1327 43.9822 20.8572 44.3063 20.6465C44.8411 20.2899 45.4569 20.1117 46.0889 20.0468C46.4454 20.0145 46.6723 20.2575 46.8182 20.6627C46.9316 21.0354 46.8506 21.3433 46.5427 21.5378C46.0241 21.8619 45.4407 22.0239 44.9221 22.105ZM44.8087 21.7161C45.3111 21.5378 45.8134 21.3595 46.2996 21.1488C46.4779 21.084 46.5102 20.9057 46.4454 20.7275C46.3806 20.5492 46.2348 20.4358 46.0565 20.4844C45.5541 20.6302 45.0518 20.8085 44.5656 20.9868C44.3874 21.0516 44.3387 21.2136 44.3874 21.3919C44.4846 21.5864 44.598 21.6674 44.8087 21.7161Z" fill="#009859"/>
<path d="M16.1406 10.1445C16.1568 9.64215 16.4486 9.46384 16.7727 9.31805C17.032 9.20454 17.3399 9.25316 17.5505 9.49628C17.9557 9.95 18.2473 10.4848 18.4418 11.0682C18.5229 11.3275 18.4094 11.603 18.1825 11.7812C17.8746 12.0082 17.5343 12.1864 17.2102 11.9271C16.643 11.4409 16.3351 10.7765 16.1406 10.1445ZM17.032 9.65834C16.6754 9.65834 16.5134 9.90138 16.643 10.1931C16.8536 10.6145 17.0806 11.0196 17.3236 11.4086C17.4371 11.603 17.6316 11.7002 17.8584 11.5706C18.1015 11.4409 18.0691 11.2141 17.9718 11.0358C17.7612 10.6307 17.5343 10.2417 17.2913 9.85276C17.2102 9.75559 17.0806 9.70696 17.032 9.65834Z" fill="#009859"/>
<path d="M45.3431 17.4211C45.2459 17.5832 45.1811 17.7777 45.0514 17.8911C44.5976 18.28 44.0791 18.588 43.4957 18.75C43.1553 18.8473 42.8961 18.7014 42.6854 18.3449C42.4748 17.9884 42.4748 17.6643 42.7178 17.4211C43.204 16.9512 43.7712 16.6432 44.4194 16.4812C44.8246 16.3678 45.3107 16.9025 45.3431 17.4211ZM44.8894 17.3563C44.8894 17.016 44.6787 16.8216 44.4194 16.935C43.9657 17.1457 43.5119 17.405 43.0743 17.6643C42.8798 17.7777 42.8637 17.9721 42.9771 18.1666C43.0905 18.3611 43.285 18.3773 43.4471 18.28C43.8684 18.0694 44.2898 17.8263 44.6949 17.5832C44.7921 17.5346 44.8569 17.405 44.8894 17.3563Z" fill="#009859"/>
<path d="M8.10355 35.7654C8.03867 35.6033 7.99005 35.4736 7.9415 35.3278C8.47621 35.1172 8.99482 34.9227 9.51342 34.7282C9.62685 34.6795 9.75646 34.631 9.86989 34.5661C10.0644 34.4689 10.1616 34.3392 10.0806 34.1124C9.99958 33.8855 9.83753 33.8206 9.62685 33.8855C9.23794 34.0151 8.84894 34.161 8.46003 34.3068C8.20073 34.4041 7.94142 34.5013 7.66597 34.5985C7.60114 34.4527 7.56873 34.3392 7.50391 34.1772C7.99005 33.9827 8.47621 33.8045 8.94619 33.6262C9.15687 33.5452 9.38373 33.4317 9.61067 33.4155C9.78891 33.3994 10.0158 33.4642 10.1455 33.5776C10.4047 33.8045 10.5019 34.1286 10.5019 34.4689C10.5019 34.7444 10.3075 34.8902 10.0806 34.9875C9.44862 35.2468 8.78414 35.4899 8.10355 35.7654Z" fill="#009859"/>
<path d="M44.7284 31.0176C45.2307 31.2769 45.7169 31.5362 46.2193 31.7954C46.4786 31.9251 46.7378 32.071 46.9971 32.2006C47.1268 32.2654 47.1916 32.3302 47.1268 32.4761C47.0944 32.5571 47.0782 32.6381 47.062 32.7192C47.0457 32.865 46.9647 32.9136 46.8189 32.9136C45.9924 32.8812 45.1821 32.8488 44.3556 32.8164C44.3232 32.8164 44.2908 32.8002 44.2422 32.8002C44.2584 32.7192 44.2746 32.6381 44.2908 32.5733C44.3232 32.3951 44.4042 32.2816 44.5987 32.3626C44.6311 32.3788 44.6635 32.3626 44.6959 32.3788C45.02 32.3951 45.247 32.152 45.1983 31.8278C45.1983 31.7954 45.1497 31.7468 45.1011 31.7144C45.0363 31.6658 44.9715 31.6334 44.8904 31.601C44.5177 31.4389 44.5177 31.4227 44.7284 31.0176ZM46.5272 32.4922C46.5272 32.4599 46.5434 32.4274 46.5434 32.4113C46.2193 32.2492 45.8952 32.1033 45.5548 31.9251C45.5063 32.1033 45.4738 32.2492 45.4252 32.4274C45.8304 32.4436 46.1707 32.4761 46.5272 32.4922Z" fill="#009859"/>
<path d="M9.09195 27.7603C9.09195 27.8576 9.09195 27.9548 9.10821 28.0358C9.14057 28.1817 9.05958 28.2465 8.92989 28.2789C8.39511 28.4248 8.39511 28.4248 8.50861 29.0244C8.60578 29.0406 8.71929 29.0892 8.83272 29.0892C9.20546 29.0892 9.254 29.0892 9.1892 29.5915C8.49235 29.4781 7.77933 29.3809 7.08249 29.2674C7.01767 29.2513 6.96905 29.2513 6.90423 29.2351C6.46667 29.1864 6.41806 29.1378 6.45047 28.684C6.45047 28.603 6.53149 28.4896 6.59632 28.4734C7.39039 28.2303 8.20069 27.9872 8.99478 27.7441C9.01096 27.7441 9.0434 27.7603 9.09195 27.7603ZM8.13588 29.0082C8.11962 28.7975 8.10344 28.6678 8.08726 28.4896C7.6983 28.5869 7.35798 28.684 7.00146 28.7813C7.00146 28.8137 7.00146 28.8461 7.00146 28.8785C7.35798 28.911 7.73071 28.9596 8.13588 29.0082Z" fill="#009859"/>
<path d="M13.1275 12.2349C12.8844 12.0728 12.8357 12.3808 12.6737 12.4618C12.5441 12.5428 12.5441 12.64 12.6251 12.7697C12.9168 13.2397 13.2085 13.7096 13.484 14.1795C13.6461 14.4389 13.8081 14.6982 13.9539 14.9575C14.0836 14.8439 14.1971 14.7468 14.2943 14.6657C14.1646 14.455 14.0512 14.2606 13.9378 14.0661C13.9864 14.0175 14.035 13.9689 14.0674 13.9202C14.3753 13.6123 14.3753 13.6123 14.7318 13.8554C14.8128 13.9041 14.8776 13.9527 14.9587 14.0175C15.0721 13.9041 15.1856 13.8068 15.3153 13.6934C14.586 13.191 13.873 12.7049 13.1275 12.2349ZM13.7433 13.7906C13.5164 13.4503 13.3219 13.1424 13.1113 12.8345C13.1275 12.8183 13.1598 12.7859 13.1761 12.7697C13.4678 12.9641 13.7595 13.1748 14.0998 13.4017C13.9864 13.5313 13.8891 13.6448 13.7433 13.7906Z" fill="#009859"/>
<path d="M39.7046 10.7279C39.6236 10.8413 39.5588 10.9385 39.4777 11.052C39.2184 10.8737 38.9915 10.7116 38.7322 10.5334C38.6188 10.6792 38.4892 10.825 38.4081 10.9709C38.3758 11.0195 38.4244 11.1491 38.4729 11.1978C38.635 11.3436 38.8133 11.4571 39.0077 11.5868C38.9267 11.7002 38.8619 11.7812 38.7809 11.8946C38.554 11.7326 38.3271 11.5868 38.084 11.4084C37.922 11.6354 37.7761 11.8298 37.5979 12.0567C37.8572 12.2512 38.1002 12.4294 38.3433 12.6239C38.2623 12.7373 38.1975 12.8346 38.1002 12.948C37.7275 12.6725 37.371 12.4132 36.9658 12.1377C37.1117 11.927 37.2576 11.7326 37.4034 11.5381C37.7437 11.0682 38.084 10.5982 38.4244 10.1282C38.5378 9.96613 38.6188 9.94995 38.7809 10.0796C39.0888 10.3065 39.3967 10.5009 39.7046 10.7279Z" fill="#009859"/>
<path d="M39.8006 13.1592C39.9303 13.2727 40.0275 13.3537 40.1085 13.4347C39.6548 14.0181 39.1686 14.0505 38.731 13.532C38.5528 13.3213 38.5042 13.062 38.6338 12.8351C38.9417 12.2679 39.3469 11.7979 39.8654 11.409C40.141 11.1983 40.4651 11.2631 40.7406 11.5224C41.0647 11.8142 41.1295 12.0572 40.9512 12.3813C40.9026 12.4786 40.8378 12.5596 40.7892 12.6406C40.4651 12.511 40.4651 12.4624 40.5622 12.1706C40.5947 12.0572 40.5622 11.8628 40.4974 11.8142C40.4002 11.7493 40.1733 11.7331 40.1085 11.7979C39.7358 12.1706 39.3955 12.5758 39.0714 12.9809C38.958 13.1268 38.9741 13.305 39.1362 13.3861C39.2334 13.4347 39.4117 13.4185 39.5413 13.3699C39.6385 13.3699 39.7033 13.2565 39.8006 13.1592Z" fill="#009859"/>
<path d="M11.3111 36.0411C11.3922 36.1869 11.4408 36.3004 11.5218 36.4462C10.7115 36.8514 9.91746 37.2565 9.07482 37.6779C8.89651 37.2889 8.73445 36.9324 8.5724 36.5597C8.54003 36.4949 8.55621 36.4139 8.5724 36.3491C8.70209 35.9925 9.00994 35.8466 9.3503 35.7656C9.64197 35.7008 9.85265 35.8305 10.0147 36.0735C10.112 36.2194 10.1768 36.3652 10.274 36.5435C10.6143 36.3814 10.9384 36.2194 11.3111 36.0411ZM9.98226 36.7217C9.91746 36.5921 9.86883 36.4625 9.78784 36.3652C9.67441 36.2194 9.52854 36.1707 9.3503 36.2194C9.17199 36.2842 8.94513 36.349 8.96131 36.5759C8.96131 36.738 9.07482 36.9162 9.13963 37.0783C9.13963 37.0944 9.23687 37.0944 9.28542 37.0621C9.51236 36.9648 9.72304 36.8514 9.98226 36.7217Z" fill="#009859"/>
<path d="M7.89242 20.6616C8.08684 20.7426 8.24889 20.8237 8.41094 20.8561C8.45957 20.8723 8.573 20.7913 8.60544 20.7264C8.70269 20.532 8.7675 20.3375 8.86474 20.1106C8.97817 20.1592 9.0916 20.1917 9.22122 20.2403C9.14023 20.4671 9.07542 20.6616 8.97817 20.8561C8.91337 21.0019 8.94573 21.083 9.10779 21.1478C9.41571 21.2612 9.70738 21.3908 10.0316 21.5205C9.98294 21.6663 9.93432 21.796 9.86944 21.9419C9.01054 21.6178 8.18408 21.2936 7.3252 20.9533C7.48725 20.5482 7.61689 20.143 7.79515 19.7703C7.82753 19.7217 8.02203 19.7379 8.21653 19.7217C8.1031 20.0782 8.00585 20.3537 7.89242 20.6616Z" fill="#009859"/>
<path d="M47.5316 24C47.6612 24.47 47.6612 24.47 47.2884 24.6807C47.094 24.7941 46.8833 24.9075 46.624 25.0696C46.932 25.1506 47.1427 25.2316 47.3695 25.2803C47.7584 25.3937 47.7584 25.3937 47.7584 25.8475C46.8672 25.5882 45.992 25.1506 45.0035 25.5396C44.9711 25.3289 44.9549 25.1993 44.9062 24.9886C45.9758 25.1182 46.7213 24.5024 47.5316 24Z" fill="#009859"/>
<path d="M15.9791 13.1916C15.8657 13.2888 15.7522 13.3698 15.6225 13.4833C15.1526 12.8675 14.6827 12.2841 14.1965 11.652C14.0344 11.7655 13.8886 11.879 13.7103 11.9924C13.6293 11.8951 13.5645 11.7979 13.4834 11.6845C13.921 11.3442 14.3423 11.0201 14.7799 10.6797C14.8609 10.7769 14.9257 10.8742 15.023 10.9876C14.8771 11.1172 14.7313 11.2469 14.5692 11.3765C15.0391 11.9761 15.4929 12.5758 15.9791 13.1916Z" fill="#009859"/>
<path d="M38.1803 9.65891C38.0183 10.0316 38.0183 10.0478 37.7266 9.8534C37.5159 9.72371 37.4349 9.77234 37.3377 9.96683C37.0136 10.5502 36.6732 11.1174 36.3329 11.7333C36.2033 11.6522 36.0736 11.5874 35.9277 11.5064C36.3167 10.8257 36.6895 10.1775 37.0784 9.49685C36.9001 9.38342 36.7543 9.30235 36.576 9.18892C36.6408 9.07549 36.6895 8.97825 36.7543 8.84863C37.2404 9.12412 37.7104 9.38342 38.1803 9.65891Z" fill="#009859"/>
<path d="M44.1929 20.4517C44.047 20.5165 43.9498 20.5489 43.8202 20.6137C43.6257 20.1924 43.4474 19.7872 43.2529 19.3496C44.0956 18.9769 44.9059 18.6042 45.7486 18.2314C45.8134 18.3773 45.8621 18.4907 45.9269 18.6528C45.5703 18.8149 45.23 18.9769 44.8735 19.139C44.598 19.2687 44.3225 19.3983 44.047 19.4955C43.8363 19.5765 43.8363 19.6738 43.9173 19.8358C44.0308 20.0303 44.0956 20.241 44.1929 20.4517Z" fill="#009859"/>
<path d="M8.65457 31.1638C8.54114 30.7911 8.54114 30.8073 8.86525 30.71C8.94631 30.6777 9.01112 30.5642 9.07593 30.4832C8.97868 30.4346 8.88143 30.3211 8.80044 30.3211C8.08742 30.4021 7.37434 30.5156 6.61267 30.629C6.59647 30.4994 6.58026 30.3536 6.54785 30.1915C6.96919 30.1266 7.37434 30.0456 7.79568 29.9808C8.1036 29.9322 8.42771 29.8998 8.75182 29.8511C9.12455 29.8025 9.31905 29.9646 9.41622 30.3697C9.49728 30.71 9.33523 31.0018 9.01112 31.0828C8.89769 31.1314 8.768 31.1314 8.65457 31.1638Z" fill="#009859"/>
<path d="M9.3351 24.3243C9.28647 24.7943 9.36746 24.8105 8.86512 24.7132C8.18445 24.5836 7.48763 24.4539 6.80699 24.3567C6.58011 24.3243 6.61252 24.1785 6.62872 24.0326C6.64493 23.8705 6.72596 23.8543 6.87181 23.8868C7.6983 24.0326 8.50856 24.1785 9.3351 24.3243Z" fill="#009859"/>
<path d="M15.0225 10.5171C15.1683 10.4199 15.2656 10.3388 15.3952 10.2578C15.93 10.987 16.4486 11.7163 16.9834 12.4618C16.8537 12.559 16.7564 12.64 16.6106 12.7373C16.0759 11.9918 15.5572 11.2625 15.0225 10.5171Z" fill="#009859"/>
<path d="M33.7562 11.4251C33.6751 11.1172 33.5293 10.8093 33.5293 10.5175C33.5293 9.52903 33.5941 8.54052 33.6265 7.51953C33.7237 7.51953 33.8048 7.51953 33.8696 7.51953C33.8696 8.83219 33.8696 10.1124 33.8696 11.4089C33.8371 11.4089 33.8048 11.4089 33.7562 11.4251Z" fill="#009859"/>
<path d="M36.7378 43.7713C36.7053 43.5768 36.5757 43.4796 36.3812 43.512C35.7978 43.6093 35.2144 43.7065 34.5986 43.8199C34.6473 44.0792 34.6959 44.2898 34.7445 44.5654C35.3603 44.4357 35.9275 44.3061 36.4947 44.1764C36.7215 44.144 36.7864 43.982 36.7378 43.7713Z" fill="#009859"/>
<path d="M18.9278 43.7877C18.474 43.6419 17.9878 43.5447 17.5179 43.4313C17.4693 43.4151 17.372 43.4799 17.372 43.5123C17.291 43.8364 17.2262 44.1605 17.1289 44.5332C17.6637 44.6305 18.1661 44.7439 18.6846 44.8249C19.0088 44.8736 19.1708 44.7277 19.2519 44.4198C19.3167 44.1118 19.2194 43.885 18.9278 43.7877Z" fill="#009859"/>
<path d="M36.9002 45.3918C36.2681 45.489 35.6361 45.6025 34.9717 45.6997C35.0365 46.0076 35.0851 46.2669 35.1337 46.5586C35.2633 46.5424 35.3444 46.5262 35.4254 46.51C35.9602 46.3965 36.5112 46.2831 37.046 46.1535C37.2567 46.1049 37.3377 45.9428 37.3052 45.7321C37.2567 45.5215 37.1595 45.3594 36.9002 45.3918Z" fill="#009859"/>
<path d="M53.7537 52.3446C52.5382 49.4923 51.3066 46.6564 50.0913 43.8041C49.994 43.5935 49.8806 43.5611 49.6699 43.5773C48.892 43.6583 48.0979 43.707 47.3201 43.788C47.1256 43.8041 47.0446 43.7232 46.9797 43.5611C46.4449 42.3457 45.9101 41.1465 45.3591 39.931C45.3105 39.8338 45.2457 39.7203 45.1485 39.688C44.7596 39.5583 44.3544 39.4124 43.9493 39.3639C42.9445 39.2504 41.9397 39.3962 40.9512 39.5907C38.6177 40.0769 36.284 40.5792 33.9504 41.033C33.0753 41.2113 32.1678 41.3085 31.2765 41.422C30.531 41.5192 29.8018 41.6002 29.0563 41.665C28.3271 41.7299 27.5978 41.827 26.8848 41.7785C25.2318 41.665 23.5788 41.5192 21.9258 41.3085C20.4349 41.114 18.9602 40.8224 17.4855 40.5469C15.5408 40.1741 13.5962 39.7366 11.6352 39.38C10.7926 39.2342 9.9337 39.2504 9.09099 39.5421C8.83169 39.6394 8.63719 39.769 8.52376 40.0444C8.02141 41.2275 7.48663 42.3943 6.96805 43.5611C6.91944 43.6745 6.87081 43.788 6.69255 43.7718C5.89848 43.6907 5.1044 43.6584 4.31033 43.5611C4.03483 43.5287 3.90519 43.5935 3.79174 43.8528C2.88423 46.0081 1.94431 48.1635 1.02059 50.3188C0.696472 51.0643 0.388566 51.8098 0.0644531 52.5714C0.0968643 52.5714 0.129274 52.5714 0.129274 52.5714C0.177892 52.539 0.210303 52.5066 0.25892 52.4904C1.053 51.9394 1.9281 51.6801 2.88423 51.7773C3.61348 51.8421 4.29412 52.0853 4.97476 52.3769C5.80124 52.7335 6.62773 53.1062 7.45421 53.4303C8.11866 53.6896 8.8155 53.7058 9.39892 53.2358C9.73921 52.9603 10.0309 52.6038 10.2578 52.2311C10.8898 51.2264 11.4732 50.1892 12.0566 49.1682C12.1538 48.99 12.2511 48.9413 12.4455 49.0224C13.0127 49.2331 13.58 49.4437 14.1634 49.6058C15.7515 50.0271 17.3558 50.3512 18.9927 50.5943C20.8401 50.8698 22.7037 51.0481 24.5836 51.0805C26.6903 51.1129 28.8132 51.0805 30.9361 50.9832C32.3623 50.9184 33.7883 50.7564 35.1983 50.5457C37.3536 50.2378 39.4766 49.8002 41.5185 49.0224C41.6643 48.9575 41.7453 49.0061 41.8263 49.152C42.0208 49.5086 42.2315 49.8489 42.426 50.1892C42.9283 51.0319 43.4145 51.9069 43.9655 52.7173C44.4841 53.4951 45.2619 53.7544 46.1694 53.5113C46.5584 53.4141 46.9473 53.2683 47.3201 53.1062C48.2438 52.7335 49.1513 52.3121 50.075 51.9718C51.0311 51.6315 52.0196 51.6801 52.9596 52.1014C53.2513 52.2311 53.5106 52.4094 53.8185 52.5714C53.8023 52.4904 53.7861 52.4256 53.7537 52.3446ZM21.4721 45.1007C21.2614 45.7812 20.7591 46.1216 20.0784 46.2188C19.4139 46.316 18.7657 46.1378 18.1338 45.9919C17.7124 45.8947 17.291 45.7975 16.8535 45.7003C16.7238 46.2674 16.578 46.8185 16.4645 47.3532C16.4321 47.5315 16.3511 47.5638 16.189 47.5153C15.5894 47.3694 14.9737 47.2235 14.3092 47.0777C14.7144 45.2951 15.1357 43.5287 15.5408 41.7299C16.2863 41.9081 16.9831 42.0702 17.6961 42.2322C18.393 42.3943 19.0898 42.5563 19.7867 42.7184C20.2405 42.8318 20.6618 43.0263 21.0021 43.3342C21.5693 43.8366 21.6828 44.42 21.4721 45.1007ZM24.3891 48.7307C24.0974 48.7145 23.8543 48.6983 23.595 48.6659C23.2223 48.6334 22.8495 48.6172 22.4769 48.6011C22.3148 48.5849 22.2499 48.5362 22.2499 48.3417C22.3634 46.9481 22.4444 45.5382 22.5417 44.1445C22.5579 43.869 22.574 43.5935 22.6065 43.318C22.6227 43.2532 22.7199 43.1236 22.7685 43.1236C23.4167 43.1559 24.065 43.2046 24.7618 43.2532C24.6322 45.0844 24.5025 46.8833 24.3891 48.7307ZM31.7141 44.6144C31.1631 44.6144 30.6283 44.6307 30.0935 44.6144C29.8504 44.6144 29.7694 44.6793 29.7694 44.9386C29.8179 46.0567 29.8504 47.1911 29.8828 48.3093C29.8828 48.4227 29.8828 48.5524 29.8828 48.682C29.8018 48.6983 29.737 48.7145 29.6721 48.7145C29.1211 48.7307 28.5701 48.7469 28.003 48.7793C27.7923 48.7955 27.7437 48.7145 27.7274 48.52C27.6951 47.3694 27.6626 46.2188 27.614 45.0682C27.614 44.971 27.5978 44.8575 27.5978 44.7603C26.9496 44.7603 26.3014 44.7603 25.6207 44.7603C25.6045 44.3389 25.5883 43.9176 25.6045 43.48C25.6045 43.4477 25.7341 43.3828 25.8152 43.3666C26.6255 43.3342 27.4357 43.3018 28.2622 43.2694C29.3156 43.237 30.3527 43.2045 31.4061 43.1559C31.633 43.1397 31.714 43.2207 31.6979 43.4477C31.6979 43.788 31.7141 44.1607 31.7141 44.6144ZM39.5737 46.3485C39.3631 46.9805 38.8283 47.2397 38.2287 47.3694C37.1105 47.6125 35.9761 47.8231 34.8417 48.0501C34.3394 48.1473 33.8208 48.2445 33.286 48.3579C33.1887 47.8556 33.0916 47.3856 32.9943 46.9156C32.7512 45.7003 32.5243 44.4686 32.2812 43.2532C32.2488 43.0587 32.265 42.9615 32.4919 42.9291C33.9828 42.6536 35.4576 42.3618 36.9484 42.0864C37.224 42.0377 37.4995 42.054 37.7749 42.054C38.2449 42.0702 38.6014 42.297 38.7797 42.7508C38.9741 43.2532 38.9903 43.7232 38.6338 44.1769C38.5852 44.2417 38.5204 44.3066 38.4394 44.3876C39.4117 44.663 39.8655 45.4734 39.5737 46.3485Z" fill="#009859"/>
<path d="M41.875 49.1033C41.875 49.1033 47.0769 47.6124 49.0703 48.2282C49.0703 48.2282 50.2533 49.784 47.1256 51.129C44.7434 51.9879 43.7062 52.2958 43.7062 52.2958" fill="#007D44"/>
<path d="M12.1862 48.989C12.1862 48.989 6.98421 47.4981 4.99091 48.114C4.99091 48.114 3.80791 49.6697 6.93559 51.0147C9.3178 51.8736 10.355 52.1816 10.355 52.1816" fill="#007D44"/>
<path d="M43.431 29.4617C43.3175 29.8993 43.2041 30.3369 43.0907 30.7906C43.0582 30.9526 42.9772 31.0337 42.7989 31.0499C41.4377 31.1147 40.0764 31.1958 38.7313 31.2767C37.6617 31.3416 36.5922 31.4064 35.5227 31.4712C35.085 31.5037 34.6638 31.5199 34.2262 31.5522C34.1613 31.7467 34.21 31.8278 34.4045 31.8115C35.1661 31.7792 35.9278 31.7467 36.6894 31.7143C37.7752 31.6657 38.8448 31.6009 39.9306 31.5361C40.7247 31.4874 41.5025 31.4388 42.2966 31.4064C42.4911 31.3902 42.6855 31.4064 42.9286 31.4064C42.8637 31.6333 42.8152 31.844 42.7341 32.0547C42.5883 32.4598 42.4425 32.8649 42.2641 33.27C42.2318 33.3511 42.1021 33.4483 42.0048 33.4645C40.676 33.5293 39.3633 33.5941 38.0345 33.6428C36.8353 33.6914 35.6361 33.74 34.4206 33.8048C34.3558 33.8048 34.291 33.8211 34.1938 33.8373C34.1938 33.9345 34.1938 34.0155 34.1938 34.1452C36.8028 34.0318 39.3958 33.9183 42.0211 33.7886C41.9725 33.9345 41.94 34.0479 41.8914 34.1452C41.5997 34.7286 41.2756 35.2957 40.9839 35.863C40.9029 36.025 40.7895 36.0898 40.595 36.0898C38.5531 36.1385 36.5112 36.1871 34.4531 36.2357C34.21 36.2357 34.21 36.3491 34.2586 36.5598C36.3816 36.495 38.5045 36.4464 40.7084 36.3816C40.1899 37.0298 39.7199 37.6294 39.2499 38.229C39.0717 38.1965 38.8934 38.1479 38.7151 38.1642C38.148 38.1804 37.5807 38.2452 37.0135 38.2452C36.3167 38.2614 35.6198 38.229 34.9068 38.2452C34.6961 38.2452 34.4855 38.2776 34.2748 38.3262C34.21 38.3424 34.1613 38.4558 34.0641 38.5693C34.5503 38.5693 34.9393 38.5693 35.3443 38.5693C36.5598 38.5531 37.759 38.5207 38.9744 38.5045C38.7638 38.7313 38.5693 38.942 38.3586 39.1689C38.229 39.2986 38.0994 39.4444 37.9697 39.574C37.9373 39.6065 37.9049 39.6227 37.8562 39.6227C36.7705 39.8334 35.6847 40.0602 34.5989 40.2547C33.7238 40.4168 32.8487 40.5302 31.9736 40.6761C31.9574 40.6761 31.9249 40.6598 31.8926 40.6598C31.8926 36.4464 31.8926 32.2329 31.8926 28.0032C32.6218 27.9546 33.3511 27.906 34.1127 27.8574C34.1127 27.987 34.129 28.068 34.129 28.1653C34.129 28.6839 34.129 29.1862 34.129 29.7048C34.129 29.8344 34.1452 29.9317 34.3072 29.9155C34.9879 29.8669 35.6685 29.8183 36.3491 29.7696C36.657 29.7535 36.9487 29.721 37.2566 29.7048C37.8887 29.6724 38.5369 29.64 39.1689 29.5914C40.0602 29.5266 40.9353 29.4617 41.8266 29.3969C42.2155 29.3645 42.6045 29.3645 42.9934 29.3321C43.123 29.3159 43.2689 29.2997 43.3985 29.2835C43.431 29.3159 43.431 29.3807 43.431 29.4617Z" fill="#54BD81"/>
<path d="M32.2326 0C32.2326 0.534785 32.2326 1.05337 32.2326 1.60436C30.839 1.70159 29.5263 2.07432 28.2298 2.56049C26.9334 3.04666 25.7341 3.66247 24.6322 4.50516C24.616 4.47275 24.5836 4.45655 24.5674 4.42414C24.6322 4.34311 24.697 4.27829 24.7781 4.19726C25.5235 3.51662 26.2527 2.80357 27.1278 2.26879C28.6187 1.34507 30.1907 0.599608 31.8923 0.145851C31.9733 0.129645 32.0543 0.0486169 32.1191 0C32.1678 0 32.2002 0 32.2326 0Z" fill="#54BD81"/>
<path d="M21.0179 14.8604C20.8721 11.1169 22.9464 6.69275 26.933 4.22949C27.3543 5.12081 27.808 5.99591 28.1808 6.90342C28.5535 7.81094 28.8453 8.73462 29.1694 9.6584C28.6346 9.82046 28.0835 9.96625 27.5326 10.1446C26.9978 10.3228 26.463 10.5173 25.9445 10.728C25.0207 11.1169 24.1132 11.5706 23.3353 12.1865C22.7519 12.6402 22.2171 13.1426 21.7148 13.6936C21.4392 14.0015 21.261 14.4229 21.0179 14.8604Z" fill="#54BD81"/>
<path d="M22.3467 36.398C23.1245 36.2197 23.8862 36.0252 24.6802 35.8956C25.3609 35.7822 26.0416 35.7011 26.7222 35.6525C27.4839 35.6039 28.2455 35.6201 29.0072 35.5877C29.3637 35.5715 29.7365 35.5553 30.0929 35.5391C30.2388 35.5391 30.3036 35.5877 30.3036 35.7336C30.3036 37.4027 30.3036 39.0881 30.3036 40.7573C30.3036 40.7735 30.2874 40.8059 30.2712 40.8545C29.3799 40.9356 28.4886 41.0004 27.5325 41.0814C27.5325 39.7201 27.5325 38.4075 27.5325 37.0786C26.8842 36.8355 26.2846 36.5277 25.6526 36.398C25.1016 36.2845 24.502 36.3493 23.9186 36.3493C23.6917 36.3493 23.4486 36.3656 23.2218 36.3818C22.9301 36.398 22.6383 36.4142 22.3467 36.4142C22.3629 36.4142 22.3467 36.4142 22.3467 36.398Z" fill="#54BD81"/>
<path d="M30.3043 31.6661C30.3043 32.1199 30.3043 32.5575 30.3043 32.995C30.3043 33.0598 30.1909 33.1409 30.1261 33.1571C29.5588 33.2219 28.9917 33.2705 28.4244 33.3191C27.6304 33.4002 26.8525 33.465 26.0584 33.5784C25.1672 33.6919 24.2758 33.8377 23.3845 33.9998C22.6876 34.1294 22.0232 34.3887 21.375 34.7128C21.2616 34.7776 21.1319 34.8262 20.9699 34.9073C20.9699 34.5184 20.9537 34.1618 20.9861 33.8216C21.0023 33.7081 21.1157 33.5946 21.2292 33.5136C21.9908 32.9627 22.8821 32.7357 23.7735 32.5089C24.6972 32.282 25.6371 32.0875 26.577 31.8931C26.9821 31.812 27.4035 31.812 27.8087 31.7797C28.5865 31.731 29.3644 31.6986 30.1422 31.6661C30.1909 31.6338 30.2395 31.65 30.3043 31.6661Z" fill="#54BD81"/>
<path d="M20.9688 25.0865C21.0012 24.7463 21.0012 24.406 21.0498 24.0656C21.0822 23.7901 21.2605 23.5957 21.4712 23.4174C21.9087 23.0609 22.3138 22.6557 22.7676 22.3316C23.5941 21.732 24.5502 21.3268 25.5225 21.0352C26.5111 20.7434 27.5158 20.4679 28.5206 20.2249C29.0878 20.0952 29.6712 20.079 30.287 19.998C30.287 20.549 30.287 21.0514 30.2708 21.5375C30.2708 21.5861 30.1249 21.6672 30.044 21.6834C29.1526 21.7968 28.2613 21.8616 27.3862 22.0237C26.4462 22.202 25.5064 22.4289 24.6313 22.834C24.064 23.0933 23.4806 23.3039 22.9297 23.5957C22.2652 23.936 21.698 24.406 21.1957 24.9407C21.1471 25.0056 21.0822 25.0542 21.0174 25.1028C21.0174 25.1028 20.985 25.0865 20.9688 25.0865Z" fill="#54BD81"/>
<path d="M29.8822 12.1221C29.9795 12.673 30.0767 13.1755 30.174 13.7103C29.7202 13.8074 29.2988 13.9047 28.8775 13.9695C27.8079 14.1315 26.7869 14.4233 25.7984 14.8446C24.9882 15.2011 24.1779 15.5738 23.4162 16.0276C22.4763 16.5786 21.6985 17.3403 21.1637 18.3126C21.1312 18.3612 21.115 18.3937 21.0826 18.4423C21.0664 18.4585 21.0502 18.4747 20.9854 18.5395C21.034 18.0695 20.8881 17.632 21.196 17.2268C21.4229 16.9189 21.5364 16.5138 21.7308 16.1735C22.2656 15.3146 23.0597 14.7474 23.8862 14.2126C25.3285 13.2726 26.949 12.8189 28.5696 12.3327C28.9747 12.2355 29.4285 12.2031 29.8822 12.1221Z" fill="#54BD81"/>
<path d="M21.0023 21.9914C21.0023 21.6349 20.9213 21.2946 21.0186 21.0515C21.1968 20.6302 21.4399 20.2088 21.764 19.8847C23.0442 18.572 24.5676 17.6159 26.3016 17.0325C27.2902 16.7084 28.3111 16.4653 29.3158 16.206C29.6237 16.125 29.9478 16.1412 30.2881 16.125C30.2881 16.7084 30.2881 17.2432 30.2881 17.8265C29.8992 17.8752 29.5103 17.94 29.1214 17.9724C27.987 18.0858 26.8688 18.329 25.7992 18.7503C25.1024 19.0258 24.3893 19.3013 23.7249 19.6416C22.8012 20.1116 21.9909 20.7112 21.3751 21.5539C21.2778 21.6835 21.1644 21.7969 21.0023 21.9914Z" fill="#54BD81"/>
<path d="M30.3035 27.8408C30.3035 28.3432 30.3035 28.7483 30.3035 29.1535C30.3035 29.2993 30.2549 29.4127 30.0605 29.4127C29.6391 29.429 29.2016 29.4776 28.7802 29.4938C27.5486 29.5262 26.3493 29.7207 25.1663 29.9962C24.3723 30.1907 23.5782 30.3689 22.8328 30.6606C22.2169 30.8875 21.6335 31.2602 21.0501 31.5682C20.8071 30.9847 21.0177 30.3041 21.6173 29.9313C22.7031 29.2507 23.8699 28.7483 25.134 28.5215C26.1711 28.3432 27.2245 28.1811 28.2616 28.0515C28.9099 27.9543 29.5905 27.9056 30.3035 27.8408Z" fill="#54BD81"/>
<path d="M20.9854 28.4569C20.9854 28.0355 20.9854 27.7114 20.9854 27.3711C20.9854 27.3387 21.0016 27.2901 21.0178 27.2576C21.8442 26.3502 22.8004 25.6533 23.9672 25.232C25.0692 24.843 26.1712 24.4865 27.338 24.3083C28.2455 24.1624 29.1692 24.0652 30.0929 23.9355C30.1577 23.9355 30.2064 23.9355 30.3036 23.9517C30.3036 24.4217 30.3036 24.8916 30.3036 25.3616C30.3036 25.4102 30.2226 25.4913 30.1577 25.5075C29.3151 25.6047 28.4724 25.6533 27.6458 25.783C26.9328 25.8964 26.2198 26.0584 25.523 26.2529C24.6316 26.496 23.7241 26.6905 22.8976 27.128C22.217 27.4521 21.5526 27.8249 20.9854 28.4569Z" fill="#54BD81"/>
<path d="M28.3589 6.41783C28.1483 5.94787 27.9376 5.51032 27.7432 5.07276C29.2017 4.58659 30.644 4.11664 32.2159 4.14905C32.2159 4.66763 32.2159 5.15379 32.2159 5.70478C30.887 5.62376 29.6392 5.99648 28.3589 6.41783Z" fill="#54BD81"/>
<path d="M32.2328 7.63281C32.2328 8.07034 32.249 8.45933 32.2165 8.84824C32.2165 8.92923 32.0545 9.02648 31.9573 9.04266C31.3901 9.15617 30.8391 9.2696 30.2719 9.35059C30.0612 9.38303 29.8505 9.39922 29.6237 9.39922C29.5426 9.39922 29.4292 9.30197 29.3968 9.23716C29.2834 8.92923 29.1861 8.62138 29.0889 8.28101C30.1098 7.90828 31.147 7.77866 32.2328 7.63281Z" fill="#54BD81"/>
</g>
<defs>
<clipPath id="clip0_384_2840">
<rect width="53.94" height="53.94" fill="white"/>
</clipPath>
</defs>
</svg>
